<svg width="33" height="33" fill="none" xmlns="http://www.w3.org/2000/svg"><path d="M32.844 16.124L16.876.156a.532.532 0 00-.752 0L.156 16.124a.532.532 0 00.376.908h2.661v12.775h-.532a.532.532 0 00-.532.532v2.129c0 .294.238.532.532.532H30.34a.532.532 0 00.532-.532v-2.13a.532.532 0 00-.532-.531h-.532V17.032h2.66a.532.532 0 00.377-.908zm-3.037 15.812H3.193V30.87h26.614v1.065zm-15.968-2.13H7.452v-9.58h6.387v9.58zm1.064 0V19.695a.532.532 0 00-.532-.533H6.919a.532.532 0 00-.532.533v10.113H4.258V16.72L16.5 4.478 28.742 16.72v13.087H14.903zm14.592-13.838L16.876 3.349a.532.532 0 00-.752 0L3.505 15.968H1.817L16.5 1.285l14.683 14.683h-1.688z" fill="#fff"/><path d="M20.226 13.307a3.726 3.726 0 10-7.451 0 3.726 3.726 0 007.451 0zm-6.387 0a2.661 2.661 0 115.323 0 2.661 2.661 0 01-5.323 0z" fill="#fff"/></svg>