<svg width="44" height="30" fill="none" xmlns="http://www.w3.org/2000/svg"><path d="M40.193.72a.719.719 0 00-.718-.72h-2.87a.719.719 0 00-.718.72v8.948l-6.83 4.108a.72.72 0 00-.348.618v2.159h1.436V14.8l6.829-4.108a.72.72 0 00.348-.617v-2.88h1.436V25.19h-5.025v1.44h5.025v1.438h-6.46v-9.355a.719.719 0 00-.718-.72H3.59a.719.719 0 00-.718.72v9.355H0v1.44h43.064v-1.44h-2.871V.72zm-1.435.72v1.439h-1.436v-1.44h1.436zm-1.436 4.317V4.318h1.436v1.44h-1.436zM4.306 26.628h17.226v-1.44H4.306v-5.757h26.556v5.758H28.71v1.44h2.154v1.438h-3.59V25.19a2.156 2.156 0 00-2.152-2.16c-1.19 0-2.153.967-2.153 2.16v2.878H4.306v-1.439zm21.532 1.44h-1.435v-2.88a.719.719 0 111.435 0v2.88z" fill="#fff"/><path d="M33.733 8.636H13.637a.719.719 0 00-.718.72v7.197h1.435v-6.478h19.38V8.636z" fill="#fff"/></svg>