<svg width="33" height="33" fill="none" xmlns="http://www.w3.org/2000/svg"><path d="M32.517 29.04h-.108V16.983h.108a.483.483 0 100-.966h-.108v-2.915a5.96 5.96 0 00-5.953-5.953h-1.83v-.107a.483.483 0 10-.966 0v.107h-9.255a.483.483 0 100 .967h9.255v2.062H12.881V8.116h1.616a.483.483 0 100-.967h-1.616v-.107a.483.483 0 10-.967 0v.107h-1.183a1.959 1.959 0 01-1.957-1.957V3.635h.237a.483.483 0 100-.967h-.237V.483a.483.483 0 10-.966 0v2.185H5.745V.483a.483.483 0 10-.967 0v2.185h-.107a.483.483 0 100 .967h.107v1.557a5.96 5.96 0 005.953 5.953h1.183v.107a.483.483 0 10.967 0v-.107h2.69v1.788h-.107a.483.483 0 100 .967h.107v1.472h-.394a1.04 1.04 0 00-1.039 1.038v4.534a1.04 1.04 0 001.039 1.038h.394v1.473h-.107a.483.483 0 100 .966h.107v1.147c0 .748-.608 1.356-1.356 1.356h-.96v-.103a.483.483 0 10-.967 0v.103H3.563v-.103a.483.483 0 10-.966 0v.103H.483a.483.483 0 100 .967h2.114v2.063H.483a.483.483 0 100 .966h2.114v.112a.483.483 0 10.966 0v-.111h3.188a.483.483 0 100-.967H3.563V27.89h8.725v2.063H6.435a.483.483 0 100 .966h5.853v.112a.483.483 0 10.967 0v-.111h.96a5.358 5.358 0 005.352-5.353V24.42h.107a.483.483 0 100-.966h-.107v-1.473h.394A1.04 1.04 0 0021 20.944V16.41a1.04 1.04 0 00-1.039-1.038h-.394V13.9h.107a.483.483 0 100-.967h-.107v-1.788h4.093v.107a.483.483 0 10.967 0v-.107h1.83a1.96 1.96 0 011.956 1.957v2.915h-.107a.483.483 0 100 .966h.107v8.872a.483.483 0 10.967 0v-8.872h2.063V29.04H29.38v-3.871a.483.483 0 10-.967 0v3.87h-.107a.483.483 0 100 .968h.107v2.51a.483.483 0 10.967 0v-2.51h2.063v2.51a.483.483 0 10.966 0v-2.51h.108a.483.483 0 100-.967zM10.73 10.178a4.992 4.992 0 01-4.986-4.986V3.635h2.062v1.557a2.927 2.927 0 002.924 2.924h1.183v2.062H10.73zm7.87 15.39a4.39 4.39 0 01-4.386 4.386h-.96V27.89h.96a2.326 2.326 0 002.323-2.323V24.42H18.6v1.147zm0-2.114h-2.063v-1.472H18.6v1.473zm1.432-7.044v4.534a.07.07 0 01-.072.071h-4.784a.072.072 0 01-.072-.071V16.41a.07.07 0 01.072-.071h4.784c.04 0 .072.032.072.071zM18.6 15.372h-2.062V13.9H18.6v1.472zm0-2.44h-2.062v-1.787H18.6v1.788zm10.78 3.085v-2.915a2.927 2.927 0 00-2.924-2.924h-1.83V8.116h1.83a4.992 4.992 0 014.986 4.986v2.915H29.38z" fill="#fff"/><path d="M17.57 16.548c-1.175 0-2.13.955-2.13 2.129s.955 2.13 2.13 2.13c1.173 0 2.128-.956 2.128-2.13s-.955-2.13-2.129-2.13zm0 3.291a1.163 1.163 0 01-.001-2.324 1.163 1.163 0 010 2.324z" fill="#fff"/></svg>