<svg width="27" height="30" fill="none" xmlns="http://www.w3.org/2000/svg"><path d="M17.437 30a.42.42 0 00.415-.424v-2.37a.42.42 0 00-.415-.425h-.978l-1.097-7.016V5.645l7.334-2.459v1.979a.42.42 0 00.415.424h2.895a.42.42 0 00.415-.424V3.219h.164a.41.41 0 00.293-.124.433.433 0 00.122-.3V.425a.433.433 0 00-.122-.3.413.413 0 00-.293-.125h-4.61c-.381.116-6.182 2.138-8.422 2.92l-.053.018-.053-.018C11.207 2.138 5.407.116 5.026 0H.415a.413.413 0 00-.293.124.433.433 0 00-.122.3v2.37c0 .112.044.222.122.3a.413.413 0 00.293.125h.164v1.945a.42.42 0 00.415.425h2.895a.42.42 0 00.415-.425V3.186l7.334 2.458v14.121l-1.097 7.016h-.978a.42.42 0 00-.415.424v2.37a.42.42 0 00.415.425h7.874zm-.415-.85H9.978v-1.52h7.044v1.52zm-1.403-2.37h-4.238l1.025-6.556h2.188l1.025 6.557zM26.17 2.37h-3.638a.419.419 0 00-.128.021l-7.586 2.542a.423.423 0 00-.285.403v14.039h-2.066V5.336a.423.423 0 00-.286-.404l-7.404-2.48-.02-.007-.16-.054a.42.42 0 00-.13-.021H.83V.85h4.147l8.389 2.939a.406.406 0 00.268 0l8.388-2.94h4.148V2.37zM3.474 4.74H1.409V3.22h2.065v1.52zm22.117 0h-2.065V3.22h2.065v1.52z" fill="#fff"/></svg>