<svg width="38" height="32" fill="none" xmlns="http://www.w3.org/2000/svg"><path d="M36.94 20.16h-5.535a2.41 2.41 0 00-2.932-1.757 2.423 2.423 0 00-1.743 1.758h-2.507v-1.918a2.441 2.441 0 001.739-2.97 2.422 2.422 0 00-2.345-1.832h-1.21v-3.055a.608.608 0 00-.606-.61h-.606V7.331h.606a.608.608 0 00.605-.611V4.888h4.845a2.433 2.433 0 002.437-2.429A2.433 2.433 0 0027.28.001a2.418 2.418 0 00-2.112 1.222h-4.312a2.386 2.386 0 00-4.166 0h-4.312a2.405 2.405 0 00-3.305-.88 2.45 2.45 0 00-.872 3.334 2.413 2.413 0 002.094 1.21h4.844v1.834c0 .337.271.61.606.61h.605v2.444h-.605a.608.608 0 00-.606.611v3.055h-1.21a2.429 2.429 0 00-2.422 2.436 2.436 2.436 0 001.816 2.366v1.918h-2.508a2.41 2.41 0 00-2.932-1.758 2.423 2.423 0 00-1.742 1.758H.606a.608.608 0 00-.606.61v8.553c0 .338.271.611.606.611H6.14a2.41 2.41 0 002.932 1.759 2.423 2.423 0 001.742-1.759h2.998c.563.22 3.222 1.222 4.96 1.222s4.396-1.002 4.96-1.222h2.997a2.41 2.41 0 002.932 1.759 2.423 2.423 0 001.743-1.759h5.535a.608.608 0 00.605-.61v-8.553a.608.608 0 00-.605-.611zM27.25 1.224c.67 0 1.212.547 1.212 1.221 0 .675-.542 1.222-1.211 1.222a1.216 1.216 0 01-1.211-1.222 1.22 1.22 0 011.21-1.221zM10.296 3.666a1.216 1.216 0 01-1.211-1.222c0-.674.542-1.221 1.21-1.221.67 0 1.212.547 1.212 1.221a1.22 1.22 0 01-1.211 1.222zm-4.24 25.048H1.212v-7.331h4.845v7.33zm3.634.61c0 .675-.542 1.222-1.211 1.222a1.216 1.216 0 01-1.211-1.221v-8.553c0-.675.542-1.222 1.211-1.222s1.211.547 1.211 1.222v8.553zm3.634-.61H10.9v-7.331h2.423v7.33zm7.872-26.27h3.633c.002.431.12.853.34 1.222h-4.312c.22-.369.337-.791.339-1.222zm-2.422-1.221c.669 0 1.21.547 1.21 1.221 0 .675-.541 1.222-1.21 1.222a1.216 1.216 0 01-1.211-1.222 1.22 1.22 0 011.21-1.221zm2.422 3.665V6.11H16.35V4.888h4.845zm-1.211 2.444v2.443h-2.422V7.332h2.422zm-7.606-3.666c.22-.369.337-.791.339-1.222h3.633c.002.431.12.853.34 1.222h-4.312zm3.972 7.331h4.845v2.444H16.35v-2.444zm6.662 17.906a15.104 15.104 0 01-4.24 1.032 15.157 15.157 0 01-4.238-1.032V18.328h8.478v10.575zm.605-11.797h-9.689a1.216 1.216 0 01-1.211-1.222c0-.674.542-1.221 1.211-1.221h9.69c.668 0 1.21.547 1.21 1.221 0 .675-.542 1.222-1.21 1.222zm3.028 11.608h-2.422v-7.331h2.422v7.33zm3.634.61c0 .675-.543 1.222-1.212 1.222a1.216 1.216 0 01-1.21-1.221v-8.553c0-.675.541-1.222 1.21-1.222.67 0 1.212.547 1.212 1.222v8.553zm6.055-.61H31.49v-7.331h4.844v7.33z" fill="#fff"/></svg>