<svg width="116" height="38" fill="none" xmlns="http://www.w3.org/2000/svg"><path d="M33.101 8.754c-.356-.23-.894-.471-1.615-.723-.722-.25-1.553-.376-2.493-.376-1.172 0-2.212.21-3.12.628a6.485 6.485 0 00-2.306 1.757c-.628.753-1.103 1.652-1.428 2.698-.323 1.046-.486 2.196-.486 3.451 0 1.318.194 2.505.581 3.561.387 1.057.935 1.95 1.646 2.683a7.247 7.247 0 002.572 1.694c1.004.397 2.133.596 3.388.596 1.358 0 2.56-.094 3.606-.283a28.302 28.302 0 002.572-.564V0l-2.917.502v8.252zm0 13.051a9.362 9.362 0 01-1.238.236c-.534.074-1.198.11-1.992.11-1.57 0-2.823-.518-3.765-1.553-.94-1.036-1.41-2.505-1.41-4.409 0-.836.083-1.62.25-2.353.168-.732.44-1.365.816-1.898a3.94 3.94 0 011.458-1.256c.596-.302 1.312-.455 2.149-.455a5.79 5.79 0 012.195.408c.67.272 1.181.555 1.537.847v10.323zm17.251-10.494a96.762 96.762 0 01-1.097 3.451c-.388 1.14-.779 2.243-1.177 3.31a68.272 68.272 0 01-1.13 2.855 65.742 65.742 0 01-1.128-2.855c-.397-1.066-.789-2.17-1.176-3.31a93.778 93.778 0 01-1.098-3.45 69.302 69.302 0 01-.894-3.28h-3.136a82.07 82.07 0 002.87 8.785 137.625 137.625 0 003.183 7.53h2.635a138.312 138.312 0 003.182-7.53 82.206 82.206 0 002.871-8.785h-3.01a70.117 70.117 0 01-.895 3.28zm13-3.687c-.942 0-1.86.178-2.76.534a6.76 6.76 0 00-2.383 1.6c-.69.711-1.245 1.605-1.663 2.682-.419 1.078-.627 2.337-.627 3.78 0 1.235.162 2.37.486 3.405.324 1.035.82 1.93 1.49 2.682.67.753 1.521 1.345 2.556 1.773 1.036.428 2.263.643 3.684.643 1.13 0 2.138-.105 3.028-.314.889-.21 1.51-.408 1.865-.596l-.407-2.447c-.356.168-.884.34-1.584.518-.702.178-1.564.267-2.587.267-1.82 0-3.157-.44-4.014-1.318-.86-.879-1.35-2.165-1.475-3.859h11.165c.02-.168.031-.35.031-.549v-.486c0-2.803-.585-4.889-1.756-6.26-1.17-1.37-2.853-2.055-5.049-2.055zm-4.328 6.997a7.17 7.17 0 01.392-1.663c.2-.544.475-1.025.83-1.444.356-.418.79-.757 1.303-1.02.512-.26 1.103-.391 1.772-.391 1.192 0 2.126.424 2.806 1.27.68.848 1.01 1.93.988 3.248h-8.09zM82.2 7.86a13.982 13.982 0 00-.956-.127 9.093 9.093 0 00-.862-.046c-1.276 0-2.427.11-3.452.33-1.023.218-1.88.454-2.57.705v15.625h2.916V10.635c.167-.041.518-.12 1.05-.235a7.655 7.655 0 011.616-.173c.836 0 1.522.058 2.055.173a9.95 9.95 0 011.144.298l.501-2.541a5.245 5.245 0 00-.58-.141c-.26-.052-.548-.104-.861-.157zm16.718 2.18a6.494 6.494 0 00-2.306-1.757c-.91-.418-1.95-.628-3.12-.628-.941 0-1.772.125-2.494.376-.721.252-1.26.492-1.616.723V0l-2.916.502v23.374c.669.188 1.525.377 2.571.564 1.046.189 2.247.283 3.607.283 1.255 0 2.384-.2 3.387-.596a7.25 7.25 0 002.573-1.694c.71-.732 1.26-1.627 1.646-2.683.387-1.056.581-2.243.581-3.56 0-1.256-.164-2.406-.486-3.452-.325-1.046-.801-1.945-1.427-2.698zm-2.541 10.557c-.941 1.035-2.196 1.553-3.765 1.553-.794 0-1.459-.036-1.991-.11a9.365 9.365 0 01-1.24-.235V11.483c.357-.292.868-.575 1.537-.847a5.8 5.8 0 012.196-.407c.836 0 1.552.152 2.149.455a3.924 3.924 0 011.457 1.255c.377.533.65 1.166.817 1.898.167.733.251 1.517.251 2.353 0 1.903-.471 3.372-1.411 4.407zm18.472-2.416a3.812 3.812 0 00-.988-1.365 6.494 6.494 0 00-1.552-.988 31.077 31.077 0 00-2.07-.863 19.872 19.872 0 01-1.505-.596 5.094 5.094 0 01-1.052-.612 2.173 2.173 0 01-.626-.737 2.073 2.073 0 01-.204-.94c0-.691.303-1.198.91-1.522.606-.324 1.317-.486 2.132-.486.941 0 1.746.089 2.415.266.668.178 1.16.35 1.474.518l.533-2.51a8.853 8.853 0 00-.705-.22 12.97 12.97 0 00-1.051-.235 19.039 19.039 0 00-1.287-.188 12.233 12.233 0 00-1.379-.078c-1.84 0-3.294.423-4.36 1.27-1.066.847-1.599 1.993-1.599 3.436 0 .732.124 1.35.375 1.851.251.501.585.93 1.004 1.286.419.356.915.664 1.491.926.574.262 1.175.517 1.803.768 1.296.524 2.227.994 2.791 1.412.564.418.847.983.847 1.694 0 .69-.29 1.192-.863 1.505-.575.314-1.458.471-2.65.471-1.212 0-2.185-.125-2.917-.377a65.323 65.323 0 01-1.599-.564l-.533 2.51c.292.125.847.309 1.662.549.814.24 1.945.36 3.387.36 2.07 0 3.663-.386 4.781-1.16 1.12-.774 1.678-1.914 1.678-3.42.001-.773-.113-1.428-.343-1.96z" fill="#818181"/><path d="M15.79 12.393a197.126 197.126 0 00-2.085-5.036c-.69-1.6-1.411-3.185-2.164-4.753H8.75a130.594 130.594 0 00-2.164 4.753c-.69 1.6-1.386 3.279-2.086 5.036-.7 1.757-1.417 3.613-2.148 5.569A728.889 728.889 0 000 24.346h3.167l.004-.01h13.793a.07.07 0 00.004.01h3.324c-.837-2.3-1.62-4.428-2.352-6.384a289.655 289.655 0 00-2.15-5.57zM4.215 21.418C5.49 17.85 7.536 12.15 7.98 10.997a78.8 78.8 0 012.086-4.91 94.493 94.493 0 012.053 4.91 352.376 352.376 0 011.992 5.286l.878 2.51c.316.89.622 1.763.919 2.625H4.214z" fill="#0072A5"/><path d="M1.08 31.963c.17-.047.392-.1.664-.159a5.204 5.204 0 011.058-.087c.575 0 .99.167 1.248.5a2.485 2.485 0 01.945-.44c.172-.04.364-.06.575-.06.346 0 .625.05.84.153.213.102.379.246.496.43.117.185.196.406.237.664.04.258.062.54.062.844v2.54h-.571v-2.355a6.49 6.49 0 00-.04-.778 1.495 1.495 0 00-.158-.545.774.774 0 00-.338-.325 1.285 1.285 0 00-.571-.11 2.2 2.2 0 00-.479.048 2 2 0 00-.373.119 1.585 1.585 0 00-.26.14 3.025 3.025 0 00-.144.106c.052.153.092.324.118.514.026.191.04.392.04.603v2.584h-.572v-2.356a6.49 6.49 0 00-.04-.778 1.44 1.44 0 00-.162-.545.791.791 0 00-.347-.325c-.15-.073-.347-.11-.593-.11-.275 0-.508.014-.699.044-.19.03-.311.056-.364.08v3.99H1.08v-4.386zm9.332-.264c.298 0 .552.043.76.127.208.085.377.203.505.352.129.15.223.327.281.532.059.205.088.427.088.668v2.865a2.57 2.57 0 01-.255.057c-.11.021-.24.043-.386.066a6.778 6.778 0 01-1.037.079 2.62 2.62 0 01-.663-.08 1.47 1.47 0 01-.528-.25 1.184 1.184 0 01-.351-.44 1.514 1.514 0 01-.128-.654c0-.246.047-.457.141-.633.094-.176.225-.32.395-.435.17-.114.372-.197.607-.25a3.473 3.473 0 011.023-.066 3.63 3.63 0 01.483.08.728.728 0 01.128.039v-.281c0-.159-.012-.312-.035-.462a1.012 1.012 0 00-.154-.404.857.857 0 00-.333-.29c-.144-.073-.333-.11-.567-.11-.334 0-.583.023-.747.07a4.979 4.979 0 00-.36.114l-.079-.5c.1-.048.253-.092.461-.132.208-.041.458-.062.751-.062zm.053 4.237c.222 0 .417-.007.584-.023.167-.014.31-.033.426-.056v-1.6a1.797 1.797 0 00-.307-.092 2.746 2.746 0 00-.58-.048c-.141 0-.287.01-.44.03-.152.02-.293.065-.421.132a.864.864 0 00-.317.277.8.8 0 00-.123.466 1 1 0 00.084.43.697.697 0 00.237.282c.102.07.225.122.369.154.144.031.306.048.488.048zm4.955-4.219c.188 0 .365.014.532.044.167.03.283.058.347.088l-.114.492a1.306 1.306 0 00-.285-.075 3.228 3.228 0 00-.567-.04 2.67 2.67 0 00-.593.054c-.15.034-.248.064-.295.088v3.981h-.571v-4.333c.147-.064.348-.13.607-.198a3.74 3.74 0 01.94-.101zm3.25 2.158c.208.145.417.314.628.505a10.535 10.535 0 011.203 1.307c.181.236.335.456.463.663h-.686a5.626 5.626 0 00-.479-.68 8.456 8.456 0 00-1.17-1.164 3.35 3.35 0 00-.529-.364v2.208h-.571v-6.717l.571-.105v4.234c.122-.105.275-.248.457-.429.183-.18.369-.362.558-.545.189-.183.368-.36.536-.532.168-.172.309-.322.422-.452h.699c-.135.14-.29.297-.463.469-.175.171-.356.35-.544.536l-.558.55c-.184.18-.362.352-.536.516zm3.173.197c0-.398.057-.745.17-1.041.115-.297.264-.544.448-.743.185-.2.396-.347.633-.444.237-.097.482-.145.734-.145.556 0 1 .182 1.331.545.33.363.496.923.496 1.68a2.252 2.252 0 01-.017.272h-3.19c.018.556.155.984.413 1.283.258.299.668.448 1.23.448.31 0 .556-.03.738-.088.182-.058.314-.108.396-.15l.106.493a2.911 2.911 0 01-1.256.264c-.4 0-.739-.059-1.02-.177a1.822 1.822 0 01-.694-.492 1.948 1.948 0 01-.395-.752 3.457 3.457 0 01-.123-.953zm3.225-.36c-.013-.475-.123-.844-.334-1.108-.211-.264-.51-.395-.896-.395-.206 0-.389.04-.55.123a1.395 1.395 0 00-.422.33 1.53 1.53 0 00-.28.478 1.962 1.962 0 00-.12.572h2.602zm2.767-1.908h1.81v.484h-1.81v2.417c0 .258.022.467.066.628a.884.884 0 00.19.374.595.595 0 00.298.175c.117.03.246.044.386.044.24 0 .434-.027.58-.083a2.58 2.58 0 00.343-.154l.14.475a2.055 2.055 0 01-.43.18 2.136 2.136 0 01-.668.101 1.97 1.97 0 01-.707-.11 1.02 1.02 0 01-.457-.334 1.357 1.357 0 01-.241-.558 3.876 3.876 0 01-.07-.791v-4.184l.57-.106v1.442zm3.936-1.371a.425.425 0 01-.123.32.413.413 0 01-.298.119.415.415 0 01-.299-.119.425.425 0 01-.123-.32.413.413 0 01.422-.44.412.412 0 01.421.44zm-.131 5.916h-.572v-4.545h.572v4.545zm1.88-4.387c.17-.046.398-.1.685-.158a5.38 5.38 0 011.054-.087c.346 0 .634.05.865.149.232.1.416.241.554.426.138.185.236.406.295.664.058.258.087.542.087.852v2.54h-.571v-2.355a4.29 4.29 0 00-.066-.817 1.364 1.364 0 00-.22-.545.852.852 0 00-.403-.303 1.838 1.838 0 00-.628-.093c-.27 0-.502.015-.699.045-.196.03-.324.055-.382.079v3.99h-.572v-4.386zm8.33 3.86a.953.953 0 01-.159.1 2.06 2.06 0 01-.61.22c-.132.026-.28.04-.444.04a2.39 2.39 0 01-.764-.124 1.697 1.697 0 01-.646-.386 1.889 1.889 0 01-.443-.681c-.112-.279-.167-.617-.167-1.016 0-.322.05-.621.15-.897.099-.275.24-.514.425-.716.184-.202.41-.36.677-.475.266-.114.566-.171.9-.171.422 0 .76.028 1.015.083.255.056.464.11.628.163v4.148c0 .68-.176 1.165-.527 1.455-.352.29-.882.435-1.59.435a4.382 4.382 0 01-1.407-.22l.115-.519c.14.065.333.12.575.167.244.047.488.07.734.07.539 0 .93-.103 1.173-.311.243-.209.365-.564.365-1.069v-.296zm-.01-3.463a3.087 3.087 0 00-.386-.084 4.363 4.363 0 00-.676-.04c-.246 0-.464.043-.655.128-.19.085-.353.205-.488.36-.135.156-.237.34-.307.554-.07.214-.106.45-.106.708 0 .298.041.555.123.769.082.214.189.388.32.523.133.135.283.233.453.295.17.061.343.092.519.092a2.1 2.1 0 00.707-.114 1.59 1.59 0 00.497-.264V32.36zm4.553 1.713c0-.398.056-.745.17-1.041.115-.297.264-.544.448-.743.185-.2.395-.347.633-.444a1.92 1.92 0 01.733-.145c.557 0 1 .182 1.332.545.33.363.496.923.496 1.68 0 .046-.002.093-.004.14a1.694 1.694 0 01-.014.132h-3.189c.017.556.155.984.413 1.283.258.299.668.448 1.23.448.31 0 .556-.03.738-.088a3.09 3.09 0 00.396-.15l.105.493a2.912 2.912 0 01-1.257.264c-.398 0-.737-.059-1.018-.177a1.822 1.822 0 01-.694-.492 1.94 1.94 0 01-.396-.752 3.48 3.48 0 01-.122-.953zm3.224-.36c-.012-.475-.123-.844-.334-1.108-.21-.264-.51-.395-.896-.395-.205 0-.388.04-.55.123a1.395 1.395 0 00-.421.33 1.52 1.52 0 00-.281.478 1.962 1.962 0 00-.119.572h2.6zm2.231-1.75c.17-.046.398-.1.685-.158a5.382 5.382 0 011.055-.087c.346 0 .634.05.866.149.23.1.416.241.553.426.138.185.236.406.295.664.058.258.087.542.087.852v2.54h-.571v-2.355a4.29 4.29 0 00-.066-.817 1.364 1.364 0 00-.22-.545.852.852 0 00-.403-.303 1.839 1.839 0 00-.628-.093c-.27 0-.503.015-.7.045-.196.03-.323.055-.382.079v3.99h-.57v-4.386zm8.331 3.86a.936.936 0 01-.158.1 2.648 2.648 0 01-.26.12 2 2 0 01-.352.1 2.398 2.398 0 01-1.207-.084 1.705 1.705 0 01-.646-.386 1.89 1.89 0 01-.444-.681c-.112-.279-.167-.617-.167-1.016 0-.322.05-.621.15-.897.099-.275.24-.514.425-.716.185-.202.41-.36.677-.475.266-.114.566-.171.9-.171a5 5 0 011.015.083c.255.056.464.11.628.163v4.148c0 .68-.176 1.165-.528 1.455-.35.29-.88.435-1.59.435a4.38 4.38 0 01-1.405-.22l.114-.519c.14.065.332.12.575.167.243.047.488.07.734.07.539 0 .93-.103 1.173-.311.243-.209.365-.564.365-1.069v-.296zm-.01-3.463a3.227 3.227 0 00-.386-.084 4.367 4.367 0 00-.677-.04c-.245 0-.464.043-.654.128s-.353.205-.487.36c-.136.156-.238.34-.308.554-.07.214-.106.45-.106.708 0 .298.042.555.123.769.082.214.19.388.321.523.132.135.282.233.453.295.17.061.342.092.518.092.258 0 .493-.038.708-.114.214-.076.378-.164.496-.264V32.36h-.001zm3.154-1.926a.425.425 0 01-.123.32.413.413 0 01-.299.119.414.414 0 01-.299-.119.424.424 0 01-.122-.32c0-.136.04-.242.122-.322a.413.413 0 01.3-.118c.117 0 .215.04.298.119a.424.424 0 01.123.32zm-.132 5.916h-.571v-4.545h.571v4.545zm1.881-4.387c.17-.046.398-.1.685-.158a5.38 5.38 0 011.054-.087c.346 0 .634.05.865.149.232.1.416.241.554.426.138.185.236.406.294.664.058.258.088.542.088.852v2.54h-.572v-2.355a4.29 4.29 0 00-.066-.817 1.363 1.363 0 00-.22-.545.853.853 0 00-.404-.303 1.837 1.837 0 00-.628-.093c-.27 0-.502.015-.698.045-.196.03-.324.055-.382.079v3.99h-.572v-4.386h.002zm5.096 2.11c0-.398.057-.745.17-1.041a2.3 2.3 0 01.449-.743c.184-.2.395-.347.632-.444.238-.097.483-.145.734-.145.557 0 1 .182 1.331.545.331.363.496.923.496 1.68a2.252 2.252 0 01-.017.272h-3.189c.017.556.155.984.413 1.283.257.299.668.448 1.23.448.31 0 .557-.03.738-.088a3.07 3.07 0 00.395-.15l.106.493a2.918 2.918 0 01-1.257.264c-.398 0-.738-.059-1.019-.177a1.827 1.827 0 01-.694-.492 1.948 1.948 0 01-.395-.752 3.48 3.48 0 01-.123-.953zm3.224-.36c-.011-.475-.123-.844-.334-1.108-.21-.264-.51-.395-.896-.395-.205 0-.388.04-.55.123a1.396 1.396 0 00-.42.33c-.12.137-.215.297-.282.478a1.982 1.982 0 00-.119.572h2.601zm1.96.36c0-.398.057-.745.17-1.041.115-.297.264-.544.448-.743.185-.2.396-.347.633-.444.238-.097.482-.145.734-.145.556 0 1 .182 1.33.545.332.363.497.923.497 1.68a2.253 2.253 0 01-.017.272h-3.19c.018.556.155.984.413 1.283.257.299.668.448 1.23.448.31 0 .557-.03.738-.088.182-.058.314-.108.395-.15l.106.493a2.915 2.915 0 01-1.257.264c-.398 0-.738-.059-1.019-.177a1.822 1.822 0 01-.694-.492 1.94 1.94 0 01-.395-.752 3.528 3.528 0 01-.122-.953zm3.224-.36c-.011-.475-.122-.844-.333-1.108-.211-.264-.51-.395-.897-.395-.205 0-.388.04-.549.123a1.394 1.394 0 00-.422.33 1.53 1.53 0 00-.28.478 1.985 1.985 0 00-.12.572h2.601zm3.778-1.995c.187 0 .364.014.531.044.168.03.283.058.347.088l-.114.492a1.298 1.298 0 00-.285-.075 3.228 3.228 0 00-.567-.04 2.62 2.62 0 00-.593.054c-.15.034-.248.064-.294.088v3.981h-.571v-4.333a3.743 3.743 0 011.546-.3zm2.812-1.284a.425.425 0 01-.123.32.414.414 0 01-.299.119.414.414 0 01-.298-.119.426.426 0 01-.123-.32.413.413 0 01.422-.44c.117 0 .216.04.298.118.082.08.123.187.123.322zm-.132 5.916h-.571v-4.545h.571v4.545zm1.881-4.387c.17-.046.398-.1.685-.158a5.382 5.382 0 011.055-.087c.346 0 .633.05.865.149.231.1.416.241.553.426.138.185.236.406.294.664.059.258.088.542.088.852v2.54h-.572v-2.355a4.29 4.29 0 00-.066-.817 1.361 1.361 0 00-.22-.545.853.853 0 00-.404-.303 1.836 1.836 0 00-.628-.093c-.269 0-.501.015-.698.045-.196.03-.324.055-.382.079v3.99h-.571v-4.386zm8.329 3.86a.978.978 0 01-.158.1 2.46 2.46 0 01-.26.12c-.102.04-.22.074-.35.1a2.409 2.409 0 01-1.209-.084 1.705 1.705 0 01-.646-.386 1.898 1.898 0 01-.443-.681c-.112-.279-.167-.617-.167-1.016 0-.322.049-.621.149-.897.1-.275.241-.514.426-.716.184-.202.41-.36.676-.475.267-.114.567-.171.901-.171a5 5 0 011.015.083c.255.056.464.11.628.163v4.148c0 .68-.176 1.165-.528 1.455-.35.29-.88.435-1.59.435a4.376 4.376 0 01-1.406-.22l.115-.519c.14.065.332.12.575.167.243.047.488.07.733.07.54 0 .93-.103 1.174-.311.243-.209.364-.564.364-1.069v-.296h.001zm-.009-3.463a3.27 3.27 0 00-.386-.084 4.357 4.357 0 00-.677-.04 1.59 1.59 0 00-.655.128c-.19.085-.353.205-.488.36-.135.156-.237.34-.307.554-.071.214-.106.45-.106.708 0 .298.04.555.123.769.082.214.189.388.32.523.133.135.283.233.454.295.17.061.342.092.517.092a2.1 2.1 0 00.708-.114 1.58 1.58 0 00.496-.264V32.36h.001z" fill="#BAB7B9"/></svg>