<svg width="28" height="28" fill="none" xmlns="http://www.w3.org/2000/svg"><g clip-path="url(#clip0)"><path d="M27.115 23.349l-.785-4.254a.411.411 0 00-.324-.329l-6.176-1.235a.412.412 0 00-.372.112l-2.732 2.733c-4.622-2.009-7.098-4.486-9.295-9.303l2.728-2.728a.412.412 0 00.113-.372L9.037 1.797a.412.412 0 00-.329-.324L4.455.688a.42.42 0 00-.179.006 5.635 5.635 0 00-2.727 1.51C.245 3.508-.249 5.432.118 7.767c.342 2.173 1.027 4.542 1.93 6.671a.412.412 0 00.758-.321C1.929 12.048 1.263 9.747.93 7.639c-.33-2.094.075-3.727 1.2-4.852a4.814 4.814 0 011.955-1.188l2.454 9.488.001.002a.41.41 0 00.022.062v.003c1.2 2.686 2.481 4.66 4.03 6.209 1.552 1.551 3.48 2.784 6.066 3.88l.006.002a.4.4 0 00.051.018h.002l9.486 2.454a4.815 4.815 0 01-1.188 1.955c-1.126 1.125-2.758 1.53-4.852 1.2-3.977-.626-9.498-2.56-13.066-6.115l-.05-.051c-1.287-1.291-2.44-2.923-3.43-4.851a.412.412 0 00-.733.376c1.029 2.003 2.233 3.704 3.58 5.056l.025.026.02.02.006.006c3.709 3.694 9.416 5.7 13.52 6.346.501.079.983.118 1.444.118 1.687 0 3.094-.525 4.118-1.55a5.634 5.634 0 001.51-2.727.416.416 0 00.007-.177zM4.94 1.614l3.344.617 1.138 5.686-2.265 2.265L4.94 1.615zm12.68 19.031l2.265-2.265 5.686 1.138.617 3.344-8.568-2.217z" fill="#fff"/></g><defs><clipPath id="clip0"><path fill="#fff" d="M0 0h28v28H0z"/></clipPath></defs></svg>