<svg width="21" height="27" fill="none" xmlns="http://www.w3.org/2000/svg"><path d="M20.06 4.809L16.021.773a.56.56 0 00-.397-.166H1.34a.56.56 0 00-.56.561v24.664a.56.56 0 00.56.56h18.322a.56.56 0 00.56-.56V5.204a.561.561 0 00-.162-.395zM16.185 2.52l2.124 2.124h-2.124V2.52zM1.9 25.271V1.73h13.165v3.475a.56.56 0 00.56.562h3.477v19.507L1.9 25.27z" fill="#fff"/><path d="M5.215 8.669H10.5a.56.56 0 000-1.121H5.215a.56.56 0 000 1.12zm10.57 1.574H5.215a.56.56 0 000 1.121h10.57a.56.56 0 100-1.12zm0 2.697H5.215a.56.56 0 100 1.12h10.57a.56.56 0 100-1.12zm0 2.696H5.215a.56.56 0 100 1.12h10.57a.56.56 0 000-1.12zm0 2.695H5.215a.56.56 0 000 1.121h10.57a.56.56 0 100-1.12z" fill="#fff"/></svg>