<svg width="31" height="31" fill="none" xmlns="http://www.w3.org/2000/svg"><path d="M3.39 30.031h1.938a.484.484 0 00.484-.484v-3.39h11.625v3.39c0 .267.217.484.485.484h11.625a.484.484 0 00.484-.484V22.28a.484.484 0 00-.142-.342l-.826-.827V1.453a.484.484 0 00-.485-.484H3.391A2.425 2.425 0 00.969 3.39v24.218a2.425 2.425 0 002.422 2.422zm19.376-.968v-4.844h1.937v4.843h-1.937zm6.297 0h-3.391v-5.329a.484.484 0 00-.485-.484h-2.906a.484.484 0 00-.484.484v5.328h-3.39v-6.58l5.327-5.328 2.08 2.08a.484.484 0 00.827-.343v-1.453h1.453v3.875c0 .128.05.251.142.342l.826.827v6.58zM3.39 1.938h24.703v14.53h-1.938a.484.484 0 00-.484.485v.768l-1.595-1.595a.484.484 0 00-.685 0l-5.813 5.813a.484.484 0 00-.142.342v2.907H5.813V5.328a.484.484 0 00-.484-.484H3.391A1.455 1.455 0 011.937 3.39c0-.802.652-1.454 1.454-1.454zM1.937 5.326a2.41 2.41 0 001.454.486h1.453v23.25H3.39a1.455 1.455 0 01-1.454-1.454V5.327z" fill="#28292A"/><path d="M7.75 20.828h2.906a.484.484 0 00.485-.484c0-.632.405-1.17.968-1.37v1.37c0 .267.217.484.485.484h3.39a.484.484 0 00.485-.484v-6.297h9.687a.484.484 0 00.485-.485V3.876a.484.484 0 00-.485-.484H7.75a.484.484 0 00-.484.484v16.469c0 .267.216.484.484.484zm17.922-7.75h-5.813v-.969h1.453a.484.484 0 00.485-.484c0-1.17-.834-2.148-1.938-2.373V4.359h5.813v8.72zM13.562 4.36v4.844h-.484v.969h.969a.484.484 0 00.484-.485V4.36h4.36v5.329c0 .267.216.484.484.484.631 0 1.17.405 1.37.969h-1.37a.484.484 0 00-.484.484v1.453h-2.907a.484.484 0 00-.484.485v6.296h-2.422v-1.453a.484.484 0 00-.484-.484c-1.17 0-2.148.833-2.373 1.937H8.234v-9.687h3.391v-.969h-3.39V4.36h5.328z" fill="#28292A"/></svg>