<svg width="22" height="29" fill="none" xmlns="http://www.w3.org/2000/svg"><path d="M6.448 16.766h8.41c.31 0 .56-.254.56-.567v-5.322l.757.655c.236.204.59.175.79-.062a.57.57 0 00-.06-.798l-5.887-5.098a.556.556 0 00-.73 0l-5.887 5.098a.57.57 0 00-.061.798.557.557 0 00.79.062l.757-.655v5.322c0 .313.251.567.56.567zm.56-6.86l3.645-3.156 3.644 3.156v5.727h-3.083v-2.266a.564.564 0 00-.561-.566c-.31 0-.56.253-.56.566v2.266H7.008V9.906z" fill="#28292A"/><path d="M10.25 28.828a.558.558 0 00.806 0c3.578-3.732 10.25-12.126 10.25-17.726 0-1.977-.532-3.936-1.538-5.667A.558.558 0 0019 5.234a.57.57 0 00-.2.775 10.147 10.147 0 011.385 5.093c0 5.73-7.67 14.467-9.532 16.504-1.862-2.037-9.532-10.774-9.532-16.504 0-5.404 4.365-9.97 9.532-9.97 1.703 0 3.383.496 4.857 1.433a.557.557 0 00.773-.178.57.57 0 00-.176-.781A10.163 10.163 0 0010.653 0C4.679 0 0 5.254 0 11.102c0 5.594 6.66 13.982 10.25 17.726z" fill="#28292A"/><path d="M17.774 4.248c.31 0 .56-.253.56-.566a.564.564 0 00-.56-.567.564.564 0 00-.561.567c0 .313.25.566.56.566z" fill="#28292A"/></svg>