<svg width="31" height="30" fill="none" xmlns="http://www.w3.org/2000/svg"><path d="M27.562 11.767l.657.437a.508.508 0 00.695-.13l1.123-1.62a.482.482 0 00-.133-.68L15.343.104a.51.51 0 00-.562 0L.22 9.775a.483.483 0 00-.133.68l1.123 1.62a.5.5 0 00.32.207.51.51 0 00.375-.076l.658-.438v4.896a1.23 1.23 0 00-.658.66c-.84 2.035-1.842 4.707-1.842 5.9 0 1.756 1.045 3.12 2.5 3.377v2.005h-2.5v.978h30v-.978h-2.5V11.767zM1.756 11.12l-.561-.81L15.062 1.1l13.867 9.21-.562.81-13.024-8.65a.509.509 0 00-.562 0L1.756 11.12zm-.694 12.102c0-.795.644-2.811 1.768-5.531a.242.242 0 01.232-.153.24.24 0 01.231.153c1.124 2.72 1.769 4.736 1.769 5.531 0 1.418-.842 2.447-2 2.447-1.159 0-2-1.03-2-2.447zm2.5 3.378c1.455-.257 2.5-1.621 2.5-3.378 0-1.192-1.002-3.864-1.842-5.898a1.23 1.23 0 00-.658-.661v-5.56l11.5-7.636 11.5 7.636v9.525l-.084-.123c-.186-.273-.647-.273-.832 0l-1 1.467a.482.482 0 00-.084.271v.98h-1v-.98a.485.485 0 00-.084-.271l-1-1.468c-.186-.273-.647-.273-.832 0l-1 1.468a.485.485 0 00-.084.271v.98h-1v-.98a.485.485 0 00-.084-.271l-1-1.468c-.186-.273-.647-.273-.832 0l-1 1.468a.485.485 0 00-.084.271v6.362h-3v-9.297a.495.495 0 00-.5-.49h-5.5c-.277 0-.5.219-.5.49v9.297h-3.5V26.6zm15 2.005h-1v-6.213l.5-.734.5.734v6.213zm1-4.404h1v.978h-1v-.978zm0 1.957h1v2.447h-1v-2.447zm3 2.447h-1v-6.213l.5-.734.5.734v6.213zm1-4.404h1v.978h-1v-.978zm0 1.957h1v2.447h-1v-2.447zm-11 2.447h-4.5v-8.808h4.5v8.808zm13 0v-6.213l.5-.734.5.734v6.213h-1z" fill="#28292A"/><path d="M13.562 15.393h3c1.102 0 2-.878 2-1.957V10.5c0-1.08-.898-1.957-2-1.957h-3c-1.103 0-2 .878-2 1.957v2.936c0 1.08.897 1.957 2 1.957zm-1-1.957v-.979h2v1.958h-1a.99.99 0 01-1-.98zm4 .979h-1v-1.958h2v.979a.99.99 0 01-1 .979zm1-3.915v.979h-2V9.52h1a.99.99 0 011 .979zm-4-.979h1v1.958h-2V10.5a.99.99 0 011-.979z" fill="#28292A"/></svg>