<svg width="73" height="61" fill="none" xmlns="http://www.w3.org/2000/svg"><path d="M7.824 60.965l.012-2.03-2.613-.005v-7.382h13.85v7.379l-2.502.009.005 2.03h7.671l.005-2.026-2.465-.001.007-17.073 2.456.007.008-1.943-7.688-.007-.002 1.949 2.505.002v7.635l-13.85.008v-7.644l2.6-.001.007-1.95H0l.003 1.938 2.616-.006-.03 17.073-2.59.008.005 2.023 7.819.008zM31.266 49.25v-7.316h3.794c3.017 0 4.8.842 4.8 3.302 0 2.913-2.27 4.014-3.567 4.014h-5.027zm5.157 1.78c2.788 0 4.54 1.004 4.54 3.593 0 2.784-1.665 4.322-5.848 4.322l-3.85-.008V51.03h5.157zM35.255 61c5.967 0 8.334-2.622 8.334-6.377 0-2.557-1.491-4.208-4.021-4.888 1.427-.939 2.822-2.46 2.822-4.758 0-3.075-2.238-5.017-7.2-5.017l-8.78-.037.01 1.945 2.413.001v17.07l-2.417-.006.004 2.023 8.835.044zm16.76-.037l.001-2.023-2.178-.001v-15.29h.032l7.724 17.213h2.532l7.65-17.249h.032l-.004 15.327-2.016.002-.007 2.021h7.217l.001-2.023-2.462-.006.002-17.071L73 41.86v-1.938l-6.165.03-7.939 17.89-7.885-17.92-6.358-.008.008 1.953 2.445.002.013 17.069-2.45-.006-.007 2.023 7.353.007zm20.974-29.357H.04v2.69h72.949v-2.69z" fill="#fff"/><path fill-rule="evenodd" clip-rule="evenodd" d="M17.741 4.036L2.601 14.474l.006 11.536h2.619V15.094l6.747-4.587 7.095 4.587v10.899h2.709v-10.9l19.91-12.19 3.863 2.779 2.064-1.424L41.684 0l-6.238 4.036H17.742z" fill="#fff"/><path fill-rule="evenodd" clip-rule="evenodd" d="M9.623 15.093l4.677-.003v4.652H9.632l-.009-4.65z" fill="#fff"/><path d="M51.79 15.089h-4.667v4.651h4.668v-4.65zm5.497 0h-4.668v4.651h4.668v-4.65zm-5.497 5.53h-4.667v4.653h4.668V20.62zm5.497 0h-4.668v4.653h4.668V20.62zM65.871 4.1h-2.778v7.435h2.778V4.1z" fill="#fff"/><path fill-rule="evenodd" clip-rule="evenodd" d="M67.806 15.082l2.736-.604-.006 11.516h-2.732l.002-10.912z" fill="#fff"/><path fill-rule="evenodd" clip-rule="evenodd" d="M30.815 15.093L52.009 1.084l18.534 13.4-2.728.633-15.791-11.07L35.02 15.093h-4.205z" fill="#fff"/></svg>