<svg width="58" height="49" fill="none" xmlns="http://www.w3.org/2000/svg"><g clip-path="url(#clip0)" fill="#38790A"><path d="M6.216 48.973l.01-1.613-2.076-.005V41.49h11.004v5.863l-1.988.007.004 1.613h6.095l.004-1.61h-1.96l.007-13.565 1.951.005.006-1.543-6.108-.006-.001 1.548 1.99.002v6.067l-11.004.005v-6.072l2.065-.002.006-1.548H0l.002 1.539 2.079-.005-.024 13.565L0 47.36l.004 1.607 6.212.006zm18.626-9.309v-5.812h3.014c2.397 0 3.814.669 3.814 2.623 0 2.315-1.804 3.19-2.835 3.19h-3.993zm4.097 1.415c2.215 0 3.607.797 3.607 2.855 0 2.211-1.323 3.433-4.646 3.433l-3.059-.006V41.08h4.098zM28.01 49c4.74 0 6.622-2.083 6.622-5.066 0-2.032-1.186-3.344-3.195-3.884 1.133-.746 2.241-1.955 2.241-3.78 0-2.444-1.778-3.987-5.72-3.987l-6.976-.03.009 1.546 1.917.002v13.561l-1.92-.004.002 1.607 7.02.035zm13.317-.03v-1.606l-1.73-.002V35.215h.026L45.76 48.89h2.012l6.078-13.705h.025l-.003 12.178H52.27l-.006 1.607h5.734L58 47.364l-1.956-.005.002-13.564H58v-1.541l-4.898.023-6.308 14.215-6.265-14.238-5.052-.006.007 1.551 1.943.002.01 13.561-1.947-.004-.005 1.607 5.842.006zm16.664-23.325H.032v2.137h57.96v-2.137z"/><path fill-rule="evenodd" clip-rule="evenodd" d="M14.096 3.74l-12.03 8.294.005 9.165h2.081v-8.672l5.361-3.645 5.637 3.644v8.66h2.152v-8.66L33.121 2.84l3.07 2.208 1.64-1.13L33.118.533 28.162 3.74H14.096z"/><path fill-rule="evenodd" clip-rule="evenodd" d="M7.646 12.525l3.715-.002v3.696H7.653l-.007-3.694z"/><path d="M41.149 12.523H37.44v3.695h3.709v-3.695zm4.367 0h-3.709v3.695h3.709v-3.695zm-4.367 4.393H37.44v3.697h3.709v-3.697zm4.367 0h-3.709v3.697h3.709v-3.697zm6.82-13.125H50.13v5.907h2.207V3.791z"/><path fill-rule="evenodd" clip-rule="evenodd" d="M53.873 12.517l2.174-.479-.005 9.149h-2.17l.001-8.67z"/><path fill-rule="evenodd" clip-rule="evenodd" d="M24.483 12.526l16.84-11.13 14.725 10.646-2.168.503L41.334 3.75l-13.51 8.776h-3.34z"/></g><defs><clipPath id="clip0"><path fill="#fff" transform="translate(0 .534)" d="M0 0h58v48.466H0z"/></clipPath></defs></svg>