<svg width="176" height="32" fill="none" xmlns="http://www.w3.org/2000/svg"><g clip-path="url(#clip0)"><path d="M89.523 31.954l.016-2.696-3.467-.008v-9.804h18.377v9.8l-3.319.012.005 2.696h10.179l.006-2.69-3.271-.002.01-22.675 3.259.009.01-2.58-10.201-.01-.002 2.589 3.324.002v10.142l-18.377.01V6.596l3.45-.002.01-2.589H79.143l.004 2.573 3.471-.008-.039 22.675-3.437.012.006 2.686 10.374.01zm31.104-15.56V6.678h5.034c4.002 0 6.369 1.117 6.369 4.385 0 3.87-3.012 5.33-4.734 5.33h-6.669zm6.842 2.364c3.7 0 6.024 1.333 6.024 4.773 0 3.697-2.208 5.739-7.759 5.739l-5.107-.01V18.758h6.842zM125.92 32c7.917 0 11.058-3.482 11.058-8.47 0-3.396-1.979-5.588-5.335-6.491 1.893-1.247 3.743-3.268 3.743-6.32 0-4.084-2.969-6.664-9.552-6.664l-11.649-.049.013 2.584 3.202.002v22.67l-3.207-.008.005 2.687L125.92 32zm22.237-.049l.001-2.687-2.889-.002V8.956h.042l10.249 22.86h3.359l10.15-22.909h.042l-.005 20.357-2.675.003-.009 2.684h9.575l.002-2.687-3.267-.008.003-22.673L176 6.581V4.006l-8.179.04-10.534 23.761-10.462-23.8-8.436-.01.011 2.593 3.244.002.017 22.67-3.252-.008-.008 2.687 9.756.01z" fill="#38790A"/><path d="M72.409 29.25H0v2.673h72.409V29.25z" fill="#00000D"/><path fill-rule="evenodd" clip-rule="evenodd" d="M17.57 4.01L2.541 14.38l.006 11.463h2.6V14.998l6.697-4.559 7.043 4.558v10.83h2.688v-10.83L41.338 2.885l3.836 2.761 2.049-1.414L41.336 0l-6.193 4.01H17.57z" fill="#000"/><path fill-rule="evenodd" clip-rule="evenodd" d="M9.511 14.996l4.642-.002v4.621H9.52l-.009-4.619z" fill="#000"/><path d="M51.368 14.993h-4.634v4.621h4.634v-4.621zm5.455 0H52.19v4.621h4.633v-4.621zm-5.455 5.494h-4.634v4.624h4.634v-4.624zm5.455 0H52.19v4.624h4.633v-4.624zm8.521-16.414h-2.758v7.388h2.758V4.073z" fill="#000"/><path fill-rule="evenodd" clip-rule="evenodd" d="M67.264 14.985l2.715-.6-.005 11.442h-2.712l.002-10.842z" fill="#000"/><path fill-rule="evenodd" clip-rule="evenodd" d="M30.547 14.996l21.037-13.92 18.397 13.315-2.708.629-15.673-11-16.88 10.977h-4.173z" fill="#000"/></g><defs><clipPath id="clip0"><path fill="#fff" d="M0 0h176v32H0z"/></clipPath></defs></svg>