<svg width="28" height="29" fill="none" xmlns="http://www.w3.org/2000/svg"><circle cx="13.778" cy="14.333" r="13.278" stroke="#28292A"/><path d="M15.629 18.281h-3.457V21h-1.406v-2.719H8.469v-1.195h2.297V15.89H8.469v-1.196h2.297V7.348h5.18c1.468 0 2.632.394 3.492 1.183.859.781 1.289 1.813 1.289 3.094 0 1.273-.422 2.297-1.266 3.07-.844.774-1.977 1.172-3.398 1.196h-3.891v1.195h3.457v1.195zm-3.457-3.586h3.773c1.047 0 1.871-.28 2.473-.843.602-.563.902-1.297.902-2.204 0-.914-.289-1.652-.867-2.214-.57-.57-1.363-.868-2.379-.891h-3.902v6.152z" fill="#28292A"/></svg>