<svg width="56" height="67" fill="none" xmlns="http://www.w3.org/2000/svg"><g clip-path="url(#clip0)"><path d="M47.795 8.24c-10.94-10.986-28.648-10.987-39.59 0-10.94 10.985-10.941 28.767 0 39.754l18.316 18.39a2.085 2.085 0 002.959 0l18.315-18.39c10.94-10.986 10.941-28.767 0-39.754z" fill="#38790A"/></g><g clip-path="url(#clip1)" fill="#fff"><path d="M13.848 39.983l.006-.998-1.285-.003v-3.63h6.811v3.628l-1.23.005.002.998h3.773l.002-.996h-1.212l.003-8.397 1.208.003.004-.955-3.781-.004v.959h1.231v3.756l-6.811.004v-3.76h1.278l.004-.959H10l.001.953 1.287-.003-.015 8.396-1.274.005.002.995 3.846.003zm11.529-5.762v-3.598h1.866c1.483 0 2.36.414 2.36 1.624 0 1.433-1.116 1.974-1.754 1.974h-2.472zm2.536.876c1.372 0 2.233.493 2.233 1.767 0 1.369-.819 2.125-2.876 2.125l-1.893-.004v-3.888h2.536zM27.339 40c2.934 0 4.099-1.29 4.099-3.136 0-1.258-.734-2.07-1.978-2.404.702-.462 1.387-1.21 1.387-2.34 0-1.513-1.1-2.468-3.54-2.468l-4.318-.018.005.957h1.187v8.395l-1.19-.003.003.995 4.345.022zm8.242-.018v-.995h-1.07v-7.52h.015l3.8 8.465h1.244l3.763-8.483h.015l-.002 7.538h-.991l-.003.995H45.9v-.995l-1.21-.003v-8.396h1.21v-.954l-3.031.015-3.905 8.798-3.878-8.813-3.127-.003.005.96h1.202l.006 8.395-1.205-.003-.003.995 3.616.004zm10.315-14.438H10.02v1.323h35.876v-1.323z"/><path fill-rule="evenodd" clip-rule="evenodd" d="M18.725 11.985l-7.446 5.133.003 5.674h1.288v-5.369l3.318-2.256 3.49 2.256v5.36h1.332v-5.36l9.791-5.996 1.9 1.367 1.016-.7L30.5 10l-3.068 1.985h-8.707z"/><path fill-rule="evenodd" clip-rule="evenodd" d="M14.733 17.423l2.3-.002v2.288h-2.296l-.004-2.286z"/><path d="M35.471 17.42h-2.296v2.288h2.296v-2.287zm2.703 0h-2.296v2.288h2.296v-2.287zm-2.703 2.72h-2.296v2.29h2.296v-2.29zm2.703 0h-2.296v2.29h2.296v-2.29zm4.222-8.124h-1.367v3.657h1.367v-3.657z"/><path fill-rule="evenodd" clip-rule="evenodd" d="M43.347 17.417l1.346-.297-.003 5.664h-1.344l.001-5.367z"/><path fill-rule="evenodd" clip-rule="evenodd" d="M25.346 17.445l10.424-6.89 9.115 6.59-1.342.312-7.766-5.444-8.363 5.432h-2.068z"/></g><defs><clipPath id="clip0"><path fill="#fff" d="M0 0h56v67H0z"/></clipPath><clipPath id="clip1"><path fill="#fff" transform="translate(10 10)" d="M0 0h35.902v30H0z"/></clipPath></defs></svg>