<svg width="25" height="25" fill="none" xmlns="http://www.w3.org/2000/svg"><g clip-path="url(#clip0)"><path d="M22.183 2.815A9.57 9.57 0 008.302 15.983l-.73.731a1.512 1.512 0 00-2.14 0l-4.989 4.99c-.59.59-.59 1.547 0 2.138l.713.713c.59.59 1.547.59 2.138 0l4.99-4.99c.59-.59.59-1.548 0-2.138l.73-.731A9.57 9.57 0 0022.183 2.815zM7.57 18.852l-4.99 4.99a.504.504 0 01-.712 0l-.713-.713a.504.504 0 010-.713l4.99-4.99c.2-.19.513-.19.712 0l.713.714a.504.504 0 010 .712zm13.9-3.207a8.568 8.568 0 110-12.117 8.578 8.578 0 010 12.117z" fill="#fff"/></g><defs><clipPath id="clip0"><path fill="#fff" d="M0 0h25v25H0z"/></clipPath></defs></svg>