<svg width="30" height="30" fill="none" xmlns="http://www.w3.org/2000/svg"><path d="M26.64 2.946h-2.42v-.978c0-.52-.204-1.017-.568-1.384a1.928 1.928 0 00-2.74 0 1.968 1.968 0 00-.567 1.384v.978H16.47v-.978c0-.52-.204-1.017-.568-1.384a1.928 1.928 0 00-2.74 0 1.968 1.968 0 00-.567 1.384v.978H8.719v-.978c0-.52-.204-1.017-.568-1.384a1.928 1.928 0 00-2.74 0 1.967 1.967 0 00-.567 1.384v.978H2.422a2.41 2.41 0 00-1.713.717A2.46 2.46 0 000 5.393v19.572c0 .65.255 1.271.71 1.73a2.41 2.41 0 001.712.717h13.562a.482.482 0 00.343-.143.492.492 0 00-.343-.836H2.422a1.45 1.45 0 01-1.026-.431 1.48 1.48 0 01-.427-1.037V9.797h27.125v8.318c0 .13.05.254.142.346a.482.482 0 00.826-.346V5.393a2.46 2.46 0 00-.709-1.73 2.41 2.41 0 00-1.712-.717zm-5.328-.978c0-.26.103-.509.284-.692a.964.964 0 011.37 0 .984.984 0 01.284.692v2.935a.98.98 0 01-.284.692.964.964 0 01-1.37 0 .984.984 0 01-.284-.692V1.968zm-7.75 0c0-.26.103-.509.284-.692a.964.964 0 011.37 0 .984.984 0 01.284.692v2.935a.98.98 0 01-.284.692.964.964 0 01-1.37 0 .984.984 0 01-.284-.692V1.968zm-7.75 0c0-.26.103-.509.284-.692a.964.964 0 011.37 0 .984.984 0 01.284.692v2.935a.98.98 0 01-.284.692.964.964 0 01-1.37 0 .984.984 0 01-.284-.692V1.968zm22.282 6.85H.969V5.393a1.48 1.48 0 01.427-1.037 1.45 1.45 0 011.026-.431h2.422v.978c0 .52.204 1.017.567 1.384a1.928 1.928 0 002.74 0c.364-.367.568-.864.568-1.384v-.978h3.875v.978c0 .52.204 1.017.567 1.384a1.928 1.928 0 002.74 0c.364-.367.568-.864.568-1.384v-.978h3.875v.978c0 .52.204 1.017.567 1.384a1.928 1.928 0 002.74 0c.364-.367.568-.864.568-1.384v-.978h2.422a1.45 1.45 0 011.026.431c.272.275.426.648.427 1.037v3.425z" fill="#28292A"/><path d="M13.563 13.222a.984.984 0 00-.284-.692.964.964 0 00-.685-.287h-1.938a.964.964 0 00-.685.287.984.984 0 00-.284.692v1.468c0 .26.103.508.284.692a.964.964 0 00.685.287h1.938a.964.964 0 00.685-.287.984.984 0 00.284-.692v-1.468zm-2.907 1.468v-1.468h1.938v1.468h-1.938zM7.75 13.222a.984.984 0 00-.284-.692.964.964 0 00-.685-.287H4.844a.964.964 0 00-.685.287.984.984 0 00-.284.692v1.468c0 .26.102.508.284.692a.964.964 0 00.685.287H6.78a.964.964 0 00.685-.287.984.984 0 00.284-.692v-1.468zM4.844 14.69v-1.468H6.78v1.468H4.844zm19.375.978a.964.964 0 00.685-.286.984.984 0 00.284-.692v-1.468a.984.984 0 00-.284-.692.964.964 0 00-.685-.287H22.28a.964.964 0 00-.685.287.984.984 0 00-.284.692v1.468c0 .26.103.508.284.692a.964.964 0 00.685.287h1.938zm-1.938-2.446h1.938v1.468H22.28v-1.468zm-8.718 4.404a.984.984 0 00-.284-.692.964.964 0 00-.685-.287h-1.938a.964.964 0 00-.685.287.984.984 0 00-.284.692v1.468c0 .26.103.508.284.692a.963.963 0 00.685.286h1.938a.964.964 0 00.685-.286.984.984 0 00.284-.692v-1.468zm-2.907 1.468v-1.468h1.938v1.468h-1.938zM7.75 17.626a.984.984 0 00-.284-.692.964.964 0 00-.685-.287H4.844a.964.964 0 00-.685.287.984.984 0 00-.284.692v1.468c0 .26.102.508.284.692a.964.964 0 00.685.286H6.78a.964.964 0 00.685-.286.984.984 0 00.284-.692v-1.468zm-2.906 1.468v-1.468H6.78v1.468H4.844zm7.75 1.956h-1.938a.964.964 0 00-.685.287.984.984 0 00-.284.692v1.468c0 .26.103.509.284.692a.963.963 0 00.685.287h1.938a.964.964 0 00.685-.287.984.984 0 00.284-.692V22.03a.984.984 0 00-.284-.692.964.964 0 00-.685-.286zm-1.938 2.447V22.03h1.938v1.468h-1.938zm5.813-7.829h1.937a.964.964 0 00.685-.286.984.984 0 00.284-.692v-1.468a.984.984 0 00-.284-.692.964.964 0 00-.685-.287H16.47a.964.964 0 00-.685.287.984.984 0 00-.284.692v1.468c0 .26.102.508.284.692a.964.964 0 00.685.287zm0-2.446h1.937v1.468H16.47v-1.468zm-.969 5.872c0 .26.102.508.284.692a.964.964 0 00.685.286.482.482 0 00.342-.143.492.492 0 00-.342-.835v-1.468h1.937a.482.482 0 00.343-.144.492.492 0 00-.343-.835H16.47a.964.964 0 00-.685.287.984.984 0 00-.284.692v1.468zM6.781 21.05H4.844a.964.964 0 00-.685.287.984.984 0 00-.284.692v1.468c0 .26.102.509.284.692a.964.964 0 00.685.287H6.78a.964.964 0 00.685-.287.984.984 0 00.284-.692V22.03a.984.984 0 00-.284-.692.964.964 0 00-.685-.286zm-1.937 2.447V22.03H6.78v1.468H4.844zm17.922-6.85a6.251 6.251 0 00-3.499 1.072 6.348 6.348 0 00-2.319 2.855 6.422 6.422 0 00-.358 3.675 6.381 6.381 0 001.723 3.257 6.277 6.277 0 003.224 1.741 6.237 6.237 0 003.638-.362 6.31 6.31 0 002.826-2.343 6.408 6.408 0 00-.785-8.03 6.272 6.272 0 00-4.45-1.865zm0 11.744a5.29 5.29 0 01-2.96-.907 5.371 5.371 0 01-1.963-2.416 5.433 5.433 0 01-.303-3.11 5.4 5.4 0 011.458-2.756 5.312 5.312 0 012.728-1.473 5.278 5.278 0 013.079.306 5.34 5.34 0 012.39 1.983 5.421 5.421 0 01-.664 6.794 5.307 5.307 0 01-3.765 1.579z" fill="#28292A"/><path d="M25.564 20.957l-3.767 3.806-1.712-1.73a.482.482 0 00-.821.347.492.492 0 00.136.344l2.054 2.077a.482.482 0 00.685 0l4.11-4.152a.492.492 0 00-.344-.83.482.482 0 00-.34.138z" fill="#28292A"/></svg>