<svg width="101" height="76" fill="none" xmlns="http://www.w3.org/2000/svg"><path d="M3.903 46.833V42.71a1.6 1.6 0 01.466-1.158V41.2H1.312v.352c.304.32.456.705.456 1.158v4.659a4.633 4.633 0 012.135-.535zm89.73-1.738c-.624.427-1.08 1.047-1.365 1.862-.208.606-.22 1.043-.04 1.317.146.219.337.268.57.154a.399.399 0 00.256-.362.675.675 0 00-.169-.495c-.184-.219-.203-.45-.058-.698a2.28 2.28 0 011.223-1.004c.446-.166 1.057-.248 1.834-.248.575 0 1.1.254 1.572.763.53.56.795 1.239.795 2.04v5.236h-2.445v-4.508c0-.427.142-.796.427-1.109a1.6 1.6 0 01-.427-1.118v-.704c-1.02.013-1.73.206-2.135.58v6.592c0 .447-.152.825-.456 1.138v.352l7.627.01v-.352a1.604 1.604 0 01-.456-1.148v-4.975c0-1.164-.417-2.119-1.252-2.862-.841-.753-1.924-1.128-3.25-1.128h-.078V42.7c0-.447.155-.828.466-1.148V41.2h-3.057v.356a1.6 1.6 0 01.456 1.147v2.364l-.038.028zm-4.406-2.425c.447-.636.883-1.017 1.307-1.144V41.2h-9.465v.352l.094.098c.052.042.097.09.143.144.126.12.23.24.314.361.245.362.368.786.368 1.272v.39h.314c.155-.46.324-.785.501-.984.246-.267.586-.401 1.013-.401h.456v4.506a1.628 1.628 0 01-.428 1.108c.278.313.421.682.428 1.11v4.237c0 .447-.152.828-.457 1.148v.352h3.057v-.352a1.587 1.587 0 01-.466-1.148l.01-4.229c0-.433.142-.805.427-1.118a1.57 1.57 0 01-.427-1.108l-.01-4.506h.857l-.019.095a8.518 8.518 0 00-.216 2.292c.038.766.271 1.43.702 1.998.366.49.795.822 1.287.991.609.212 1.049.225 1.317.04.21-.147.262-.34.152-.584a.426.426 0 00-.379-.248c-.171-.013-.33.049-.481.183-.21.179-.44.192-.693.049-.21-.131-.369-.405-.482-.832-.13-.479-.152-1.03-.077-1.652.087-.715.372-1.413.853-2.094z" fill="#fff"/><path d="M.335 51.293c.146.209.334.261.57.154a.434.434 0 00.255-.366.636.636 0 00-.162-.485c-.184-.228-.207-.466-.067-.708.164-.28.404-.525.72-.733l.117-.078v4.316c0 .447-.152.828-.456 1.148v.352h3.057v-.352a1.587 1.587 0 01-.466-1.148v-4.766h.078c.575 0 1.1.257 1.571.772.53.554.796 1.233.796 2.035v1.959c0 .447-.156.828-.466 1.148v.352h3.047v-.352a1.623 1.623 0 01-.447-1.148v-1.956a3.77 3.77 0 00-1.905-3.323l-.113-.068.113-.068a3.77 3.77 0 001.905-3.322V42.7c0-.447.15-.828.447-1.148V41.2H5.882v.352c.31.32.466.7.466 1.148v1.956c0 .802-.266 1.48-.796 2.034-.472.509-.996.763-1.571.763-.858 0-1.589.205-2.194.612-.647.427-1.119 1.063-1.416 1.91-.207.598-.22 1.038-.036 1.318zm62.501 3.247v.352h7.628v-.352a1.626 1.626 0 01-.457-1.147v-4.229c0-.433.143-.805.428-1.118a1.604 1.604 0 01-.428-1.118v-4.229c0-.447.152-.828.457-1.148V41.2h-7.628v.352c.304.32.456.701.456 1.148v4.229c0 .433-.142.805-.427 1.118.285.313.427.685.427 1.118v4.229c0 .447-.152.828-.456 1.148zm2.591-5.382c0-.434.143-.805.427-1.118a1.568 1.568 0 01-.427-1.115v-4.493h2.446v4.493c0 .44-.142.812-.427 1.115.284.313.427.684.427 1.118v4.502h-2.446v-4.502zm6.47 5.382v.352h7.623v-.355l-.028-.039-.078-.058-.133-.134a2.42 2.42 0 01-.31-.385c-.24-.352-.362-.776-.362-1.275v-.382h-.32c-.153.453-.321.78-.502.975-.249.28-.582.42-1.006.42h-2.293v-4.502a1.6 1.6 0 01.427-1.118 1.59 1.59 0 01-.427-1.115V42.43h1.779l-.029.095a8.004 8.004 0 00-.216 2.292c.038.766.271 1.43.702 1.998.365.49.798.822 1.297.991.602.212 1.035.225 1.307.04.217-.147.268-.34.162-.584a.426.426 0 00-.379-.248.624.624 0 00-.482.183c-.21.179-.44.192-.692.049-.217-.131-.375-.405-.485-.832-.133-.479-.155-1.03-.075-1.652.088-.721.372-1.419.854-2.093.44-.636.874-1.018 1.297-1.145V41.2h-7.63v.352c.304.32.456.701.456 1.148v4.229c0 .433-.142.805-.427 1.118.285.313.427.685.427 1.118v4.229c-.001.44-.153.822-.457 1.148zm-18.121 0v.352h3.047v-.352a1.6 1.6 0 01-.456-1.144v-4.228c0-.434.143-.805.427-1.115a1.604 1.604 0 01-.426-1.119v-4.502h2.445v4.502c0 .434-.146.806-.437 1.119.291.31.437.68.437 1.115v4.228c0 .444-.156.825-.466 1.145v.352h3.047v-.352a1.623 1.623 0 01-.447-1.148v-4.229c0-.433.14-.805.418-1.118a1.624 1.624 0 01-.418-1.118v-4.229c0-.44.15-.822.447-1.148V41.2h-7.618v.352c.304.326.456.708.456 1.148v4.229c0 .433-.142.805-.427 1.118.285.313.427.685.427 1.118v4.229c0 .447-.152.828-.456 1.148zm-21.761-7.945c.34-.58.51-1.226.51-1.94V42.7c0-.447.15-.828.447-1.148V41.2h-3.047v.352c.31.32.466.701.466 1.148v1.956c0 .802-.265 1.48-.796 2.034-.472.51-.996.763-1.572.763-.857 0-1.588.205-2.193.613-.647.427-1.12 1.063-1.417 1.91-.207.597-.22 1.037-.035 1.317.145.209.333.261.569.154a.434.434 0 00.255-.365.638.638 0 00-.162-.486c-.184-.228-.207-.466-.067-.708.165-.28.404-.525.721-.733l.116-.079v4.317c0 .447-.151.828-.455 1.148v.352h3.056v-.352a1.586 1.586 0 01-.465-1.148v-4.766h.078c.575 0 1.1.257 1.572.772.53.554.795 1.232.795 2.034v1.96c0 .447-.155.828-.465 1.147v.352h3.046v-.352a1.623 1.623 0 01-.446-1.147v-1.955a3.77 3.77 0 00-1.905-3.323l-.113-.068.113-.068a3.734 3.734 0 001.394-1.383zm6.178 5.07c1.325 0 2.41-.375 3.25-1.129.835-.743 1.252-1.699 1.252-2.862V42.7c0-.447.152-.828.456-1.148V41.2l-7.627.01v.352c.304.313.457.691.457 1.138v6.589c.404.378 1.115.57 2.134.583v-.707c0-.43.143-.805.428-1.115a1.59 1.59 0 01-.428-1.108v-4.509h2.446v5.236c0 .802-.265 1.48-.796 2.04-.472.51-.996.764-1.572.764-.776 0-1.387-.081-1.834-.248a2.28 2.28 0 01-1.222-1.004c-.146-.248-.126-.48.058-.698a.678.678 0 00.169-.496.4.4 0 00-.256-.362c-.233-.114-.424-.065-.57.154-.18.274-.168.71.04 1.317.284.815.74 1.434 1.364 1.862l.04.029v2.364a1.6 1.6 0 01-.457 1.147v.355h3.057v-.352a1.586 1.586 0 01-.466-1.147v-1.728h.077z" fill="#fff"/><path d="M27.946 46.833V42.71c0-.453.155-.838.465-1.158V41.2h-3.056v.352c.303.32.455.705.455 1.158v4.659a4.638 4.638 0 012.136-.535zm-9.953-5.282V41.2h-7.617v.352c.303.326.456.708.456 1.148v4.229c0 .433-.143.805-.428 1.118.285.313.428.685.428 1.118v4.229c0 .447-.152.828-.457 1.148v.352h3.047v-.352a1.6 1.6 0 01-.456-1.145v-4.228c0-.434.142-.805.427-1.115a1.604 1.604 0 01-.427-1.119v-4.502h2.446v4.502c0 .434-.146.806-.438 1.119.291.31.438.68.438 1.115v4.228c0 .444-.156.825-.467 1.145v.352h3.047v-.352a1.623 1.623 0 01-.446-1.148v-4.229c0-.433.139-.805.417-1.118a1.624 1.624 0 01-.417-1.118V42.7c0-.44.15-.822.447-1.148zm32.934 1.119c.44-.636.873-1.017 1.297-1.144V41.2h-7.63v.352c.304.32.456.7.456 1.148v4.228c0 .434-.143.805-.427 1.118.285.313.427.685.427 1.118v4.23c0 .446-.152.827-.456 1.147v.352h7.167v-.355l-.029-.04-.065-.049-.142-.143a3.285 3.285 0 01-.323-.385c-.24-.352-.36-.776-.36-1.275v-.382h-.322c-.152.453-.314.78-.492.975-.246.28-.582.42-1.006.42h-1.837v-3.853h.54c.504 0 .873.003 1.1.01.158.006.252.012.284.019.208.03.392.15.55.362.107.14.12.306.036.505a.674.674 0 00-.01.525c.065.16.181.25.352.277.266.03.437-.088.511-.355.088-.323-.068-.731-.472-1.22-.695-.834-1.18-1.385-1.452-1.66a3.03 3.03 0 00-.586-.494c-.126-.078-.233-.118-.313-.118h-.54v-5.225h1.779l-.03.094a8.011 8.011 0 00-.216 2.292c.039.766.272 1.431.702 1.999.366.489.799.822 1.297.99.602.213 1.035.226 1.307.04.217-.146.269-.34.162-.584a.426.426 0 00-.378-.248.623.623 0 00-.483.183c-.21.18-.44.193-.692.049-.216-.13-.376-.404-.485-.831-.132-.48-.155-1.03-.074-1.653.086-.714.371-1.412.853-2.093zm49.168 21.326c-.688-.135-.537.591-1.107.557.1-.186.353-.371.503-.575.234-.338.034-.507-.1-.744-.101.017-.419.136-.587.17-.269.067-.352.118-.336.422-.369-.422-.537.237-.637.575-.1.423-.2.913-.687.795.017-.135.017-.051.067-.135.218-.491-.587.067-.805.135-1.022.321-1.995-.186-2.716-.795.268-.067.05-.237-.1-.338-.99-.693-1.929-1.37-3.152-1.742-1.694-.524-2.817-.845-4.779-.71-3.135.22-4.51 1.353-6.405 3.348l-1.76 2.046-.184.186c-.47.558-.872.947-1.375 1.42-.872.811-2.046 1.673-3.655 1.91-1.694.237-3.17-.405-4.394-1.064-.62-.339-2.766-1.776-3.202-2.401.369.152.922.524 1.627.777 3.94 1.471 8.483.373 8.785-4.446.05-.947-.134-1.285-.368-2.012l26.155-.017v-1.336c-1.04-.05-2.146 0-3.186 0H75.381c-.537 0-1.056-.017-1.576 0-.537 0-.755-.253-1.257-.355-1.124-.203-1.124.338-1.56.355h-.42c-4.257 0-40.473.05-40.674-.017-.184-.067-.637-.71-1.878-.253-.184.067-.402.202-.536.236-.201.068-24.764.017-27.162.034v1.336h25.92c-.267.76-.451 1.319-.334 2.282.1.745.352 1.454.687 1.995 1.643 2.672 4.93 2.874 7.713 1.928.988-.338 1.793-.81 2.615-1.37.151-.1.67-.473.755-.575l.134-.118c.05-.034.067-.05.134-.05l-.252.22c-.033.067-1.274 1.267-1.459 1.453-1.441 1.353-3.504 2.824-5.6 3.28-3.756.812-6.203-2.367-7.612-3.973-.452-.524-.888-1.031-1.374-1.555-.235-.271-.436-.508-.704-.778-1.359-1.336-2.733-2.147-4.997-2.452-1.291-.17-2.7-.118-3.974.203-1.09.287-2.263.71-3.203 1.25-.167.102-1.626.948-1.592 1.185 0 .016.017.016.017.033 0 0 0 .018.017.018l.033.067s0 .016.017.016c-.402.187-.737.677-1.593.812-1.173.186-1.559-.422-1.81-.422-.269 0-.034.236-.017.354-.486.102-.57-.355-.688-.744-.184-.675-.184-.845-.637-.642.017-.439-.486-.422-.905-.575-.167.22-.37.407-.118.744.134.186.42.406.503.592-.587-.034-.453-.676-1.09-.575-.369.067-.905.44-.888.794.888-.473 1.962.271 2.615.61 3.437 1.792 4.946-1.607 7.075-2.52a7.386 7.386 0 00-.872.71c-.083.084-.117.135-.2.22-.689.609-1.443 1.843-1.795 2.722-.419 1.014-.922 3.026-.284 4.092.133.203.586.862.938.473l-.184-.203c-.067-.067-.134-.118-.201-.219-.553-.694.15-1.116.905-1.251.503-.102.922-.22 1.107-.592.251-.524-.067-.964-.218-1.336.336.101.52-.135.553-.44.033-.456-.42-1.183-.52-1.674-.1-.439-.017-.574.067-.946 0 0 .017 0 .017.016l.05.12c.201.557.436-.17.536-.39.37-.795 2.013-1.521 2.8-1.826.873-.355 1.56-.49 2.6-.473.72 0 2.162.135 2.665.44-1.14-.068-1.978-.356-3.219-.22-1.14.135-1.76.692-2.314 1.268-2.012 2.113-1.877 5.562.47 7.388 1.224.947 3.202 1.302 4.728 2.384 1.14.794 1.04 1.166 1.006 2.502.687-.338 1.66-2.215.738-2.553-.42-.135-1.006.17-1.208-.153.386-.202 1.71.135 1.694-1.148l-.201.1c-.152-.641-.553-.27-.856-.118-.419-.456-.502-.27-.955.068-.335.253-.805.388-1.29.355-.52-.035-2.164-.66-2.365-.947l.789-.136c.234-.642-.856.102-2.08-.795-.419-.303-1.19-1.014-1.274-1.757.168.135.37.49.654.49.218.017.067-.017.134-.068.05-.016-.1-.135.319.068.486.203.804.338.905.896.252-.355.335-1.488-.251-1.589l.084-.271c-.47-.389-1.46-.507-1.476-1.15.268.17.62.66 1.123.406-.033-.1-.133-.152-.167-.287-.068-.169-.034-.22-.168-.338a6.584 6.584 0 00-.553-.456l.016-.018c0 .018.017 0 .034 0l.2-.067c-.284-.288-.402-.39-.368-.98.067-1.049.737-2.047 1.609-2.52-.05.102-.084.118-.1.254.821-.035 1.056-1.082 3.856-.524l1.173.422c-.654-.085-.905-.236-1.643-.101.018.016.018.016.034.033.017.051.118.119.168.135-.453.204-.436.068-.956.423-1.073.76-1.576 2.688-.738 2.671-.033-.168-.05-.186-.033-.372.637-.337 1.442.626 1.895-.186.268-.457.486-1.454 1.19-1.285-.034.102.017.034-.1.119-.386.338-.637.608-.671 1.2.117.068.117-.017.234.05.118.086.185.187.352.203.336.051.504-.084.67-.253.135.186.119.287.421.338.553.068 1.71-.253 2.079-.034-.085.237-.504.575-.772.71-.352.17-.788.255-1.19.355l.134.203c-.654-.118-.67.22-1.258.203.134.727.671.575 1.074.795-.57.321-1.124-.507-1.56-.102-.402.39.051 1.268-.319 1.792-.368.017-.25-.338-.519-.169.067.254.352.508.62.592.352.084.738-.034 1.006-.153 1.19-.557 1.76-1.352 2.465-2.383.234-.355.503-.728.654-1.133.066-.152.084-.321.167-.44.754.305 2.079 1.995 2.817 2.605.352.27.637.54 1.006.81.704.491.939.525 1.509.88-.486 0-.654-.102-.973.186l.084.153c-.805.303-1.123 1.166-1.023 1.994.05.356.118.609.503.508-.033-.068-.033-.035-.05-.068-.05-.067-.117-.135-.084-.288.1-.405.973-.135 1.24-.236.437-.169.37-.998.856-1.1-.134.728-.503.779-.034 1.506.201-.304.067-.237.453-.44.285-.152.319-.186.47-.456.05.22.066.355.318.27.134-.05.352-.22.435-.304.202-.186.52-.524.721-.659.688-.473 2.415-1.048 3.74-1.91.637-.406 1.089-.778 1.626-1.184-1.023.981-1.911 1.843-2.7 3.06-.587.93-1.441 4.143.369 3.974 0-.304-.202-.085-.369-.338.034-.49 1.123-.592 1.375-.964.436-.659-.654-.795-.67-1.521l.05.05c.368.339.351.677 1.072.592 0-.118-.084-.372-.1-.626-.016-.27-.05-.406-.185-.557l.017-.018.067-.016h.018l.083-.051c-.218-1.217-.285-1.793.486-2.773.134-.169.42-.508.57-.626-.083.474-.184.896.42.829.016-.558.1-.964.351-1.37.201-.321.57-.778.839-.947-.067.254-.219.423-.018.677.202-.068.57-.964.772-1.217.72-.913 2.548-2.503 3.52-2.57-.234.185-.687.574-.754.963l.2.067c-.116.237-.25.407-.317.71-.118.508-.168 1.303.067 1.776.084.17.284.186.302.067.016-.1-.202-.1-.067-.388.117-.17.284-.12.503-.187a.671.671 0 00.385-.287c.084-.152.118-.287.219-.457.1-.151.167-.371.335-.388.184.405-.285.659-.285 1.167.016.016.033 0 .033.016.017.034.168 0 .202 0 .033.321.016.54.1.829.1.354.219.354.37.575 0-.762.687-.322.955-1.471 0 0 .017.016.017.033l.1.119c.319.017.788-.372 1.023-.524.201.304-.084.32.553.474.319.067.537.1.771.27 1.71 1.183 1.51 3.416 2.733 3.601.252 1.031 1.057 1.708 2.13 1.487a1.796 1.796 0 001.106-.726c.185-.288.151-.355.285-.66.05-.152.1-.119.252-.203.603-.389 1.04-2.028 1.526-2.654.57-.744.822-.896 1.677-1.1.536-.134.318-.185.47-.473.2.17.57.44.837.524.201.068.218.017.302-.118.185.304.084.406.453.76.235.237.553.22.503.677.386-.202.453-.811.486-1.386l.218.016c.034-.558-.452-.727-.268-1.217.252.067.453.76.654.98.234.22.77.17.822.44.016.22-.068.203-.135.305.085.033.1.068.235.068.452-.508.268-2.148-.15-2.605l.2-.084c-.134-.456-.47-.71-.737-.981.99.135 2.816 1.674 3.47 2.554.285.388.587 1.183.805 1.234.184-.236.05-.44-.033-.677.25.17.637.61.838.93.268.44.335.812.369 1.404.134.017.236.034.352-.051.085-.068.118-.22.168-.287.1.152.218.253.352.405 1.173 1.488.553 2.012.553 2.79 0 .287.1.067-.016.777-.018.068-.034.084-.034.136l-.084.422c.234.034.301.017.503-.034-.486 1.438.587.947 1.207 1.64l-.05.017c-.084.068-.101.034-.118.17l.303.033c-.135.288-.386.017-.353.372.486-.016.755-.202.923-.524.502-1.014.067-2.705-.386-3.585-.42-.828-1.006-1.436-1.576-2.08a7.54 7.54 0 00-.37-.388c-.233-.237-.518-.457-.737-.71.554.354.973.761 1.576 1.116.57.338 1.124.66 1.761.947.603.287 1.274.541 1.844.88.302.185 1.308 1.52 1.526.76.42.49.436.321.738.591.117.102.084.135.167.271.504-.507.067-.947-.017-1.505.52.168.403.98.905 1.116.286.067 1.074-.203 1.191.236.017.102.017.119-.033.187-.05.101-.05.016-.101.152.352.101.436-.119.486-.44.135-.896-.184-1.725-1.006-2.063-.007-.016-.01-.016-.014-.024.007-.002.018-.014.03-.043.034-.068.034 0 .05-.101-.285-.254-.537-.153-.956-.17 1.191-.608 1.812-1.082 2.767-1.944.638-.575 1.745-1.961 2.465-2.3.067.101.285.93.77 1.708.671 1.048 1.325 1.978 2.516 2.535.587.271 1.425.322 1.677-.44-.352-.117-.134.187-.537.187-.302-.456.05-1.353-.268-1.758-.385-.474-1.056.355-1.593.068.403-.254.923-.051 1.074-.795-.621-.017-.604-.304-1.258-.203l.117-.186c-.603-.339-1.492-.101-2.146-1.319.42-.388 1.61-.034 2.213-.085.352-.016.386-.084.52-.321.15.101.352.288.67.237.42-.051.219-.322.587-.187.017-.456-.134-.845-.47-1.116-.083-.067-.25-.168-.3-.27.737-.203.97.963 1.273 1.403.352.49 1.04-.017 1.576-.017.335.017.252.203.218.457.839-.068.184-1.624-.05-1.962-.687-.98-1.274-.947-1.626-1.132l.184-.22c2.482-.304 2.566.591 3.337.591l-.1-.236c1.374.845 2.028 2.688 1.273 3.128.1.05.15.05.218.1l-.502.44c-.1.085-.1.17-.168.338-.05.152-.117.187-.185.288.034.034.084.05.118.101-.05.135-.084.152-.168.237l.185.118-.47.288.084.287c-.385.084-.385.422-.47.829-.05.337-.067.896.151 1.098.134-.726 1.14-.98 1.157-.98.084.017.118.153.319.085.134-.052.385-.288.452-.39-.251.779-1.29 1.59-2.096 1.742-.268.067-1.006.034-1.157.153-.016.22.102.253.303.27l-.37.051c-.016.254.101.254.285.287l.135.068c-.654.22-1.409.71-2.247.625-.99-.101-1.325-.98-1.694-.592-.083.086-.117.103-.201.17-.117-.068-.235-.203-.436-.22-.318-.051-.318.1-.419.321l-.185-.084v.22c-.033.27-.016.034-.05.186-.1.389.219.727.537.88-.318.287-.301.152-.385.71-.067.389-.084.557.067.946.15.423.72 1.15 1.005 1.268l.034-.39c.168-.625-.52-1.132.956-2.13a12.244 12.244 0 012.397-1.2c1.811-.693 3.203-1.386 3.907-3.347.319-.93.47-2.114.252-3.145-.335-1.674-1.794-3.45-3.555-3.67-.553-.083-1.157-.05-1.71 0-.52.052-1.107.17-1.576.204.503-.287 1.777-.422 2.464-.44 1.76-.05 3.085.474 4.544 1.32.47.27.905.574 1.106 1.081.085.153.135.406.286.491.234-.051.2-.17.234-.389.536.93-.402 1.843-.402 2.603 0 .356.184.61.536.508-.134.372-.453.778-.218 1.301.37.812 1.912.457 2.196 1.2.185.509-.402.898-.57 1.117.605.474 1.258-.778 1.242-1.775 0-.914-.253-2.013-.554-2.756-.537-1.302-1.342-2.469-2.381-3.314-.151-.119-.335-.254-.452-.372 1.325.473 2.296 2.265 4.191 2.84 2.615.795 3.74-1.707 5.466-.947-.098-.35-.467-.706-.886-.79zm-64.685 4.26c.068-.118.118-.152.252-.236-.067.135.016.067-.252.237zm29.694-1.25c.268-.018.52.168.754.27.822.355 1.475.542 2.382.71-1.108.118-2.5-.474-3.136-.98zm7.913.168l-.134.085c.1-.118.117-.085.135-.085l.016-.017.017-.017.118-.102c.386-.287.637-.626.939-.912-.135.39-.822.98-1.09 1.048zm-9.891-2.062c-.302-.203-.52-.406-.822-.61-.637-.405-2.348-1.115-3.068-1.267a4.06 4.06 0 00-2.431.27c-3.52 1.607-3.068 6.612-4.46 7.068-.117-2.333-3.37-2.486-3.57 0-.639-.067-.957-1.15-1.158-1.775-.234-.744-.419-1.471-.704-2.198-.553-1.403-1.475-2.536-2.7-3.11-1.86-.846-3.101-.086-4.577.49-1.107.439-1.157.727-1.794 1.099-1.056.608-1.458-.288-2.196-.288-.017.051-.017.17-.084.237-.25-.355-.737-.068-.99-.338-.1.66.37.964.37.947 0 0 .017.016.017.033-.319.12-.62-.557-1.257-.168-.352.22-.47.642-.637 1.116.436-.34.72-.288 1.291-.119.654.203.771.152 1.442.119-.235.236-.822.507-1.207.66-.789.32-2.583.557-3.186.117-.368-.27-.453-.862-.872-.98l-.1.185c-.067-.1-.1-.168-.168-.27l-.62-.71c-.453.254-.335.812-.42 1.066-.15-.068-.05-.051-.133-.187-.285.474.168.779.335.982-.871-.153-2.498-1.032-2.783-2.165-.151-.693.118-1.52.453-1.927.402-.49 1.375-.66 1.006-1.269.788-.016 1.223-.016 1.408-.76 3.454-.034 6.924 0 10.379 0h29.86c1.258 0 .62.017 1.09.17 0 0 0-.018.017-.018.084-.186-.05-.151.57-.135.05.49 0 .727.318.947.32.203.655.153 1.057.186-.034.135-.134.17-.034.406.067.135.151.203.285.288.218.152.486.287.67.456.302.236.638 1.082.605 1.657-.067.947-1.694 1.91-2.448 2.096.066-.287.15-.659.016-.879-.1.153.034.119-.151.186-.017-.49-.083-.913-.436-1.065-.1.287-.403.44-.62.727l-.152.27c-.05-.135-.017-.118-.117-.186-.704.22-.185 1.218-2.028 1.2-1.09-.017-1.727-.168-2.566-.625.721-.102 1.509-.524 2.045-.034l-.167-.508.218.17c-.134-.373-.235-.762-.503-1.015-.504-.49-.905-.085-1.107-.034.067-.237.117-.592.117-.88-.368.152-.821.035-1.022.322l-.084-.237c-.772.084-1.225.879-2.197.287zm2.163 2.908c.016 0 .1.051.117.051.167.135.033 0 .1.152.017 0 .1.051.1.051.135.101.051.034.102.135-.135-.084-.135-.067-.202-.186-.134-.068-.167-.068-.218-.203zm.703.964c.05.067.101.152.151.22a1.478 1.478 0 01-.352-.305c-.134-.135-.268-.135-.268-.423l.47.508zm18.644 3.55c.219-.152.839-.389 1.14-.507.268-.102 1.023-.474 1.258-.423-.251.27-1.878.947-2.398.93zm3.42-9.485c-.117-.05-.184-.101-.285-.152-.167-.085-.167-.035-.218-.22.151.033.42.27.503.372zm-1.575-.609c-.335.017-.688-.033-1.057-.016-.502.016-1.441.135-1.944.22-.302.05-.587.152-.872.186l.084-.068c.754-.457 3.252-.71 3.789-.322zm-61.046-4.007H100.8c.1-.033.034 0 .083-.05v-.508h-.001c-.12-.101-1.34-.05-1.49-.05H1.877c-.453 0-1.14-.035-1.56.016a1.12 1.12 0 000 .575c.403.068 25.033.017 25.117.017zM.335 58.4l23.209-.004L.336 58.4zm47.867-23.908c.722-.068.973-.541 1.593-.643-.251.643-1.626 1.404-1.072 2.739.184.457.536.947.821 1.166.218.187.855.829 1.106.93 1.141-.896 2.818-2.282 1.56-3.855-.319-.405-.654-.777-.956-1.166l.017-.034c.201.068.537.322.772.44.218.135.52.305.82.389.656.169 1.527-.27 1.745-.643-1.86-.303-3.052-1.47-3.203-3.381.352.034.453.17.705.304.704.372 1.307.727 2.079.964 2.448.777 3.386-.558 4.761-1.876.47-.457 1.09-1.1 1.576-1.489.369-.286.67-.54 1.106-.658l.134-.034c.017-.017.017-.017.034-.017l.017-.018c-.319-.304-.872-.456-1.392-.557-1.978-.338-3.42 1.725-3.89 1.91-.033-.693.201-1.488-.905-2.215-.771-.507-1.71-.49-2.297.12-.251.253-.52.473-.637.929-.335 1.336.738 1.708 1.459 1.116.118-.085.302-.254.285-.507 0-.288-.184-.253-.251-.575.452-.474 1.223-.085 1.257.845.05 2.519-3.622 1.995-3.79-.27-.083-1.015.52-1.945 1.292-2.402 1.207-.727 3.554-1.318 5.013-1.166-.134.186-.302.287-.452.474-.118.152-.252.321-.352.557-.185.407-.201 1.116.016 1.505.52-.27 1.577-1.218 1.878-1.759.268-.473.1-.54.016-1.014.789.101 1.14.152 1.844-.186.956-.49 1.66-1.251 2.163-2.215.169-.338.604-1.082.672-1.505-.621.119-.42.238-1.375.085-2.415-.406-2.952.304-4.108.355.067-.287.436-.574.654-.98.369-.71-.302-.677-.537-.981.303-.406 1.023-.322 1.828-1.252 1.123-1.268-.067-1.335-.52-1.69.235-.339 2.247-1.167 1.694-2.03-.185-.287-.504-.32-.671-.608.587-.322 1.056-.355 1.626-1.116.436-.575.721-1.521-.37-1.606l.018-.203c.268-.203.185 0 .704-.491.804-.744 1.022-1.453.771-2.62-.285.017-1.743.727-2.062.896-.805.405-1.627.93-2.28 1.488l-.386.372c-.134.135-.25.22-.401.355-.37.321-1.36 1.606-1.66 2.096-.805 1.302-1.275 2.638-1.643 4.362-.285 1.32-.554 3.213.419 4.363.084.101.234.304.268.473-.888-.22-2.129-1.386-2.33-2.553-.252-1.335.402-2.993.922-3.923.302-.557.654-.912.889-1.555.335-.947.369-2.13-.269-2.976-1.307-1.69-3.52.17-2.699 1.285.235.305.235.085.168.61-.017.235-.05.54.167.692.05-.186.1-.828.403-1.099.47-.422.402-.287.485-1.082.303-.152.688 0 .873.187.67.693.285 1.96-.085 2.67-.452.897-.921 1.353-1.475 2.03l-.52.642c-.016 0-.016 0-.033.018-.15.354-.77.963-1.19 1.977-.537 1.302-.168 2.553.688 3.567a7.463 7.463 0 001.625 1.54c.303.219.705.405.973.625-.822.033-2.7-.609-3.403 1.521-.135.407-.202.964-.286 1.42-.234-.963.033-1.572-.838-2.332-.755-.677-1.626-.558-2.548-.642.168-.339.402-.39.72-.592 2.415-1.522 3.387-3.213 1.761-6.036-.871-1.522-2.7-3.619-2.9-5.174-.1-.812.352-1.657 1.207-1.437.083.676.067.727.47 1.082.167.152.2.237.284.456.034.085.068.186.085.288.033.135.033.253.117.355.067-.152.134-.339.118-.591-.017-.237-.068-.407.067-.592.536-.677.267-1.437-.486-1.844-.369-.202-.722-.287-1.207-.152-.722.186-1.157.761-1.325 1.556-.369 1.707.788 2.908 1.308 4.362.486 1.404.871 3.45-.269 4.548-.284.271-1.14 1.184-1.726 1.134.067-.051.234-.288.319-.39 1.022-1.166.737-2.959.47-4.345-.269-1.504-.906-3.33-1.627-4.413a15.202 15.202 0 00-2.045-2.468l-.403-.356a10.68 10.68 0 00-2.247-1.505c-.385-.185-1.743-.845-2.112-.895-.302.676-.05 1.59.285 2.08.403.625 1.258.946 1.408 1.2-.419.017-.821.084-.938.456-.1.44.134.88.318 1.116.67.862.872.727 1.66 1.15-.118.27-.486.338-.67.642-.353.626.57 1.285 1.022 1.556.302.17.637.254.755.609-1.962.017-.655 1.758.301 2.248.268.153.822.355 1.007.542-.303.304-.923.22-.654.896.15.405.503.574.603 1.03-.302.018-1.676-.388-2.615-.456-.755-.05-1.409.22-2.147.186-.285 0-.386-.084-.637-.136.067.373.503 1.168.671 1.523.268.507.586.895.922 1.25.285.288.788.728 1.24.947.772.372 1.023.237 1.861.204-.067.456-.251.506 0 .98.151.27.352.49.537.677.318.32.922.895 1.34 1.081.253-.372.202-1.081.035-1.488-.185-.44-.487-.642-.721-1.03.267-.052.704.1 1.006.152 1.04.151 2.163.186 3.118.54 2.213.846 2.783 3.399 1.19 4.397-1.089.693-2.95.575-2.883-1.218.05-.997.855-1.37 1.24-.878-.05.371-.57.54.017 1.065.235.202.822.44 1.19.168.285-.202.42-.676.319-1.166-.134-.694-.922-1.438-1.626-1.488a2.055 2.055 0 00-1.258.305c-.956.608-.973 1.132-.99 2.164-.318-.068-.402-.236-.57-.389-.804-.829-2.095-1.657-3.353-1.471-.436.068-1.123.39-1.308.626.219.119.403.1.688.27.184.102.47.305.586.423.168.17.37.355.537.49.52.407 1.794 1.911 2.599 2.453 1.543 1.03 2.968.693 4.594-.17.352-.186.972-.609 1.324-.693.118.794-.552 1.977-.921 2.35-.52.507-1.308.845-2.23 1.048.249.42 1.02.725 1.54.675zm36.033-1.759c.002.006.002.004 0 0z" fill="#fff"/><path d="M63.812 8.284c.034 1.2-.77 1.978-1.374 2.418.2.186.854.49.369 1.471-.135.27-.185.204-.1.541.217.795.368 1.624.469 2.452a20 20 0 01.067 4.125c-.034.422-.118.896-.134 1.319.352-.034.486-.186.87-.17.135.575-.887 2.283-1.323 2.825-.084.118-.201.22-.268.337l-.67 1.708c-.168.355-.755 1.42-.822 1.623.436.068.72.288 1.072.457.151-.356.437-.795.604-1.184.201-.389.369-.795.537-1.235a20.348 20.348 0 001.375-7.506c0-.559-.085-1.184-.067-1.742.134.152.234.338.351.525.118.168.252.337.386.523.251.322.553.676.838.913 2.381 2.012 4.578 2.063 7.511 3.094 3.136 1.116 4.695 2.198 5.282 5.343.151.76.386 2.485.319 3.246-.319-.153-1.023-.829-1.242-1.065-.954-1.031-1.944-2.013-3.168-2.74-.235-.134-.554-.253-.788-.405.385-.05.788.102.956-.237l-.168-.101c.922-.17 1.207-1.218 1.106-2.029-.05-.355-.15-.608-.503-.473.084.118.168.067.151.287-.067.49-.905.204-1.207.288-.503.118-.352.93-.889 1.1.051-.306.185-.475.235-.745.067-.373-.084-.524-.2-.76l-.035.05c-.268.456-.72.388-.888.828-.168-.355-.184-.422-.771.051-.252.22-.436.457-.704.66-.437.303-1.325.642-1.845.895-.62.27-1.224.61-1.777.93-.654.406-1.107.829-1.593 1.133.185-.237.504-.474.722-.693 1.273-1.302 2.514-2.79 2.548-4.785 0-.355-.084-.98-.218-1.268-.134-.253-.503-.591-.94-.49 0 .17-.033.118.118.17.134.05.184.067.234.168-.133 0-.2-.034-.301.016.017.203 0 .102.184.187-.302.54-1.76.236-1.19 1.657-.201-.05-.285-.068-.503-.034-.017.119.05.119.067.254.017.236-.051-.034 0 .22.033.118.1.608.084.693l-.017.05c-.05.153.017.39.05.542.05.253.1.44.084.71 0 .76-.419 1.318-.872 1.843-.033.034-.05.051-.084.101-.1.102-.017.034-.15.102-.068-.322-.47-.558-.487-.119-.033.794-.57 1.741-1.174 2.113.05-.22.218-.473 0-.676-.201.119-.62 1.032-.788 1.252-.301.388-.62.727-1.006 1.03-.67.525-1.643 1.472-2.515 1.523.268-.12.67-.61.771-.964l-.2-.085c.133-.135.234-.372.317-.642.118-.457 0-.39.268-.745.269-.338.672-.828.839-1.217-.755.169-3.001 2.536-3.622 3.145-.234.237-.637.508-.956.693-.435.253-.754.305-1.324.372-.168.017-.923.406-1.174.507-.419.17-.822.304-1.274.44.184.153.57.254.821.321.654.187.637.136.872.339.906-.406 1.56-.744 2.314-1.235.704-.473.453-.134 1.509-.22 1.006-.084 1.794-.524 2.682-.895 1.107-.456 1.627-1.251 2.381-1.251.587 0 .889.422 1.358.456l.134.034.016-.254c.135.018.018 0 .084.051.487.321.755.05.99.321.05-.304-.067-.626-.1-.913.385.17.67.389 1.089-.017.235-.22.402-.626.52-1.014-.101.067-.101.1-.235.152l.184-.523c-.452.523-1.442.1-2.045-.018.235-.186.838-.389 1.174-.474.721-.186 2.28-.338 2.766.287.1.136.437.88.688.745l.118-.153c.133.356.351.474.57.727.067.085.133.186.2.255.352-.305.352-.457.386-1.066.151.05.05.018.084.068.017 0 .017.016.017.016l.067.103c.101-.27.05-.576-.033-.88.922.27 2.313 1.133 2.448 2.046.083.576-.285 1.438-.57 1.691-.37.34-1.225.558-.94 1.167-.402.017-.736-.018-1.055.186-.32.22-.32.473-.336.963h-.486c0-.016-.017-.033-.017-.033l-.05-.152c-.252.084-.202.169-.42.185-.502.034-3.722 0-4.308 0H55.075c-.251 0-.368-.05-.52.085-.385.304-.837.541-1.358.524-.452 0-.653-.152-.971-.27.218.405.334.389.603 1.014 5.063.034 10.144 0 15.224 0 .486 0 2.784-.068 3.068 0 .117.034.252.22.47.288.788.27 1.358-.102 1.844-.27.252-.086 21.813-.018 25.938-.018.419 0 1.156.034 1.525-.017v-1.319l-26.172-.017c.251-.794.436-1.116.369-2.046-.302-4.785-4.896-5.934-8.802-4.413-.704.271-1.04.525-1.627.778.303-.389 1.09-.98 1.51-1.285a19.27 19.27 0 011.676-1.116c2.917-1.708 5.634-1.471 8.082.811.251.254.47.423.704.676l1.626 1.844c.99 1.133 1.895 2.283 3.17 3.128 1.223.812 2.43 1.234 4.207 1.37 1.962.135 3.136-.187 4.812-.694.688-.22 1.308-.575 1.895-.896.47-.27.822-.541 1.241-.846.15-.118.369-.22.117-.372.47-.236 1.258-1.2 2.666-.794.285.084.654.405.855.354.068-.202-.016-.202-.1-.321.939-.27.553 1.91 1.308 1.387.016.017.016.017.016.033l.034.119c.033.135.167.186.335.236.269.069.336.085.554.186.653-.777-.218-.862-.37-1.352.587.068.436.693 1.073.575.419-.085.822-.407.923-.778-1.023.372-1.811-.169-2.666-.642a3.623 3.623 0 00-2.867-.305c-1.811.575-2.566 2.18-4.209 2.875a3.77 3.77 0 00.42-.338 8.257 8.257 0 002.464-3.314c.47-1.166 1.074-3.5-.05-4.549-.185-.168-.37-.202-.604-.084.117.288.721.541.57 1.082-.1.373-.637.558-1.056.626-.52.101-.923.203-1.124.575-.268.523.034.947.201 1.353-.369-.051-.537.118-.537.49-.016.287.168.642.253.879.251.609.452 1.115.133 1.758-.016-.237 0-.389-.251-.389-.1.085-.168.305-.235.457-.1.236-.15.304-.301.456-.252.253-.504.474-.822.643-.62.337-1.275.693-1.995.947-1.576.591-3.538.473-5.08-.084.435.033 1.09.17 1.575.22 1.626.168 2.968.017 4.057-1.286.554-.642 1.023-1.25 1.274-2.35.402-1.843-.318-4.193-1.743-5.274-1.341-1.032-3.387-1.454-4.795-2.435-.335-.237-.688-.508-.906-.914-.184-.372.017-.777-.066-1.2l-.051-.406c-.201.034-1.275 1.048-1.073 2.148.084.44.033.524.369.743l-.118.102c-.252.152-.503.507-.385.811.066.152.033.152.05.389l.201-.085c.083.591.553.27.822.12.167.083.234.286.452.27.319-.034.62-.627 1.459-.694.469-.05.82.085 1.224.22l.754.287c.1.034.185.068.251.153-.234.034-.402 0-.419.27.084.05.151.068.268.085l-.151.101c-.084.086-.05.086-.033.187.218.1.822.068 1.123.119.755.134 1.878.98 2.096 1.69-.168-.084-.335-.355-.57-.339-.151 0-.084.018-.134.102-.017.017-.017.017-.017.034-.319-.203-.771-.304-1.023-.625-.134-.17-.1-.254-.184-.39-.152.355-.201.66-.118 1.1.1.558.017.558.453.862l-.084.27c.168.068.335.186.486.271l-.202.101c.068.085.101.102.185.22l-.117.17c.218.22.201.456.335.592.168.15.386.253.504.456l-.185.067c.302.271.352.373.251.93a3.506 3.506 0 01-.821 1.656c-.117.12-.537.474-.722.56l.101-.238c-.537.034-.956.49-1.526.591-.535.085-1.37.12-1.907-.015l.013-.018c.025-.042.033-.038.035-.034a.186.186 0 01-.001-.034l-.168-.118c1.928-.373 2.666-3.094 1.693-3.077.168.608-.302.456-.721.354-.47-.118-.804-.287-1.056.068-.285.406-.62 1.708-1.29 1.387.284-.338.754-.373.788-1.32h-.068c-.301-.017-.201-.202-.536-.237a.743.743 0 00-.654.255c-.134-.237-.117-.305-.47-.339-.536-.05-1.056.084-1.575.102-.37 0-.42-.05-.688-.152.117-.322.536-.744.838-.914.352-.202.855-.321 1.308-.422l-.118-.187c.654.101.688-.253 1.24-.22-.1-.523-.502-.659-1.055-.76.1-.102.251-.119.385-.085.151.017.268.085.402.135 1.359.575.722-.93 1.04-1.758.303-.035.537.422.537.118-.017-.051 0-.051-.034-.101-.284-.541-.972-.541-1.475-.338-1.375.574-2.196 1.758-2.884 2.992-.151.253-.251.541-.386.795 0-1.116-.05-2.232-.05-3.348 0-.676-.033-.93.168-1.538.067-.204.135-.424.185-.627.066-.388.066-.557-.319-.524.1-.237.168-.237.184-.608.018-.373.034-.305.185-.591-.906-.12-.872.405-1.325.659-.033-.626.788-.778.587-1.387-.083-.236-.267-.44-.352-.676-.05-.169-.05-.304.067-.406.118-.119.218-.05.37 0l-.05-.254c-.453-.236-1.476.203-1.845 1.031-.15.322-.134.474-.118.83-.1-.102-.016-.102-.167-.102-.151.372.118.693.234.963-.402-.22-.703-.675-2.028-1.301-.772-.356-1.56-.643-2.415-.93-.72-.237-1.828-.71-2.196-1.15-.335-.422-.47-1.268-.755-1.775-.117-.203-.201-.355-.536-.321.268-.829-.319-.896-.437-1.015-.05-.05 0 0-.033-.068l-.034-.1c-.788.337-.636.879-.854 1.284-.588-.44.402-1.302.636-1.674.268-.405.034-.609-.184-.879-.118-.152-.587-.609-.47-.878.118-.136.168-.068.319-.136-.301-.676-1.677.288-2.012 1.623-.151.559-.084.71-.017 1.235l-.218-.119c.05.575.553 1.2.804 1.522-.82-.473-1.727-2.063-1.995-3.077-.117-.39.067-1.336-.133-1.59l-.135.136-.017.017c.084-1.1.721-2.046 1.56-2.503.436-.22.586-.253 1.039-.085l-.05-.253c.218.067.385.186.603.287.252.101.403-.05.755.068.067-.507-.47-.677-.822-.862.017-.017-.017-.017.083-.051.571-.186 1.074.727 1.56.88.084-.068.084-.102.185-.17.285.187.385.27.872.068.284-.118.603-.321.688-.524-.772.186-1.056-.405-1.442-.66.083-.1.067-.033.117-.151-.251-.254-.352-.271-.653-.39l-.084-.05c-.017 0-.034 0-.034-.016.856-.153 1.678.135 2.28.524.453.304.721.71.973 1.183.1.17.151.355.285.406.319.017-.016-.744-.033-.914.452.17 1.508 1.252 1.744 1.59.838 1.166-.067 2.046.402 2.282.1.034.218.085.302.102-.067.406-.084.845.403.76l.083.187c.335-.135.57-.355.57-.812.018-.506-.183-.794-.301-1.2.368.051.386.61.57.88.235.372.62.372 1.006.135.452-.305.956-1.032 1.073-1.742-.938.186-1.107 1.556-4.007-.778L72.529 9.89c-.47-.439-1.056-.878-1.794-1.166-3.052-1.167-6.472.964-6.673 4.582-.118-.372-.201-.811-.319-1.217-.167-.609-.167-.676-.15-1.37.083-1.877.737-1.775.837-2.231-.15-.238-.234-.136-.453-.068.638-.913 1.812-.406 2.516-.762.285-.134.452-.405.201-.693.57-.017.922.018 1.24-.338.638-.693-.436-1.927.185-2.553.419-.406 1.073.102 1.207.051.285-.474-.737-.676-1.173-.643-1.19.085-2.784 1.454-3.42 2.25-.185.219-1.108 1.42-1.057 1.741.035.288.12.473.136.811zm9.306 20.087c.251.05.889.642 1.006 1.014l-.352-.388a.503.503 0 00-.134-.136l-.52-.49c-.117-.034-.05 0-.152-.068-.033-.033-.033-.017-.066-.051-.082-.066-.06-.043-.033-.018l-.017-.015-.05-.051c.15.05.25.084.318.203zm-7.696-.085c.788-.508 1.677-.812 2.65-.812l-.186.085a.717.717 0 01-.184.034c-1.006.22-2.348.878-2.549.896l.269-.203zm.386-1.69c.134-.152.184-.22.335-.305-.084.119-.47.609-.603.693.033-.304.1-.236.268-.388zm-.168.591a.378.378 0 01-.134.085c-.033.068.05 0-.084.119-.033.033-.067.033-.117.05.05-.101.1-.118.2-.168.035-.102.068-.102.236-.22-.05.1.017.05-.101.134zm19.617-3.956l-.537-.27s-.017 0-.033-.017c.553.034 2.045.642 2.347.913-.15.1-1.492-.491-1.777-.626zm2.548 9.35c.118-.068.168-.118.285-.17-.1.119-.352.34-.52.39.05-.17.1-.153.235-.22zm-4.343.254c.52.084 1.46.202 1.996.22.318.016.805-.052 1.073-.018-.335.068-.251.135-.956.186-.419.017-.77 0-1.174-.05-.653-.085-1.324-.237-1.826-.524.25.016.62.135.887.186zm-17.654-15.69c-.235-.12-.789-.914-1.007-1.252-.285-.44-.553-.896-.553-1.59.336 1.15 1.157 2.063 1.56 2.841zM.922 31.516c.62.118.537-.575 1.09-.558-.201.355-1.007.71-.403 1.3.134 0 .1-.033.252-.084.117-.033.218-.033.318-.067.235-.051.352-.119.352-.39.1.051.168.102.319.085.385-.49.285-1.657 1.022-1.487-.05.117 0 0-.05.084-.05.052-.117.17-.033.238.185.168 1.04-.913 2.532-.17.318.153.586.322.855.542.168.118.084.017.067.101-.017.102-.05-.1-.05.135.017.136.687.575.821.66.52.388 1.426.861 2.113 1.15.402.151.855.27 1.257.406 2.18.709 4.997.625 6.992-.255 4.31-1.91 6.254-8.656 11.486-8.233 1.744.135 3.504 1.15 4.594 1.944 1.39 1.014 1.877 1.555 3.05 2.688.152.135.27.305.403.406-1.257-.828-1.71-1.42-3.37-2.012-2.716-.982-6.253-.93-7.897 1.775a5.217 5.217 0 00-.704 1.995c-.15 1.015.034 1.47.319 2.35H.335v1.353c8.903 0 17.805.016 26.709 0 .402 0 .369-.034.67.119.353.186.788.304 1.242.287.686-.034.737-.406 1.123-.406 2.028-.034 4.09 0 6.12 0h9.187c.956 0 2.146.067 3.069-.017.234-.575.385-.66.503-.93-.603.152-1.09.456-1.995-.135-.57-.355-.151-.27-.973-.27H29.56c-.117-.085-.1-.44-.47-.627-.3-.169-.637-.101-.989-.151.302-.288-.084-.576-.285-.71-.268-.187-.503-.304-.704-.542-.352-.406-.62-1.235-.453-1.928.168-.676.654-1.081 1.09-1.386.335-.22 1.274-.744 1.727-.778-.218.135-.688.626-.352.98.017-.135 0-.1.1-.186.118.17-.067.796.453 1.083.167-.405.586-.506.755-1.014l.1.186c.403-.034.537-.71.889-.964.67-.474 2.481-.168 3.202.136.369.134.973.44 1.19.659-.62-.068-.821-.085-1.408.084-.603.186-.787.22-1.324-.084.117.473.318.912.62 1.098.654.39.838-.236 1.29-.168-.25.27-.486.337-.418.997.185-.27.72.017 1.023-.355l.05.136v.033l.033.068c.537-.051.821-.44 1.375-.49.603-.035.99.338 1.29.575.772.608 1.124.574 1.845.946.906.474 2.012.778 3.069.575.385-.085.402.035.654.203.77.54 1.492.88 2.43 1.302.084-.135-.033-.05.084-.152.185-.12.486-.153.704-.203.285-.085.655-.17.856-.338a7.832 7.832 0 01-1.258-.423c-.268-.101-.956-.474-1.157-.524-.57-.119-.822-.102-1.325-.373-.872-.506-1.541-1.251-2.246-1.96l-.872-.83c-.452-.388-.855-.93-1.509-1.065.067.203.235.406.352.592.705.997.252.304.52 1.387.067.27.152.49.319.642-.1.085-.118.05-.218.118.15.39.486.778.771.964-.889-.135-2.012-1.065-2.498-1.522l-.52-.49c-.184-.186-.319-.321-.486-.541-.185-.237-.57-1.167-.788-1.251-.185.236-.084.456.017.675-.252-.134-.637-.608-.838-.912a2.55 2.55 0 01-.252-.61c-.067-.219-.067-.608-.134-.794-.553-.152-.453.49-.386.845-.368-.354-.787-.828-1.04-1.386-.351-.777-.15-1.285-.016-2.08l-.234.017c.318-.304.167-.744.352-1.234-.805-.135-.788.405-1.157.659.016-.728 1.107-.879.688-1.521-.151-.237-.503-.322-.755-.44-.234-.1-.637-.253-.637-.558.168-.152.352-.083.386-.287-.084-.051-.185-.051-.286-.017a.893.893 0 00-.637.456c-.184.321-.2.812-.167 1.252.184 1.91 1.358 3.33 2.649 4.582l.738.71c-1.124-.846-1.93-1.438-3.286-2.08-.604-.288-1.208-.542-1.812-.863-.503-.253-1.123-1.15-1.609-1.099a.517.517 0 00-.118.254c-.166-.27-.133-.254-.435-.422-.234-.135-.386-.152-.436-.44l-.134.118c-.016.035-.067.136-.084.187-.151.405.151.777.202 1.183-.52-.168-.403-.946-.872-1.099-.268-.084-.655.034-.956-.017-.352-.067-.318-.338-.134-.54 0-.018.017-.018.017-.035-.688-.202-.57 1.116-.436 1.472.151.49.52.946 1.04 1.048l-.185.084c.219.355.57.22.956.254-.201.152-1.006.44-2.146 1.387-.419.354-.838.743-1.224 1.15-.403.44-1.358 1.487-1.878 1.707.05-2.08.302-4.498 1.358-5.867 2.23-2.892 8.199-2.773 11.183-5.022.738-.557 1.225-1.116 1.76-1.86.252-.355.453-.727.688-1.098.017.507-.067 1.184-.067 1.74-.017.592 0 1.184.05 1.776a20.218 20.218 0 001.326 5.918c.218.54.888 2.08 1.19 2.418.15-.085.285-.203.47-.305.133-.085.385-.152.519-.254-.05-.169-.285-.54-.402-.743-.42-.812-.704-1.674-1.056-2.537-.05-.152-.135-.22-.218-.32a4.762 4.762 0 01-.721-1.1c-1.241-2.383-.42-1.64.218-1.589-.201-2.046-.336-3.381-.068-5.478.101-.828.252-1.69.47-2.45.118-.457-.184-.525-.218-1.066-.034-.49.185-.66.553-.896-.133-.153-.368-.27-.502-.406-.085-.067-.151-.135-.235-.22-.134-.101-.117-.101-.218-.27a2.657 2.657 0 01-.453-1.37c-.017-.524-.285-.896-.553-1.319-.72-1.183-1.526-2.012-2.783-2.755-.37-.22-.822-.457-1.342-.491-.519-.05-1.29.084-1.173.66.318-.051.804-.44 1.207-.085.285.253.202.862.084 1.268-.336 1.251.084 1.623 1.341 1.64-.217.237-.084.508.151.66.62.388 1.895-.102 2.516.727.022.023.03.017.049.04-.018-.023-.027-.017-.05-.04l-.033.017c-.218-.034-.486 0-.302.236.47.592.637.693.738 1.573.05.44.05.997.05 1.454 0 .608-.084.828-.184 1.352-.218 1.1-.151 1.336-.721 2.35-.201.355-.37.643-.587.964-.15.22-.536.727-.72.829.184-.39.485-.744.703-1.116.838-1.319 1.341-2.57.771-4.176-.637-1.725-1.91-3.044-3.956-3.365-2.784-.423-4.108 1.302-5.516 2.587-.504.44-.973.81-1.593 1.166-1.56.88-1.727.153-2.666-.169.033.288.251.761.385.998.302.541 1.19 1.352 1.677.642.201-.27.185-.845.57-.896-.1.39-.302.677-.302 1.15 0 .524.218.66.553.862.067-.067.017-.1.067-.202.504.152.486-.355.437-.744l.436-.17c.1-.523-.436-1.504.402-2.4.318-.321 1.157-1.234 1.626-1.403-.067.32-.352.81-.033.913.2-.102.453-1.066 1.29-1.607.42-.27 1.644-.794 2.264-.473-.503.135-.47.118-.788.406.05.152-.017.016.1.152-.352.322-.704.829-1.441.66.1.203.419.423.67.524.503.22.637.135.889-.068l.184.186c.353-.152.52-.355.772-.575.15-.135.587-.473.888-.27-.318.22-.888.321-.838.862.134 0 .134-.067.335-.05.604.068.47-.085 1.023-.305l-.033.254c.436-.135.62-.135 1.023.101.855.491 1.508 1.438 1.575 2.52-.1-.084-.067-.118-.2-.169-.219 1.065.3 1.133-.538 2.739-.268.507-.989 1.64-1.475 1.86.051-.119.118-.186.218-.322.235-.338.47-.676.52-1.132l-.218.118c.234-1.218-.218-2.181-1.123-2.84-.269-.186-.721-.44-.905-.034.15.085.167.017.318.169.05.304-.335.676-.47.845-.586.727-.284.727.386 1.657.235.322.37.626.067.913-.1-.152-.117-.54-.268-.778a1.433 1.433 0 00-.587-.507c-.05.068-.017.152-.083.203-.436.101-.554.456-.436.98-.487-.05-.62.474-.772.897-.134.338-.318.947-.502 1.183-.856 1.032-4.058 1.454-6.171 3.027-.134.1-.352.304-.47.372.1-.254.352-.558.268-.863-.05-.202-.1-.1-.218-.016.118-1.032-.52-1.556-1.307-1.843-.302-.101-.671-.203-.688.236.168-.05.252-.1.385.034.253.305-.217.812-.301 1.082-.201.61.754.897.57 1.353-.437-.254-.453-.777-1.308-.642.05.186.167.117.184.54.017.406.034.356.168.66l-.285.017c-.134.406.084.913.218 1.285.15.474.118.913.118 1.454-.018 1.015-.018 2.063-.067 3.077-.017-.034-.017-.034-.051-.085l-.352-.658c-.436-.677-.922-1.454-1.492-1.928-.403-.339-.805-.694-1.392-.93-.637-.236-1.341-.118-1.51.507.32.12.169-.185.52-.185.185.185.168.574.168.878-.017.372-.1.61.134.862.436.508 1.174-.439 1.56-.033-.436.203-.94.102-1.057.778.57-.018.587.303 1.241.202l-.1.203c.385.085.855.186 1.19.356.285.134.67.49.788.726-.369.119-.972 0-1.375-.033-.301-.035-.855-.119-1.056.186l-.117.135c-.269-.39-.839-.305-1.057 0l-.168-.068c0 .98.554 1.048.789 1.37-.688.22-.922-.744-1.207-1.251-.437-.812-1.19.084-1.878-.17-.05-.151-.017-.236.016-.406-1.04.068-.084 2.808 1.677 3.078l-.184.152c.368.287 1.257-.034 1.676-.068-.738.508-3.035.812-3.974.373-.251-.135-.788-.491-1.107-.457l.1.22c-.485-.204-1.022-.862-1.29-1.387-.303-.591-.537-1.572.05-2.08l-.235-.067c.051-.067 0-.017.051-.067l.217-.186c.218-.17.336-.254.437-.541.067-.238.084-.17.2-.304-.469-.288-.921.22-1.14.405 0-.558.62-.693 1.023-.88.168-.083.268-.167.436-.235l-.067-.288c.236-.203.352-.135.42-.642a1.64 1.64 0 00-.152-.964c-.167.288-.033.372-.436.643-.234.152-.537.22-.737.355-.168-.068 0 .017-.134-.136-.185.034-.302.085-.403.187l-.268.27-.017.016c-.017 0-.017.017-.034.017.101-.946 1.291-1.943 2.13-2.147.285-.067 1.106-.067 1.258-.169.017-.355-.453-.254-.722-.321l-.026-.01c.034.01.065.017-.023-.024l-.05-.017c.335-.304 1.525-.744 2.062-.879 1.274-.304 1.911.744 2.213.66.134-.085.218-.186.335-.27.151.05.269.202.453.219.268.034.352-.084.385-.338l.201.085c.017-.491-.15-.745-.485-.896-.42-.203-.956-.152-1.174-.254.05-.187.268-.153.503-.135.654.067 1.173-.034 1.04-.93-.067-.49-.67-1.454-1.09-1.64-.084 1.098.386 1.521-.99 2.502-2.262 1.606-5.096 1.438-6.27 4.447-.704 1.792-.319 4.023 1.056 5.326.134.135.285.304.436.44.185.135.319.237.52.372.386.237.822.389 1.358.456 1.29.152 2.096-.153 3.27-.22-1.425.592-3.572.608-5.046.085-.89-.34-2.683-1.099-3.12-2.012-.067-.152-.133-.39-.234-.508h-.17c-.1.119-.084.152-.1.372-.587-.76.402-1.893.385-2.604 0-.371-.184-.574-.537-.506.152-.373.453-.795.219-1.302-.353-.795-1.912-.456-2.18-1.2-.151-.407.133-.66.352-.897.1-.102.167-.135.218-.203-.738-.541-1.978 1.27-.688 4.548.604 1.556 1.794 2.909 2.867 3.67-1.425-.508-2.347-2.283-4.208-2.858-1.056-.304-2.012-.135-2.867.338-.603.353-1.811 1.08-2.632.606.067.372.503.71.922.795zm34.497-4.242c-.002 0 0 0 0 0s-.002 0 0 0zm.025.032l.268.186-.268-.186zm1.475-18.487zm.038-.03zm2.276-.927l1.023.507c.134-.152.285-.456.401-.659 2.247-3.399 5.6-5.986 9.944-5.986 2.632 0 4.744.964 6.387 2.131.435.321.771.642 1.157.946a8 8 0 01.52.542c.67.693.838.879 1.459 1.741.2.27.704.997.838 1.319l1.04-.525c-.805-1.674-2.868-3.94-4.36-4.988-4.779-3.314-10.16-3.094-14.688.49-.503.407-1.374 1.218-1.777 1.708-.385.49-.637.744-1.022 1.319-.218.288-.805 1.117-.922 1.455zM100.9 37.08c-.319-.069-24.58-.019-24.597-.019h-23.07c-.201 0-.587-.067-.704.085l-.319.49h48.689v-.557h.001zM.335 37.636h48.74c-.067-.1-.134-.186-.201-.287-.084-.118-.134-.237-.252-.288H.335v.575z" fill="#fff"/><path d="M52.88 9.84c.05.135.018.085.085.186.838-.947-.604-1.843-1.324-1.048-.252.27-.236.422-.37.794l-.285.017c.017-.32.168-.693.302-.947.202-.371.47-.473.587-.642-.1-.474-.838-1.488-1.14-1.59-.236.321-.94.947-1.057 1.59.101.135.185.135.336.305.285.304.553.828.553 1.284h-.285c-.151-.608-.436-1.183-1.174-1.098-.72.067-1.005.811-.535 1.318.033-.033 0 .051.05-.067.066-.153.1-.457.351-.524.302-.085.554.186.604.371-.235 0-.385-.033-.486.153-.134.473.252.406.62.406-.033.321-.184.372-.485.372.066.304.87.997 1.072-.355h.303c-.017.507-.185.964-.486 1.15.067.338.419.693.637.811.234-.05.636-.49.67-.795-.2-.22-.436-.49-.436-.913l-.017-.254.285.017c.118.287.067.524.285.694.453.337.637-.204.722-.288-.235-.016-.386-.203-.42-.423.402-.034.704.05.62-.44-.133-.152-.234-.135-.486-.135.084-.287.67-.71.905.05z" fill="#fff"/><path d="M56.82 6.678c.638.541 2.13 2.182 2.365 2.858l.386-.254c-.118-.287-.52-.828-.722-1.099-.419-.575-1.19-1.437-1.744-1.876-1.777-1.489-3.739-2.554-6.455-2.554-3.119-.017-5.516 1.42-7.41 3.415-.32.321-1.409 1.624-1.576 2.097l.351.254.705-1.015c3.185-4.26 8.55-5.765 13.128-2.604.386.271.637.491.973.778zm-4.945 10.264c-.234-.203-.185-.947-.05-1.252.268-.085.351-.085.503-.253.117.118.134.253.385.236.403-.034.771-.794.185-1.065.05-.101.452-.474-.05-.845-.553-.406-1.61.17-1.475.829.067.32.402.422.738.202.1-.068-.018 0 .083-.068.017.39.068.49-.15.745-.134-.034-.068 0-.118-.068-.05-.05-.067-.05-.118-.017-.05.034-.017.05-.184.034.067-.12.1-.068.1-.085-.05-.406-.436-.068-.402.118-.218.034-.135-.101-.302-.118-.134 0-.117.101-.285.118-.134-.253-.117-.186.017-.44-.118.051-.118.102-.202.221-.252-.152-.285-.119-.604-.101-.05-.356-.117-1.404.32-1.353.066.169-.051.101.083.254l.185-.102c.016-.456-.42-.389-.604-.169-.151.186-.269.49-.285.777l-.234-.033c-.252-.474.117-.626.1-.88-.201-.017-.168.034-.336.034-.084 0-.804-.22-.855.304-.034.236.151.406.403.355.251-.05.368-.389-.034-.405-.033.101.05.033-.033.185-.285 0-.185-.236-.034-.287.151-.034.37.068.587.05-.218.61-.134.457-.067 1.083.066.456-.285.676-.503.49-.051-.034-.067-.05-.034-.101.134-.203.1-.288-.184-.203-.135.05-.101.236-.051.339.184.27.805.27.989-.237.033-.101.051-.135.051-.236 0-.018.016-.136.016-.136.034-.135-.034-.085.084-.101.118 0 .084.068.118.304.017.17.067.22.017.372-.1.237-.252.405-.067.727.252.423 1.073-.017.688-.54l.184-.051c.285.947-.167 1.64-.604 1.37.067-.22.152-.085.185-.305-.302-.118-.436.017-.402.355.42.338.821.102 1.022-.202.386-.575.085-.998.219-1.218.2.085.134.372.117.728 0 .303-.033.59-.05.861l.335-.016.05-1.522.319.034c-.118.473-.419 1.065 0 1.47.368.068.402-.118.57-.219l.134-.355c-.303.067-.185.269-.47.388zm.587-1.658c.083-.186.083-.321.067-.54.553.084.452 1.149-.068.54zm.201-1.352a.36.36 0 01-.134.642c-.017-.304-.034-.456.134-.642zm-.587.71a.42.42 0 01-.32.034c-.317-.524.286-1.015.739-.846v.017l-.016.05c-.017.051 0 0-.035.051-.334.525-.116.541-.368.694zm-2.264 1.403c-.117-.135-.084-.371-.033-.54.1.067.1.067.234.118-.05.067-.084.101-.084.253.135-.034.118-.05.218 0 .051.338-.234.27-.335.169zm.219-.693c.151-.068.218-.017.285.085-.152.067-.219.034-.285-.085zM60.14 2.57c.152.203.252.287.52.135-.067.524.268.422.855.321.403-.067.939-.186.939.339-.134-.05-.453-.068-.269.168.051.068 1.745.795 1.057 3.23l-.01.006-.04-.006c-.084-.017-.017-.034-.151 0-.067.186-.118.49-.151.727a5.11 5.11 0 00.267-.084c.252-.102.202-.135.353-.761.302-1.218.302-2.486-.403-3.518-.855-1.25-2.716-1.74-2.65-3.127-.3.169-.435.811-.3 1.217.184.558.72.203.955.71-.386-.05-1.19-.592-1.342.22.202.153.22.22.37.423zM37.658 7.304l.285.017c-.034-.169-.067-.202-.185-.186l-.05.017h-.017c-.335-1.015-.151-2.249.637-2.943.084-.084.269-.151.386-.253.251-.203.033-.288-.235-.203.034-.507.503-.422.905-.354.62.118.956.219.906-.288.369.169.419-.034.67-.389.118-.135.1-.085.218-.186-.25-.812-.737-.304-1.34-.22.217-.507.77-.169.939-.693.167-.457-.017-1.049-.285-1.234-.018.828-.604 1.285-1.008 1.64-.519.423-.921.558-1.458 1.218-.905 1.116-.988 2.688-.452 4.26l.084-.203zm1.961 7.575c-.353 1.065-.235 4.295.016 5.529l.453-.018c-.185-1.673-.335-2.688-.15-4.412.083-.88.1-.39-.32-1.099zm21.527 5.529l.453.016c.151-1.048.235-1.809.235-2.908 0-.49-.05-2.266-.235-2.586-.15.304-.251.287-.335.44-.067.152.017.473.034.659.05.49.067.997.067 1.487l-.05 1.556c-.035.338-.186 1.065-.169 1.336zm-18.56 6.695c.335.119.553.321.822.44l-.956-1.235a3.6 3.6 0 01-.47-.625c-.452-.846-.066-.744-.888-.778.268.541.587 1.099.905 1.555.269.39.302.524.587.643zm16.011.017c.336-.152.336-.237.605-.625.184-.271.855-1.303.922-1.59l-.52.017c-.05.136-.134.22-.185.355-.201.542-.1.474-.603 1.031-.201.238-.872 1.1-1.006 1.2l.017.068c.251-.135.47-.304.77-.456zm-9.053 3.77c-.201-.034-.503.17-.687.288l-.067.067.653.101c.034-.168.117-.303.101-.456zm2.28.44l.67-.101c-.184-.102-.519-.373-.754-.355-.016.168.051.32.084.456zM39.87 13.56l-.084.355.336-.253-.252-.102zm21.544.304c-.017-.135-.017-.186-.083-.288l-.185.068c.067.102.134.136.268.22z" fill="#fff"/><path d="M57.659 27.695c.117-.051.1-.018.168-.12l-.017-.067c-.1.051-.084.017-.151.187z" fill="#fff"/></svg>