<svg width="27" height="37" fill="none" xmlns="http://www.w3.org/2000/svg"><path d="M8.17 21.246h10.66c.392 0 .71-.321.71-.717v-6.745l.959.83c.3.259.747.221 1.002-.078a.723.723 0 00-.077-1.012l-7.46-6.46a.705.705 0 00-.926 0l-7.46 6.46a.723.723 0 00-.077 1.012.706.706 0 001.002.078l.958-.83v6.745c0 .396.318.717.71.717zm.711-8.693L13.5 8.554l4.618 3.999v7.258H14.21V16.94a.714.714 0 00-.71-.718.714.714 0 00-.71.718v2.87H8.88v-7.257z" fill="#fff"/><path d="M12.99 36.532a.707.707 0 001.02 0C18.546 31.803 27 21.165 27 14.069a14.3 14.3 0 00-1.95-7.181.707.707 0 00-.972-.256.722.722 0 00-.253.983 12.859 12.859 0 011.754 6.454c0 7.261-9.72 18.334-12.079 20.914C11.14 32.403 1.421 21.33 1.421 14.07c0-6.85 5.532-12.634 12.079-12.634 2.158 0 4.287.627 6.155 1.814.332.211.77.11.98-.225a.722.722 0 00-.224-.99A12.879 12.879 0 0013.5 0C5.93 0 0 6.658 0 14.069c0 7.089 8.44 17.72 12.99 22.463z" fill="#fff"/><path d="M22.71 5.436a.715.715 0 00.711-.718.714.714 0 00-.71-.718.714.714 0 00-.711.718c0 .396.318.718.71.718z" fill="#fff"/></svg>