<svg width="44" height="42" fill="none" xmlns="http://www.w3.org/2000/svg"><g clip-path="url(#clip0)" fill="#fff"><path d="M20.066 12.75c-1.642 0-2.973 1.344-2.973 3 0 1.657 1.331 3 2.973 3s2.973-1.343 2.973-3c0-1.656-1.331-3-2.973-3zm0 4.5a1.493 1.493 0 01-1.486-1.5c0-.828.665-1.5 1.486-1.5s1.486.672 1.486 1.5c0 .829-.665 1.5-1.486 1.5zm8.919 4.5c-1.642 0-2.973 1.343-2.973 3 0 1.656 1.33 3 2.973 3 1.641 0 2.972-1.344 2.972-3 0-1.657-1.33-3-2.973-3zm0 4.5a1.494 1.494 0 01-1.487-1.5c0-.829.666-1.5 1.486-1.5.821 0 1.487.671 1.487 1.5 0 .828-.666 1.5-1.486 1.5zm-9.88.53l11.891-12-1.05-1.06-11.892 11.998 1.051 1.06z"/><path d="M42.086 11.663L37.01 8.251h.149v-5.25a.747.747 0 00-.744-.75H32.7a.747.747 0 00-.744.75v1.85L24.937.125a.737.737 0 00-.824 0L6.965 11.663a2.323 2.323 0 00-.635 3.203 2.277 2.277 0 003.175.641l2.386-1.605V28.5h-1.486a.746.746 0 00-.743-.75H3.716a.747.747 0 00-.743.75H0V30h2.973v7.499H0v1.5h2.973c0 .414.333.75.743.75H9.66c.41 0 .744-.336.744-.75v-.286l5.548 2.324a12.75 12.75 0 009.458.106l11.481-4.418a2.716 2.716 0 001.518-1.46c.3-.682.316-1.458.043-2.152a2.713 2.713 0 00-1.294-1.43v-17.78l2.387 1.605a2.277 2.277 0 003.174-.64 2.323 2.323 0 00-.634-3.204zM8.918 38.248H4.46v-9h4.46v9zM33.444 3.752h2.23v3.6l-2.23-1.5v-2.1zm3.603 30.908c-.13.306-.379.546-.688.665l-11.48 4.417a11.276 11.276 0 01-8.363-.09l-6.111-2.565V30h1.884c2.464.003 4.894.581 7.1 1.69a5.22 5.22 0 002.344.56h5.765a1.12 1.12 0 011.108 1.131c-.004.52-.36.97-.863 1.089-.097.009-.192.029-.29.029H18.58v1.5h8.918c.015 0 .029-.005.045-.005a4.546 4.546 0 001.715-.366l6.214-2.662a1.17 1.17 0 01.927 0c.307.131.549.383.669.698a1.3 1.3 0 01-.02.997zm-9.549-3.912h-5.765a3.752 3.752 0 01-1.68-.4 17.325 17.325 0 00-6.676-1.812V12.901l11.148-7.5 11.148 7.5v18.492a2.642 2.642 0 00-.782.19l-4.82 2.065c.015-.091.024-.183.028-.275 0-1.45-1.164-2.625-2.6-2.625zm13.317-16.351a.798.798 0 01-.445-.136L24.938 3.878a.737.737 0 00-.825 0L8.68 14.259a.799.799 0 01-1.114-.225.817.817 0 01.222-1.124L24.525 1.652 41.261 12.91a.812.812 0 01-.445 1.485z"/><path d="M7.432 35.248H5.946v1.5h1.486v-1.5z"/></g><defs><clipPath id="clip0"><path fill="#fff" d="M0 0h43.105v42H0z"/></clipPath></defs></svg>