<svg width="43" height="37" fill="none" xmlns="http://www.w3.org/2000/svg"><path d="M40.397 4.972h-1.89V1.921A1.928 1.928 0 0036.575 0H35.22a1.928 1.928 0 00-1.932 1.921v3.051h-4.38V1.921A1.928 1.928 0 0026.977 0h-1.355a1.929 1.929 0 00-1.932 1.921v3.051h-4.38V1.921A1.929 1.929 0 0017.378 0h-1.354a1.929 1.929 0 00-1.931 1.921v3.051H9.712V1.921A1.929 1.929 0 007.78 0H6.425a1.929 1.929 0 00-1.932 1.921v3.051h-1.89A2.6 2.6 0 000 7.562v27.183A2.264 2.264 0 002.268 37h38.464A2.264 2.264 0 0043 34.745V7.561a2.6 2.6 0 00-2.603-2.589zm-5.933-3.051c0-.415.339-.751.756-.752h1.355c.417 0 .755.337.756.752v3.051h-2.867V1.921zm-9.598 0c0-.415.338-.751.756-.752h1.354c.417 0 .755.337.756.752v3.051h-2.866V1.921zm-9.599 0c0-.415.339-.751.756-.752h1.355c.418 0 .756.337.756.752v3.051h-2.867V1.921zm-9.598 0c0-.415.339-.751.756-.752H7.78c.417 0 .755.337.756.752v3.051H5.669V1.921zm-4.493 5.64c0-.784.64-1.419 1.428-1.42h37.792a1.425 1.425 0 011.428 1.42v3.801H1.176v-3.8zm40.648 27.184c0 .6-.489 1.085-1.092 1.086H2.268a1.09 1.09 0 01-1.092-1.086V12.532h40.648v22.213z" fill="#fff"/><path d="M8.924 14.209a.59.59 0 00-.824.11l-2.452 3.188-1.378-1.73a.59.59 0 00-.825-.095.582.582 0 00-.096.821l1.848 2.319c.111.14.281.221.46.221h.006a.59.59 0 00.461-.23l2.91-3.785a.582.582 0 00-.11-.819zm10.052 0a.59.59 0 00-.824.11l-2.45 3.188-1.378-1.73a.59.59 0 00-.825-.095.582.582 0 00-.096.821l1.848 2.319a.59.59 0 00.46.221h.006a.59.59 0 00.461-.23l2.91-3.785a.582.582 0 00-.112-.82zm10.189 0a.59.59 0 00-.824.11l-2.453 3.188-1.377-1.73a.59.59 0 00-.825-.095.582.582 0 00-.096.821l1.848 2.319c.111.14.28.221.46.221h.005a.59.59 0 00.462-.23l2.91-3.785a.582.582 0 00-.11-.819zm10.051 0a.59.59 0 00-.824.11l-2.45 3.188-1.378-1.73a.59.59 0 00-.825-.095.582.582 0 00-.096.821l1.848 2.319a.59.59 0 00.46.221h.006a.59.59 0 00.462-.23l2.909-3.785a.582.582 0 00-.112-.82zM8.924 21.475a.59.59 0 00-.824.11l-2.452 3.188-1.378-1.73a.59.59 0 00-.825-.095.582.582 0 00-.096.821l1.848 2.319c.111.14.281.221.46.221h.006a.59.59 0 00.461-.23l2.91-3.785a.582.582 0 00-.11-.819zm10.052 0a.59.59 0 00-.824.11l-2.45 3.188-1.378-1.73a.59.59 0 00-.825-.095.582.582 0 00-.096.821l1.848 2.319a.59.59 0 00.46.221h.006a.59.59 0 00.461-.23l2.91-3.785a.583.583 0 00-.112-.819zm10.189 0a.59.59 0 00-.824.11l-2.453 3.188-1.377-1.73a.59.59 0 00-.825-.095.582.582 0 00-.096.821l1.848 2.319c.111.14.28.221.46.221h.005a.59.59 0 00.462-.23l2.91-3.785a.582.582 0 00-.11-.819zm10.051 0a.59.59 0 00-.824.11l-2.45 3.188-1.378-1.73a.59.59 0 00-.825-.095.582.582 0 00-.096.821l1.848 2.319a.59.59 0 00.46.221h.006a.59.59 0 00.462-.23l2.909-3.785a.583.583 0 00-.112-.819z" fill="#fff"/></svg>