<svg width="38" height="38" fill="none" xmlns="http://www.w3.org/2000/svg"><g clip-path="url(#clip0)" fill="#fff"><path d="M19.001 15.2a8.233 8.233 0 00-8.232 8.233 8.233 8.233 0 1016.465 0 8.243 8.243 0 00-8.233-8.233zm0 15.2a6.966 6.966 0 116.966-6.967 6.975 6.975 0 01-6.966 6.967z"/><path d="M37.368 13.934c.35 0 .633-.284.633-.634v-2.533c0-.008-.005-.015-.005-.023a.622.622 0 00-.04-.202c0-.008 0-.016-.006-.024a.633.633 0 00-.127-.186.715.715 0 00-.059-.047.64.64 0 00-.092-.072L19.307.08a.63.63 0 00-.612 0L.33 10.213a.636.636 0 00-.092.072.728.728 0 00-.06.047.633.633 0 00-.126.186c0 .008 0 .017-.005.024a.625.625 0 00-.042.202c0 .008-.004.015-.004.023V13.3c0 .35.284.634.633.634h1.903v19h-1.9a.633.633 0 00-.634.633v3.8c0 .35.284.633.634.633h36.73c.35 0 .634-.283.634-.633v-3.8a.633.633 0 00-.633-.633h-1.9v-19h1.9zM19.002 1.357l15.907 8.777H3.096l15.906-8.777zM36.734 34.2v2.534H1.27V34.2h35.464zm-32.93-1.266v-19h2.532v19H3.803zm3.799 0v-19H30.4v19H7.603zm24.065 0v-19h2.533v19h-2.533zM1.27 12.667V11.4h35.464v1.267H1.27z"/><path d="M16.82 19.475c.529-.09 1.272-.158 2.32-.158 1.058 0 1.813.203 2.32.608.484.383.81 1.014.81 1.757 0 .744-.247 1.374-.698 1.802-.585.552-1.453.8-2.466.8-.226 0-.428-.011-.586-.034v2.715h-1.7v-7.49zm1.7 3.446c.146.034.327.045.575.045.912 0 1.475-.461 1.475-1.239 0-.698-.484-1.115-1.34-1.115-.35 0-.586.034-.71.068v2.241z"/><path d="M17.867 22.91h-1.564v1.229h1.564V22.91zm1.213 1.756h-2.777v1.229h2.777v-1.23z"/></g><defs><clipPath id="clip0"><path fill="#fff" d="M0 0h38v38H0z"/></clipPath></defs></svg>