<svg width="42" height="42" fill="none" xmlns="http://www.w3.org/2000/svg"><path d="M41.322 20.323h-5.816l6.295-6.296a.677.677 0 000-.957L28.931.199a.677.677 0 00-.958 0L7.849 20.323H.677A.677.677 0 000 21v17.613c0 .374.303.677.677.677h9.881l2.511 2.511a.676.676 0 00.958 0l2.512-2.51h24.783a.677.677 0 00.678-.678V21a.677.677 0 00-.678-.677zM28.452 1.635L40.364 13.55l-6.774 6.774h-5.172a7.393 7.393 0 00-2.15-4.592c-2.904-2.905-7.632-2.905-10.538 0a7.4 7.4 0 00-2.15 4.592H9.765L28.452 1.635zm-13.51 18.689a6.052 6.052 0 011.745-3.634 6.105 6.105 0 018.623 0 6.048 6.048 0 011.745 3.634H14.943zm-1.394 20.04l-1.074-1.074h2.149l-1.075 1.075zm27.097-2.428H1.355v-16.26h39.29v16.258z" fill="#fff"/><path d="M21 37.258c4.108 0 7.451-3.343 7.451-7.452 0-4.108-3.343-7.451-7.451-7.451-4.109 0-7.452 3.343-7.452 7.451 0 4.109 3.343 7.452 7.452 7.452zm0-13.548a6.104 6.104 0 016.097 6.096A6.104 6.104 0 0121 35.904a6.104 6.104 0 01-6.097-6.096A6.104 6.104 0 0121 23.71zm18.29 12.193V23.71a.677.677 0 00-.677-.678h-8.13v1.355h7.452v10.839h-7.451v1.355h8.129a.677.677 0 00.677-.678zm-35.903.677h8.129v-1.354H4.064V24.387h7.452v-1.355h-8.13a.677.677 0 00-.677.678v12.193c0 .374.303.678.678.678zM28.636 5.7l7.663 7.664-5.269 5.27.958.957 5.748-5.748a.677.677 0 000-.958l-8.622-8.622a.697.697 0 00-.957 0l-5.748 5.748.958.958L28.635 5.7z" fill="#fff"/><path d="M18.575 26.367h3.22c1.985 0 2.978.739 2.978 2.216 0 .434-.087.81-.26 1.125a1.78 1.78 0 01-.705.723c-.298.165-.61.285-.938.358a4.85 4.85 0 01-1.064.11h-1.522v.497h1.268v1.224h-1.268v.915h-1.71v-.915h-.771v-1.224h.772v-.497h-.772v-1.334h.772v-3.198zm1.71 3.198h1.477c.199 0 .36-.01.485-.028.125-.018.25-.058.375-.121a.578.578 0 00.276-.292c.059-.133.088-.305.088-.518 0-.53-.419-.795-1.257-.795h-1.445v1.754zm-3.872-8.535c.331.053.663.103.995.15.602-.014 1.202-.06 1.802-.114l-.753-.505.805-1.2c.467-.696.92-.897 1.36-.602.177.119.304.24.381.362a.579.579 0 01.09.392 1.237 1.237 0 01-.109.379 3.448 3.448 0 01-.247.418l-.435.65c.565-.057 1.13-.11 1.696-.145a4.66 4.66 0 00.373-.744 3.48 3.48 0 00.224-.978c.029-.34-.04-.669-.206-.988-.167-.32-.43-.6-.79-.842-1.228-.823-2.394-.41-3.5 1.238l-1.695 2.527.009.001z" fill="#fff"/></svg>