<svg width="12" height="8" fill="none" xmlns="http://www.w3.org/2000/svg"><mask id="path-1-inside-1" fill="#fff"><path d="M5.997 6.118L11.212.903a.462.462 0 01.653.653L6.324 7.097a.462.462 0 01-.653 0L.13 1.557A.462.462 0 01.783.902l5.214 5.215z"/></mask><path d="M5.997 6.118L11.212.903a.462.462 0 01.653.653L6.324 7.097a.462.462 0 01-.653 0L.13 1.557A.462.462 0 01.783.902l5.214 5.215z" fill="#28292A"/><path d="M5.997 6.118l.707.707-.707.707-.707-.707.707-.707zM11.212.903l-.707-.707.707.707zm.653 0l.707-.707-.707.707zm0 .653l.707.707-.707-.707zM6.324 7.097l.707.707-.707-.707zm-.653 0l-.707.707.707-.707zM.13 1.557l-.707.706-.007-.006-.006-.006.72-.695zM.14.902l-.695-.72.695.72zm.642 0l.694-.72.007.007.006.006-.707.707zM5.29 5.411L10.505.196l1.414 1.414-5.215 5.215L5.29 5.411zM10.505.196c.57-.57 1.496-.57 2.067 0L11.158 1.61c.21.21.55.21.76 0L10.506.196zm2.067 0c.57.571.57 1.496 0 2.067L11.158.85a.538.538 0 000 .761L12.572.196zm0 2.067L7.03 7.804 5.617 6.39l5.54-5.54 1.415 1.414zM7.03 7.804a1.461 1.461 0 01-2.067 0L6.378 6.39a.538.538 0 00-.761 0L7.03 7.804zm-2.067 0l-5.541-5.54L.837.848l5.54 5.541-1.413 1.414zM-.59 2.251A1.462 1.462 0 01-.554.184l1.39 1.438a.538.538 0 00.013-.76L-.59 2.25zM-.554.184a1.462 1.462 0 012.031 0L.087 1.622c.21.202.54.202.749 0L-.554.185zM1.49.196l5.214 5.215L5.29 6.825.075 1.61 1.49.196z" fill="#000" mask="url(#path-1-inside-1)"/></svg>