<svg display="none" xmlns="http://www.w3.org/2000/svg">
  <symbol id="logo_header" viewBox="0 0 176 32">
    <g>
      <path
        d="M89.5235 31.954L89.5391 29.2581L86.0724 29.2502V19.4463H104.449V29.2463L101.13 29.2581L101.135 31.954H111.314L111.32 29.264L108.049 29.262L108.059 6.58699L111.318 6.59595L111.328 4.01578L101.127 4.00604L101.125 6.59478L104.449 6.59673V16.7386L86.0724 16.7483V6.59673L89.5215 6.59478L89.5313 4.00604H79.1445L79.1484 6.579L82.6193 6.57121L82.58 29.2463L79.1426 29.2579L79.1486 31.9443L89.5235 31.954Z" />
      <path
        d="M120.627 16.3939V6.67776H125.661C129.663 6.67776 132.03 7.79543 132.03 11.0629C132.03 14.9322 129.018 16.3939 127.296 16.3939H120.627ZM127.469 18.7584C131.169 18.7584 133.493 20.0912 133.493 23.5305C133.493 27.2277 131.285 29.27 125.734 29.27L120.627 29.2603V18.7584H127.469ZM125.92 32C133.837 32 136.978 28.5176 136.978 23.5307C136.978 20.1342 134.999 17.9417 131.643 17.0388C133.536 15.7921 135.386 13.7715 135.386 10.7189C135.386 6.63471 132.417 4.05513 125.834 4.05513L114.185 4.00623L114.198 6.58951L117.4 6.59165V29.262L114.193 29.2544L114.198 31.9414L125.92 32Z" />
      <path
        d="M148.157 31.9511L148.158 29.2644L145.269 29.2624V8.95615H145.311L155.56 31.8169H158.919L169.069 8.90725H169.111L169.106 29.2644L166.431 29.2665L166.422 31.9513H175.997L175.999 29.2644L172.732 29.2564L172.735 6.58308L176 6.58113V4.00641L167.821 4.04538L157.287 27.8071L146.825 4.00641L138.389 3.99667L138.4 6.5897L141.644 6.59165L141.661 29.2622L138.409 29.2544L138.401 31.9413L148.157 31.9511Z" />
      <path d="M72.409 29.2505H0V31.9227H72.409V29.2505Z" fill="#00000D" />
      <path fill-rule="evenodd" clip-rule="evenodd"
        d="M17.5701 4.00974L2.54102 14.3813L2.54727 25.8436H5.14723V14.9979L11.8444 10.4393L18.8867 14.9971L18.8863 25.8268L21.5753 25.8266L21.5759 14.9975L41.3375 2.88369L45.1732 5.64524L47.2218 4.23066L41.3355 0L35.1434 4.00974H17.5701Z"
        fill="black" />
      <path fill-rule="evenodd" clip-rule="evenodd"
        d="M9.51123 14.9961L14.1533 14.9938V19.6154H9.52002L9.51123 14.9961Z" fill="black" />
      <path d="M51.3677 14.9926H46.7344V19.6143H51.3677V14.9926Z" fill="black" />
      <path d="M56.8233 14.9926H52.1899V19.6143H56.8233V14.9926Z" fill="black" />
      <path d="M51.3677 20.4872H46.7344V25.1112H51.3677V20.4872Z" fill="black" />
      <path d="M56.8233 20.4872H52.1899V25.1112H56.8233V20.4872Z" fill="black" />
      <path d="M65.3437 4.07346H62.5859V11.4611H65.3437V4.07346Z" fill="black" />
      <path fill-rule="evenodd" clip-rule="evenodd"
        d="M67.2637 14.9852L69.9792 14.3857L69.9738 25.8272H67.2617L67.2637 14.9852Z" fill="black" />
      <path fill-rule="evenodd" clip-rule="evenodd"
        d="M30.5469 14.9965L51.5844 1.07675L69.9814 14.3912L67.2733 15.0197L51.5991 4.02103L34.7204 14.9965H30.5469Z"
        fill="black" />
    </g>
  </symbol>
  <symbol id="logo_header-mb" viewBox="0 0 58 49">
    <g>
      <path
        d="M6.21615 48.9728L6.22552 47.3599L4.14972 47.3551V41.4904H15.1541V47.3528L13.1661 47.3599L13.1696 48.9728H19.265L19.2686 47.3634L17.3099 47.3623L17.3158 33.7977L19.267 33.8032L19.2733 32.2597L13.1649 32.2539L13.1636 33.8024L15.1541 33.8038V39.8706L4.14972 39.8763V33.8036L6.21505 33.8024L6.22083 32.2539H0.00109434L0.00343934 33.793L2.0819 33.7884L2.05845 47.3528L0 47.3598L0.00359568 48.9668L6.21615 48.9728Z"
         />
      <path
        d="M24.8416 39.6643V33.8519H27.8563C30.2526 33.8519 31.6698 34.5205 31.6698 36.4751C31.6698 38.7898 29.8661 39.6642 28.8354 39.6642H24.8416V39.6643ZM28.9385 41.0788C31.1543 41.0788 32.5457 41.8761 32.5457 43.9335C32.5457 46.1453 31.2234 47.367 27.8995 47.367L24.8414 47.3611V41.0787H28.9385V41.0788ZM28.0108 49.0001C32.7518 49.0001 34.6328 46.9169 34.6328 43.9335C34.6328 41.9017 33.4474 40.5901 31.4376 40.05C32.5713 39.3042 33.6793 38.0954 33.6793 36.2695C33.6793 33.8262 31.9015 32.2832 27.959 32.2832L20.9834 32.2539L20.9917 33.7993L22.9088 33.8005V47.3623L20.9881 47.3578L20.9915 48.9652L28.0108 49.0001Z"
         />
      <path
        d="M41.3268 48.9708L41.3277 47.3636L39.5976 47.3624V35.2149H39.6227L45.7599 48.8906H47.7715L53.8496 35.1858H53.8746L53.8718 47.3636L52.2695 47.3648L52.2645 48.971H57.9982L57.9992 47.3636L56.0433 47.3589L56.0445 33.7953L58 33.7942V32.254L53.102 32.2772L46.7941 46.4918L40.5293 32.254L35.4775 32.248L35.4841 33.7993L37.427 33.8006L37.437 47.3624L35.4899 47.3577L35.485 48.965L41.3268 48.9708Z"
         />
      <path d="M57.9912 25.6455H0.0319824V27.7822H57.9912V25.6455Z"  />
      <path fill-rule="evenodd" clip-rule="evenodd"
        d="M14.0959 3.74049L2.06616 12.0339L2.07101 21.1995H4.15212V12.5269L9.51297 8.88193L15.1497 12.5263L15.1496 21.1861L17.302 21.1859L17.3023 12.5266L33.1205 2.84007L36.1907 5.04828L37.8303 3.91715L33.1189 0.53418L28.1623 3.74049H14.0959Z"
         />
      <path fill-rule="evenodd" clip-rule="evenodd"
        d="M7.64575 12.5253L11.3615 12.5234V16.2191H7.65263L7.64575 12.5253Z"  />
      <path d="M41.1489 12.5225H37.4402V16.2181H41.1489V12.5225Z"  />
      <path d="M45.5158 12.5225H41.8071V16.2181H45.5158V12.5225Z"  />
      <path d="M41.1489 16.916H37.4402V20.6135H41.1489V16.916Z"  />
      <path d="M45.5158 16.916H41.8071V20.6135H45.5158V16.916Z"  />
      <path d="M52.3361 3.79102H50.1287V9.69844H52.3361V3.79102Z"  />
      <path fill-rule="evenodd" clip-rule="evenodd"
        d="M53.8731 12.5174L56.0468 12.0381L56.0424 21.187H53.8716L53.8731 12.5174Z"  />
      <path fill-rule="evenodd" clip-rule="evenodd"
        d="M24.4832 12.5262L41.3223 1.39551L56.048 12.0421L53.8803 12.5447L41.3341 3.74985L27.8239 12.5262H24.4832Z"
         />

    </g>
  </symbol>
  <symbol id="call" viewBox="0 0 28 28">
    <g>
      <path
        d="M27.115 23.3485L26.3297 19.0949C26.2992 18.9293 26.1708 18.799 26.0056 18.766L19.8301 17.5309C19.695 17.5038 19.5556 17.5461 19.4582 17.6434L16.7256 20.376C12.1035 18.3675 9.62809 15.8896 7.43085 11.0733L10.1595 8.34465C10.2568 8.24736 10.2991 8.1078 10.2721 7.97283L9.03713 1.7974C9.0041 1.63224 8.87378 1.50389 8.70819 1.47326L4.45458 0.688004C4.39596 0.677176 4.334 0.679692 4.2763 0.694403C3.24304 0.931638 2.30028 1.45347 1.54925 2.20449C0.245498 3.50835 -0.249479 5.43166 0.117912 7.7666C0.459819 9.94005 1.14516 12.3094 2.04773 14.4383C2.13643 14.6476 2.37799 14.7453 2.58744 14.6566C2.79673 14.5678 2.89446 14.3262 2.80575 14.1169C1.92873 12.0483 1.26302 9.74761 0.931226 7.63864C0.601897 5.54492 1.00566 3.9125 2.13151 2.7867C2.68085 2.2373 3.35039 1.83158 4.08561 1.59905L6.54021 11.0866C6.54042 11.0874 6.54075 11.0881 6.54097 11.0888C6.54655 11.11 6.55371 11.1309 6.56279 11.1513C6.56296 11.1517 6.56312 11.152 6.56328 11.1524C6.5635 11.1529 6.56372 11.1534 6.56389 11.1538C7.76384 13.8404 9.04435 15.8133 10.5935 17.3625C12.1451 18.9142 14.0724 20.1473 16.6589 21.2434C16.6607 21.2442 16.6627 21.2446 16.6646 21.2453C16.6813 21.2521 16.6984 21.2583 16.7164 21.2629L16.7175 21.2632C16.7176 21.2632 16.7178 21.2633 16.718 21.2633L26.2039 23.7174C25.9714 24.4527 25.5656 25.1222 25.0162 25.6717C23.8903 26.7975 22.2579 27.2013 20.1642 26.8719C16.1875 26.2463 10.6665 24.3111 7.09785 20.7566L7.0471 20.7056C5.76123 19.4147 4.60738 17.7827 3.61759 15.8548C3.51368 15.6526 3.26562 15.5727 3.06339 15.6766C2.86115 15.7805 2.78131 16.0286 2.88516 16.2308C3.91372 18.2343 5.11773 19.9354 6.46419 21.2873L6.48956 21.3133C6.49607 21.3199 6.50274 21.3263 6.50936 21.3327L6.5162 21.3393C10.2249 25.0333 15.9319 27.0395 20.0362 27.6851C20.537 27.7639 21.0186 27.8031 21.4795 27.8031C23.1674 27.8031 24.5742 27.2779 25.5983 26.2537C26.3494 25.5027 26.8712 24.5599 27.1084 23.5265C27.1139 23.5051 27.1176 23.4829 27.1196 23.4609C27.1231 23.4236 27.1219 23.3854 27.115 23.3485ZM4.9401 1.6149L8.28447 2.23233L9.42169 7.91831L7.15686 10.1831L4.9401 1.6149ZM17.6199 20.6462L19.8847 18.3814L25.5707 19.5186L26.1881 22.863L17.6199 20.6462Z" />
    </g>
  </symbol>
   <symbol id="insta" viewBox="0 0 16 16">
    <g>
<path d="M8 1.44148C10.1361 1.44148 10.3891 1.44959 11.2327 1.48808C12.0126 1.52374 12.4362 1.65396 12.7182 1.76351C13.0916 1.90861 13.358 2.08198 13.638 2.36197C13.918 2.64195 14.0914 2.90841 14.2365 3.28184C14.346 3.56379 14.4764 3.9874 14.5119 4.76734C14.5504 5.61098 14.5585 5.86391 14.5585 8C14.5585 10.1361 14.5504 10.3891 14.5119 11.2327C14.4764 12.0126 14.346 12.4362 14.2365 12.7182C14.0914 13.0916 13.918 13.358 13.638 13.638C13.358 13.918 13.0916 14.0914 12.7182 14.2365C12.4362 14.346 12.0126 14.4764 11.2327 14.5119C10.3891 14.5504 10.1362 14.5585 8 14.5585C5.86379 14.5585 5.61073 14.5504 4.76734 14.5119C3.9874 14.4764 3.56379 14.346 3.28184 14.2365C2.90841 14.0914 2.64195 13.918 2.36197 13.638C2.08198 13.358 1.90861 13.0916 1.76351 12.7182C1.65396 12.4362 1.52362 12.0126 1.48808 11.2327C1.44959 10.389 1.44148 10.1361 1.44148 8C1.44148 5.86391 1.44959 5.61086 1.48808 4.76734C1.52362 3.9874 1.65396 3.56379 1.76351 3.28184C1.90861 2.90841 2.08198 2.64195 2.36197 2.36197C2.64195 2.08198 2.90841 1.90861 3.28184 1.76351C3.56379 1.65396 3.9874 1.52362 4.76734 1.48808C5.61086 1.44959 5.86391 1.44148 8 1.44148ZM8 0C5.82727 0 5.55491 0.00922211 4.70156 0.048078C3.85005 0.0869338 3.26844 0.222191 2.75963 0.419914C2.2336 0.624399 1.78737 0.897865 1.34262 1.34262C0.897865 1.78737 0.624276 2.23347 0.419914 2.75963C0.222191 3.26856 0.0869338 3.85005 0.048078 4.70156C0.00922211 5.55491 0 5.82727 0 8C0 10.1727 0.00922211 10.4451 0.048078 11.2984C0.0869338 12.15 0.222191 12.7316 0.419914 13.2404C0.624399 13.7664 0.897865 14.2126 1.34262 14.6574C1.78737 15.1021 2.23347 15.3757 2.75963 15.5801C3.26856 15.7778 3.85005 15.9131 4.70156 15.9519C5.55479 15.9909 5.82727 16 7.99988 16C10.1725 16 10.445 15.9908 11.2983 15.9519C12.1498 15.9131 12.7313 15.7778 13.2403 15.5801C13.7663 15.3756 14.2125 15.1021 14.6573 14.6574C15.102 14.2126 15.3756 13.7665 15.58 13.2404C15.7777 12.7316 15.9129 12.15 15.9518 11.2984C15.9908 10.4452 15.9999 10.1727 15.9999 8C15.9999 5.82727 15.9907 5.55491 15.9518 4.70168C15.9129 3.85017 15.7777 3.26869 15.58 2.75975C15.3755 2.23372 15.102 1.78749 14.6573 1.34274C14.2125 0.897988 13.7664 0.624399 13.2403 0.420037C12.7313 0.222314 12.1498 0.0870568 11.2983 0.0482009C10.4451 0.00922211 10.1726 0 8 0Z" fill="white"/>
<path d="M8.10814 4C5.83926 4 4 5.83926 4 8.10814C4 10.377 5.83926 12.2163 8.10814 12.2163C10.377 12.2163 12.2163 10.377 12.2163 8.10814C12.2163 5.83926 10.377 4 8.10814 4ZM8.10814 10.7748C6.63543 10.7748 5.44148 9.58085 5.44148 8.10814C5.44148 6.63543 6.63543 5.44148 8.10814 5.44148C9.58085 5.44148 10.7748 6.63543 10.7748 8.10814C10.7748 9.58085 9.58085 10.7748 8.10814 10.7748Z" fill="white"/>
<path d="M12.2705 4.68945C12.8007 4.68945 13.2305 4.25966 13.2305 3.72949C13.2305 3.19932 12.8007 2.76953 12.2705 2.76953C11.7403 2.76953 11.3105 3.19932 11.3105 3.72949C11.3105 4.25966 11.7403 4.68945 12.2705 4.68945Z" fill="white"/>
    </g>
  </symbol>
   <symbol id="youtube" viewBox="0 0 21 15">
    <g>
    <path d="M20.6363 12.5874C20.3791 13.7318 19.4657 14.576 18.3663 14.7019C15.7624 14.9998 13.127 15.0012 10.5031 14.9998C7.87874 15.0012 5.24298 14.9998 2.63906 14.7018C1.53959 14.576 0.626467 13.7318 0.369693 12.5874C0.00405431 10.9573 0 9.17837 0 7.49995C0 5.82168 0 4.04277 0.365339 2.41235C0.622112 1.26806 1.53538 0.423851 2.635 0.297974C5.23863 0.000205994 7.87453 -0.00148678 10.4986 0.000205994C13.1226 -0.00148678 15.7582 0.000205994 18.3621 0.298281C19.4616 0.424006 20.3752 1.26807 20.6321 2.41266C20.9977 4.04292 21 5.82183 21 7.5001C21 9.17837 21.0018 10.9573 20.6363 12.5874ZM8.29738 4.56628V10.5335L13.8492 7.55012L8.29738 4.56628Z" fill="white"/>
    </g>
  </symbol>
  <symbol id="logo_footer" viewBox="0 0 73 61">
    <g>
    <path d="M7.82377 60.9655L7.83557 58.9356L5.22293 58.9296V51.5481H19.0732V58.9266L16.5712 58.9356L16.5755 60.9655H24.2473L24.2519 58.9399L21.7866 58.9386L21.7941 41.8659L24.2499 41.8728L24.2578 39.9301L16.5696 39.9229L16.568 41.8718L19.0732 41.8736V49.5093L5.22293 49.5166V41.8734L7.82239 41.8718L7.82967 39.9229H0.00137735L0.00432883 41.86L2.62032 41.8541L2.5908 58.9266L0 58.9354L0.00452559 60.9581L7.82377 60.9655Z" fill="white"/>
    <path d="M31.2661 49.2498V41.9341H35.0605C38.0766 41.9341 39.8602 42.7757 39.8602 45.2358C39.8602 48.149 37.5902 49.2496 36.2929 49.2496H31.2661V49.2498ZM36.4225 51.0301C39.2115 51.0301 40.9627 52.0336 40.9627 54.6231C40.9627 57.4069 39.2985 58.9445 35.1148 58.9445L31.2659 58.937V51.0299H36.4225V51.0301ZM35.2549 60.9999C41.222 60.9999 43.5895 58.378 43.5895 54.6231C43.5895 52.0657 42.0977 50.415 39.568 49.7352C40.995 48.7964 42.3895 47.2751 42.3895 44.977C42.3895 41.9018 40.1518 39.9597 35.1898 39.9597L26.4102 39.9229L26.4206 41.8679L28.8335 41.8694V58.9386L26.4161 58.9329L26.4204 60.956L35.2549 60.9999Z" fill="white"/>
    <path d="M52.0148 60.9632L52.016 58.9403L49.8384 58.9387V43.6497H49.8701L57.5945 60.8622H60.1263L67.7763 43.613H67.8078L67.8042 58.9403L65.7876 58.9419L65.7813 60.9633H72.9978L72.999 58.9403L70.5373 58.9344L70.5389 41.8629L73 41.8615V39.923L66.8354 39.9522L58.8961 57.8431L51.0111 39.923L44.6528 39.9155L44.6611 41.868L47.1065 41.8696L47.1191 58.9387L44.6684 58.9328L44.6623 60.9559L52.0148 60.9632Z" fill="white"/>
    <path d="M72.9887 31.606H0.0400391V34.2953H72.9887V31.606Z" fill="white"/>
    <path fill-rule="evenodd" clip-rule="evenodd" d="M17.7415 4.03553L2.60059 14.4738L2.60669 26.0098H5.22602V15.0943L11.9733 10.5067L19.0678 15.0935L19.0676 25.9929L21.7767 25.9927L21.7771 15.0939L41.6862 2.90224L45.5504 5.68155L47.6141 4.25787L41.6842 0L35.4458 4.03553H17.7415Z" fill="white"/>
    <path fill-rule="evenodd" clip-rule="evenodd" d="M9.62305 15.0927L14.2998 15.0903V19.7417H9.63171L9.62305 15.0927Z" fill="white"/>
    <path d="M51.7909 15.0889H47.123V19.7403H51.7909V15.0889Z" fill="white"/>
    <path d="M57.287 15.0889H52.6191V19.7403H57.287V15.0889Z" fill="white"/>
    <path d="M51.7909 20.6187H47.123V25.2724H51.7909V20.6187Z" fill="white"/>
    <path d="M57.287 20.6187H52.6191V25.2724H57.287V20.6187Z" fill="white"/>
    <path d="M65.8711 4.09961H63.0928V11.5348H65.8711V4.09961Z" fill="white"/>
    <path fill-rule="evenodd" clip-rule="evenodd" d="M67.8057 15.0818L70.5415 14.4785L70.536 25.9936H67.8037L67.8057 15.0818Z" fill="white"/>
    <path fill-rule="evenodd" clip-rule="evenodd" d="M30.8149 15.0932L52.0091 1.08398L70.5432 14.4841L67.8148 15.1166L52.0238 4.0472L35.0196 15.0932H30.8149Z" fill="white"/>
    </g>
  </symbol>
  <symbol id="adverbs" viewBox="0 0 116 38">
    <g>
    <path d="M33.1012 8.7536C32.7454 8.5235 32.2072 8.28297 31.4859 8.03143C30.764 7.78046 29.9332 7.65527 28.9928 7.65527C27.8213 7.65527 26.7814 7.8645 25.8723 8.28297C24.9621 8.70144 24.1945 9.28682 23.567 10.0397C22.9395 10.7926 22.4639 11.6921 22.1394 12.7377C21.8155 13.7839 21.6533 14.9344 21.6533 16.1892C21.6533 17.5066 21.8474 18.6942 22.2344 19.7502C22.6209 20.8068 23.1695 21.7006 23.8804 22.4326C24.5913 23.1652 25.4488 23.7297 26.4523 24.1267C27.4563 24.5238 28.585 24.7226 29.8399 24.7226C31.1985 24.7226 32.4007 24.6287 33.4459 24.4403C34.4911 24.2525 35.348 24.0641 36.0183 23.8758V0L33.1012 0.501928V8.7536ZM33.1012 21.8055C32.8086 21.8895 32.3955 21.9677 31.8625 22.0408C31.3289 22.115 30.6649 22.1509 29.8706 22.1509C28.3016 22.1509 27.0479 21.6327 26.1064 20.5976C25.1661 19.5624 24.6956 18.0932 24.6956 16.1892C24.6956 15.3528 24.779 14.5687 24.9459 13.8361C25.1139 13.104 25.3857 12.4711 25.7622 11.9379C26.1377 11.4041 26.6244 10.9862 27.2199 10.6825C27.8155 10.3799 28.5317 10.2275 29.3688 10.2275C30.1638 10.2275 30.8949 10.3637 31.5641 10.635C32.2333 10.9074 32.7454 11.1896 33.1012 11.4823V21.8055Z" fill="#818181"/>
<path d="M50.3521 11.3111C50.0068 12.472 49.6407 13.6225 49.2548 14.762C48.8666 15.902 48.4761 17.005 48.0781 18.072C47.6807 19.1385 47.3046 20.0908 46.9489 20.9271C46.5926 20.0908 46.2166 19.1391 45.8203 18.072C45.4228 17.0056 45.0312 15.902 44.6436 14.762C44.256 13.6225 43.8915 12.4714 43.5462 11.3111C43.2009 10.1502 42.9031 9.05704 42.6523 8.03174H39.5161C40.3313 11.0862 41.2878 14.0143 42.3858 16.8166C43.4825 19.6195 44.5445 22.1298 45.5688 24.3467H48.2038C49.2276 22.1298 50.289 19.6201 51.3863 16.8166C52.4848 14.0143 53.4408 11.0862 54.2571 8.03174H51.2461C50.9953 9.05704 50.6969 10.1496 50.3521 11.3111Z" fill="#818181"/>
<path d="M63.3522 7.62402C62.4102 7.62402 61.4913 7.80196 60.5921 8.15783C59.6929 8.5137 58.8986 9.04692 58.2085 9.75751C57.5185 10.4692 56.9635 11.363 56.5457 12.4399C56.1274 13.5179 55.9194 14.7774 55.9194 16.2206C55.9194 17.4551 56.0805 18.5893 56.405 19.6245C56.7288 20.6602 57.2259 21.5545 57.8951 22.3074C58.5643 23.0603 59.416 23.6515 60.4513 24.0798C61.4866 24.5082 62.7138 24.7226 64.135 24.7226C65.2647 24.7226 66.2734 24.6183 67.1628 24.409C68.0515 24.1998 68.6726 24.001 69.0284 23.8132L68.6205 21.3662C68.2647 21.5337 67.7369 21.7064 67.0371 21.8838C66.3354 22.0623 65.4733 22.1509 64.4496 22.1509C62.6303 22.1509 61.2931 21.7116 60.4357 20.833C59.5764 19.9543 59.0869 18.6682 58.9606 16.974H70.1257C70.1466 16.8065 70.157 16.6239 70.157 16.4251C70.157 16.2263 70.157 16.0641 70.157 15.9389C70.157 13.1365 69.5718 11.05 68.4009 9.67984C67.2311 8.3091 65.5481 7.62402 63.3522 7.62402ZM59.0243 14.6209C59.0875 14.0558 59.2178 13.5023 59.416 12.958C59.6153 12.4144 59.891 11.9333 60.2462 11.5143C60.6025 11.0958 61.0353 10.7567 61.5486 10.4947C62.0608 10.2334 62.6518 10.1029 63.3209 10.1029C64.5127 10.1029 65.4472 10.5266 66.1274 11.3734C66.8065 12.2208 67.1361 13.3029 67.1153 14.6209H59.0243Z" fill="#818181"/>
<path d="M82.2005 7.85924C81.8877 7.80708 81.5684 7.76477 81.244 7.73347C80.919 7.70217 80.6328 7.68652 80.3819 7.68652C79.1061 7.68652 77.9555 7.79607 76.9305 8.01631C75.9068 8.2354 75.0493 8.47129 74.3599 8.72226V24.3469H77.2764V10.6355C77.4433 10.5938 77.7944 10.5155 78.3268 10.4002C78.8599 10.2854 79.3987 10.2275 79.9421 10.2275C80.7782 10.2275 81.4636 10.2854 81.9966 10.4002C82.5296 10.5149 82.9103 10.6146 83.1414 10.6981L83.642 8.15657C83.5169 8.11484 83.3234 8.0679 83.0621 8.01573C82.8019 7.96415 82.514 7.91199 82.2005 7.85924Z" fill="#818181"/>
<path d="M98.9177 10.0397C98.2897 9.28682 97.522 8.70144 96.6124 8.28297C95.7028 7.8645 94.6628 7.65527 93.4919 7.65527C92.551 7.65527 91.7196 7.78046 90.9977 8.03143C90.277 8.28297 89.7381 8.5235 89.3824 8.7536V0L86.4658 0.501928V23.8758C87.135 24.0641 87.9913 24.2525 89.0371 24.4403C90.0829 24.6287 91.2845 24.7226 92.6437 24.7226C93.8986 24.7226 95.0284 24.5238 96.0313 24.1267C97.0353 23.7297 97.8922 23.1652 98.6037 22.4326C99.314 21.7006 99.8633 20.8062 100.25 19.7502C100.637 18.6942 100.831 17.5066 100.831 16.1892C100.831 14.9344 100.667 13.7845 100.345 12.7377C100.02 11.6921 99.544 10.7926 98.9177 10.0397ZM96.3766 20.597C95.4357 21.6322 94.1808 22.1503 92.6124 22.1503C91.8181 22.1503 91.1535 22.1138 90.6205 22.0402C90.0875 21.9672 89.675 21.8889 89.3818 21.8049V11.4835C89.7376 11.1908 90.2486 10.9085 90.9177 10.6361C91.5881 10.3649 92.3192 10.2287 93.1141 10.2287C93.9502 10.2287 94.6663 10.3805 95.263 10.6836C95.8592 10.9868 96.3453 11.4052 96.7202 11.939C97.0968 12.4723 97.3697 13.1052 97.5371 13.8372C97.704 14.5698 97.788 15.354 97.788 16.1904C97.7885 18.0926 97.3169 19.5619 96.3766 20.597Z" fill="#818181"/>
<path d="M114.849 18.1812C114.619 17.648 114.288 17.193 113.861 16.8163C113.432 16.4401 112.915 16.1103 112.309 15.8281C111.702 15.5458 111.012 15.2583 110.239 14.9651C109.653 14.7564 109.15 14.5576 108.734 14.3692C108.314 14.1814 107.965 13.9774 107.682 13.7572C107.401 13.5381 107.192 13.2924 107.056 13.0199C106.92 12.7487 106.852 12.4346 106.852 12.0793C106.852 11.389 107.155 10.8818 107.762 10.5578C108.368 10.2338 109.079 10.0716 109.894 10.0716C110.835 10.0716 111.64 10.1608 112.309 10.3382C112.977 10.5161 113.469 10.6888 113.783 10.8557L114.316 8.34553C114.148 8.28293 113.914 8.2099 113.611 8.12644C113.307 8.04298 112.956 7.96473 112.56 7.89112C112.162 7.8181 111.733 7.7555 111.273 7.70334C110.814 7.65117 110.352 7.62451 109.894 7.62451C108.054 7.62451 106.6 8.04819 105.534 8.89556C104.468 9.74235 103.935 10.8882 103.935 12.3308C103.935 13.0634 104.059 13.6801 104.31 14.182C104.561 14.6834 104.895 15.1129 105.314 15.4681C105.733 15.824 106.229 16.1324 106.805 16.3938C107.379 16.6557 107.98 16.9113 108.608 17.1623C109.904 17.6857 110.835 18.1563 111.399 18.5736C111.963 18.9921 112.246 19.5572 112.246 20.2678C112.246 20.9581 111.956 21.46 111.383 21.7735C110.808 22.0871 109.925 22.2442 108.733 22.2442C107.521 22.2442 106.548 22.119 105.816 21.8674C105.085 21.6165 104.551 21.4281 104.217 21.3029L103.684 23.8131C103.976 23.9383 104.531 24.1215 105.346 24.362C106.16 24.6025 107.291 24.7225 108.733 24.7225C110.803 24.7225 112.396 24.3359 113.514 23.5616C114.634 22.7884 115.192 21.6478 115.192 20.142C115.193 19.3688 115.079 18.7144 114.849 18.1812Z" fill="#818181"/>
<path d="M15.7909 12.3928C15.0898 10.636 14.3951 8.95751 13.7045 7.35725C13.0151 5.75757 12.2937 4.17238 11.5411 2.604H8.74971C7.99711 4.17238 7.27636 5.75699 6.58575 7.35725C5.89514 8.95751 5.20047 10.636 4.5 12.3928C3.79954 14.1501 3.08343 16.0065 2.35168 17.9615C1.61993 19.9176 0.836037 22.0459 0 24.3463H3.16744C3.16744 24.3463 3.17034 24.3382 3.17092 24.3364H16.9635C16.9647 24.3399 16.9658 24.3428 16.9676 24.3463H20.292C19.4548 22.0459 18.6715 19.9176 17.9398 17.9615C17.2068 16.0065 16.4913 14.1495 15.7909 12.3928ZM4.21379 21.4182C5.49073 17.849 7.53592 12.1493 7.98088 10.9965C8.63963 9.29135 9.33488 7.65516 10.0666 6.0862C10.7769 7.65516 11.4618 9.29193 12.1205 10.9965C12.7793 12.7011 13.4426 14.4636 14.1124 16.283L14.9902 18.7926C15.3059 19.6823 15.6118 20.5563 15.909 21.4176H4.21379V21.4182Z" fill="#0072A5"/>
<path d="M1.08057 31.9626C1.25032 31.9157 1.47164 31.8629 1.74395 31.8044C2.01626 31.7459 2.3691 31.7169 2.80247 31.7169C3.37663 31.7169 3.79262 31.8838 4.04986 32.2177C4.07941 32.1945 4.13619 32.1545 4.22136 32.0988C4.30652 32.0432 4.41313 31.9864 4.54233 31.9273C4.67095 31.8687 4.82217 31.8189 4.99482 31.7777C5.16747 31.7366 5.35925 31.7163 5.57014 31.7163C5.91603 31.7163 6.19529 31.7673 6.40907 31.8699C6.62286 31.9725 6.78856 32.1162 6.9056 32.3005C7.02263 32.4848 7.10201 32.7063 7.14256 32.9642C7.1837 33.2221 7.20456 33.5038 7.20456 33.8081V36.3484H6.63387V33.993C6.63387 33.6945 6.62055 33.4348 6.59447 33.2151C6.5684 32.9955 6.51568 32.8141 6.43631 32.6697C6.35693 32.526 6.24453 32.4182 6.09795 32.3446C5.95137 32.2716 5.76075 32.235 5.52669 32.235C5.35114 32.235 5.19123 32.2513 5.04812 32.2832C4.90444 32.3156 4.78045 32.355 4.67501 32.402C4.56956 32.4489 4.48265 32.4959 4.41545 32.5428C4.34824 32.5898 4.30015 32.6245 4.2706 32.6483C4.32333 32.8007 4.36272 32.9723 4.38937 33.1624C4.41545 33.3531 4.42877 33.5536 4.42877 33.7646V36.349H3.85693V33.993C3.85693 33.6945 3.8436 33.4348 3.81753 33.2151C3.79146 32.9955 3.737 32.8141 3.65473 32.6697C3.57304 32.526 3.45716 32.4182 3.30768 32.3446C3.1582 32.2716 2.96064 32.235 2.71498 32.235C2.43978 32.235 2.20687 32.2495 2.01626 32.2791C1.82564 32.3087 1.70455 32.3347 1.65183 32.3585V36.349H1.08057V31.9626Z" fill="#BAB7B9"/>
<path d="M10.412 31.6987C10.7104 31.6987 10.9642 31.7416 11.1722 31.8262C11.3802 31.9114 11.5488 32.0285 11.6774 32.1781C11.806 32.3276 11.8999 32.5049 11.9584 32.7095C12.0169 32.9147 12.0464 33.1373 12.0464 33.3778V36.2433C11.9879 36.2607 11.9028 36.2798 11.7915 36.3001C11.6803 36.321 11.5511 36.343 11.4051 36.3662C11.2585 36.3894 11.0963 36.4085 10.9172 36.423C10.7388 36.4375 10.5557 36.445 10.368 36.445C10.1276 36.445 9.90682 36.4184 9.70462 36.3656C9.50299 36.3129 9.32686 36.2294 9.17739 36.1152C9.02791 36.0011 8.91087 35.8544 8.8257 35.6759C8.74054 35.4974 8.69824 35.2789 8.69824 35.021C8.69824 34.7746 8.74517 34.5637 8.83903 34.388C8.93289 34.2124 9.06441 34.0675 9.23416 33.9533C9.40392 33.8392 9.60612 33.7557 9.84077 33.703C10.0748 33.6502 10.3298 33.6236 10.605 33.6236C10.6872 33.6236 10.7736 33.6282 10.8639 33.6369C10.9549 33.6456 11.043 33.6578 11.1276 33.6722C11.2127 33.6867 11.2857 33.7018 11.3471 33.7163C11.4086 33.7314 11.4509 33.7441 11.4746 33.7557V33.4746C11.4746 33.3164 11.463 33.1628 11.4398 33.0132C11.4167 32.8637 11.3651 32.7292 11.2863 32.6087C11.2069 32.4887 11.0957 32.3919 10.9526 32.3189C10.8089 32.2459 10.62 32.2088 10.386 32.2088C10.0522 32.2088 9.80311 32.2325 9.63915 32.2789C9.47518 32.3259 9.35525 32.3641 9.27878 32.3931L9.19998 31.8923C9.29905 31.8454 9.45317 31.8013 9.66116 31.7607C9.86858 31.7196 10.1189 31.6987 10.412 31.6987ZM10.4648 35.9356C10.6872 35.9356 10.8819 35.9286 11.0493 35.9135C11.2162 35.899 11.3582 35.8799 11.4752 35.8567V34.2571C11.4109 34.2281 11.3083 34.1974 11.1675 34.1649C11.0267 34.133 10.8338 34.1168 10.5876 34.1168C10.4468 34.1168 10.3008 34.1272 10.1484 34.1475C9.99604 34.1678 9.85525 34.2118 9.72663 34.2791C9.59743 34.3463 9.49199 34.4385 9.41029 34.5561C9.3286 34.6732 9.28747 34.8285 9.28747 35.0221C9.28747 35.1919 9.31528 35.3357 9.3709 35.4528C9.42652 35.5698 9.50589 35.6637 9.60786 35.7344C9.71041 35.8046 9.83324 35.8562 9.97692 35.888C10.1206 35.9193 10.2828 35.9356 10.4648 35.9356Z" fill="#BAB7B9"/>
<path d="M15.4204 31.7168C15.6081 31.7168 15.7848 31.7313 15.9522 31.7608C16.1191 31.7904 16.235 31.8194 16.2993 31.8489L16.1851 32.341C16.1382 32.3178 16.0426 32.2929 15.8995 32.2663C15.7558 32.2396 15.567 32.2268 15.3329 32.2268C15.0867 32.2268 14.8891 32.2442 14.7396 32.2796C14.5901 32.3144 14.4922 32.3439 14.4453 32.3677V36.3495H13.874V32.0159C14.0206 31.9515 14.2222 31.8855 14.4806 31.8182C14.7379 31.7504 15.0513 31.7168 15.4204 31.7168Z" fill="#BAB7B9"/>
<path d="M18.6708 33.8748C18.8776 34.0203 19.0867 34.1889 19.2976 34.3802C19.5085 34.5715 19.7165 34.7784 19.9216 35.0015C20.1261 35.2241 20.3197 35.453 20.501 35.6877C20.6823 35.9225 20.8365 36.1427 20.9639 36.3496H20.2779C20.1406 36.1184 19.9807 35.8923 19.7994 35.6698C19.618 35.4478 19.4274 35.2386 19.2281 35.0427C19.0288 34.8468 18.8295 34.6677 18.6302 34.506C18.4309 34.3443 18.2542 34.2231 18.1001 34.142V36.3496H17.5288V29.6333L18.1001 29.5278V33.7618C18.2223 33.6574 18.3747 33.5143 18.5572 33.3334C18.7397 33.1526 18.9257 32.9706 19.1146 32.7875C19.304 32.6049 19.4825 32.4275 19.6505 32.256C19.8185 32.0844 19.9599 31.9337 20.0734 31.8039H20.7716C20.6372 31.9447 20.4825 32.1012 20.3086 32.2728C20.1343 32.4443 19.9535 32.6234 19.7646 32.8095C19.5757 32.9955 19.3898 33.1787 19.2067 33.3589C19.023 33.5398 18.8446 33.7113 18.6708 33.8748Z" fill="#BAB7B9"/>
<path d="M21.8428 34.0721C21.8428 33.6739 21.8996 33.3267 22.0137 33.0305C22.1278 32.7344 22.2773 32.4869 22.4615 32.2881C22.6464 32.0887 22.8567 31.9409 23.0942 31.8441C23.3312 31.7473 23.5757 31.6992 23.8277 31.6992C24.3839 31.6992 24.8277 31.8806 25.1591 32.244C25.4899 32.6074 25.6551 33.1667 25.6551 33.9231C25.6551 33.9701 25.6539 34.017 25.651 34.0634C25.6481 34.1103 25.6435 34.1544 25.6377 34.1955H22.4482C22.4656 34.7525 22.6035 35.1803 22.8613 35.4787C23.1191 35.7778 23.5288 35.9274 24.0913 35.9274C24.4019 35.9274 24.6475 35.8978 24.8294 35.8393C25.0108 35.7807 25.1429 35.7309 25.2252 35.6897L25.3306 36.1818C25.2483 36.2287 25.0948 36.2844 24.8694 36.3487C24.644 36.4131 24.3787 36.4455 24.0745 36.4455C23.6759 36.4455 23.3364 36.387 23.0554 36.2693C22.7744 36.1522 22.5427 35.9882 22.3613 35.7772C22.18 35.5663 22.0479 35.3153 21.9662 35.0255C21.8833 34.7357 21.8428 34.4181 21.8428 34.0721ZM25.0676 33.7116C25.0554 33.2369 24.9447 32.8677 24.7339 32.604C24.523 32.3402 24.224 32.2087 23.8376 32.2087C23.6325 32.2087 23.4494 32.2498 23.2883 32.3316C23.1272 32.4139 22.9865 32.5234 22.8665 32.6613C22.7466 32.7987 22.6527 32.9587 22.5855 33.1401C22.5183 33.3215 22.4783 33.5122 22.4668 33.7116H25.0676Z" fill="#BAB7B9"/>
<path d="M27.8353 31.8043H29.6453V32.2877H27.8353V34.7046C27.8353 34.9625 27.8574 35.1724 27.9014 35.3329C27.9454 35.494 28.0086 35.6186 28.0903 35.7067C28.1725 35.7948 28.2716 35.8534 28.3886 35.8824C28.5057 35.9119 28.6349 35.9264 28.7751 35.9264C29.0155 35.9264 29.2085 35.8986 29.355 35.8429C29.5016 35.7873 29.6158 35.7363 29.698 35.6893L29.8388 36.164C29.7565 36.2168 29.6134 36.2771 29.4083 36.3443C29.2032 36.4115 28.9808 36.4451 28.7403 36.4451C28.4593 36.4451 28.2235 36.4086 28.0329 36.335C27.8429 36.262 27.6905 36.1507 27.5764 36.0012C27.4616 35.8516 27.3811 35.6656 27.3348 35.443C27.2878 35.2205 27.2646 34.9567 27.2646 34.6519V30.4678L27.8359 30.3623V31.8043H27.8353Z" fill="#BAB7B9"/>
<path d="M31.7713 30.4326C31.7713 30.5671 31.7302 30.6743 31.6485 30.7531C31.5662 30.8325 31.4671 30.8719 31.3501 30.8719C31.2331 30.8719 31.1334 30.8325 31.0511 30.7531C30.9689 30.6737 30.9277 30.5671 30.9277 30.4326C30.9277 30.2975 30.9689 30.1909 31.0511 30.1115C31.1328 30.0321 31.2325 29.9927 31.3501 29.9927C31.4671 29.9927 31.5668 30.0321 31.6485 30.1115C31.7307 30.1909 31.7713 30.2981 31.7713 30.4326ZM31.6398 36.3485H31.0685V31.8039H31.6398V36.3485Z" fill="#BAB7B9"/>
<path d="M33.5195 31.9625C33.6893 31.9156 33.9176 31.8629 34.2049 31.8043C34.4917 31.7458 34.8434 31.7168 35.2588 31.7168C35.6047 31.7168 35.8926 31.7666 36.1244 31.8658C36.3556 31.9654 36.5404 32.1074 36.6783 32.2923C36.8156 32.4766 36.9141 32.698 36.9726 32.956C37.0311 33.2139 37.0601 33.4985 37.0601 33.8085V36.3489H36.4888V33.9929C36.4888 33.6706 36.4668 33.3982 36.4234 33.1756C36.3793 32.9531 36.3063 32.7711 36.2038 32.6308C36.1012 32.49 35.9668 32.3891 35.7999 32.3277C35.6331 32.2663 35.4234 32.2355 35.1719 32.2355C34.9025 32.2355 34.6696 32.25 34.4732 32.2796C34.2768 32.3091 34.1493 32.3352 34.0908 32.359V36.3495H33.5195V31.9625Z" fill="#BAB7B9"/>
<path d="M41.8496 35.8217C41.8143 35.8512 41.7621 35.8848 41.6914 35.9225C41.6213 35.9608 41.5344 36.0002 41.4319 36.0413C41.3293 36.0825 41.2123 36.1161 41.0808 36.1422C40.9487 36.1683 40.8009 36.1816 40.637 36.1816C40.3734 36.1816 40.1184 36.1404 39.8728 36.0581C39.6265 35.9764 39.4116 35.8472 39.2274 35.6715C39.0425 35.4959 38.8948 35.2687 38.7836 34.9905C38.6723 34.7123 38.6167 34.3738 38.6167 33.9751C38.6167 33.6528 38.6665 33.3537 38.7662 33.0784C38.8658 32.8031 39.0078 32.5643 39.192 32.3621C39.3763 32.1598 39.6022 32.0016 39.8687 31.8874C40.1352 31.7732 40.4354 31.7158 40.7691 31.7158C41.1909 31.7158 41.5292 31.7436 41.7841 31.7993C42.0391 31.8549 42.2482 31.9094 42.4122 31.9616V36.1103C42.4122 36.7896 42.2361 37.2747 41.8849 37.5651C41.5333 37.8549 41.0031 37.9998 40.2946 37.9998C40.0014 37.9998 39.7366 37.9777 39.4991 37.9337C39.2621 37.8896 39.0582 37.8381 38.8884 37.7801L39.0031 37.2614C39.1434 37.3257 39.3357 37.3813 39.5785 37.4283C39.8218 37.4752 40.0663 37.4984 40.312 37.4984C40.8508 37.4984 41.2418 37.3947 41.4852 37.1866C41.7279 36.9785 41.8496 36.6227 41.8496 36.1184V35.8217ZM41.8409 32.3586C41.7413 32.329 41.6126 32.3012 41.4545 32.2751C41.2963 32.2485 41.0709 32.2357 40.7778 32.2357C40.5315 32.2357 40.3137 32.278 40.1231 32.3632C39.9325 32.4484 39.7702 32.5684 39.6352 32.7237C39.5002 32.8791 39.3977 33.0634 39.3276 33.2772C39.2575 33.4911 39.2221 33.727 39.2221 33.9849C39.2221 34.2834 39.2633 34.5402 39.345 34.754C39.4272 34.9679 39.5338 35.1424 39.6659 35.2774C39.7975 35.4119 39.9481 35.5104 40.1184 35.5719C40.2882 35.6333 40.4614 35.664 40.637 35.664C40.8948 35.664 41.1306 35.6258 41.3444 35.5498C41.5582 35.4739 41.7233 35.3858 41.8409 35.2861V32.3586Z" fill="#BAB7B9"/>
<path d="M46.3926 34.0721C46.3926 33.6739 46.4494 33.3267 46.5635 33.0305C46.6776 32.7344 46.8271 32.4869 47.0114 32.2881C47.1962 32.0887 47.4065 31.9409 47.644 31.8441C47.881 31.7473 48.1255 31.6992 48.3775 31.6992C48.9337 31.6992 49.3775 31.8806 49.7089 32.244C50.0397 32.6074 50.2049 33.1667 50.2049 33.9231C50.2049 33.9701 50.2031 34.017 50.2008 34.0634C50.1979 34.1103 50.1933 34.1544 50.1875 34.1955H46.998C47.0154 34.7525 47.1533 35.1803 47.4111 35.4787C47.6689 35.7778 48.0786 35.9274 48.6411 35.9274C48.9517 35.9274 49.1973 35.8978 49.3793 35.8393C49.5606 35.7807 49.6927 35.7309 49.775 35.6897L49.8804 36.1818C49.7981 36.2287 49.6446 36.2844 49.4187 36.3487C49.1933 36.4131 48.9279 36.4455 48.6238 36.4455C48.2251 36.4455 47.8856 36.387 47.6046 36.2693C47.3236 36.1522 47.0919 35.9882 46.9105 35.7772C46.7286 35.5663 46.5971 35.3153 46.5154 35.0255C46.4331 34.7357 46.3926 34.4181 46.3926 34.0721ZM49.6168 33.7116C49.6046 33.2369 49.494 32.8677 49.2831 32.604C49.0722 32.3402 48.7732 32.2087 48.3868 32.2087C48.1817 32.2087 47.9986 32.2498 47.8375 32.3316C47.6765 32.4139 47.5357 32.5234 47.4158 32.6613C47.2958 32.7987 47.202 32.9587 47.1348 33.1401C47.0675 33.3215 47.0276 33.5122 47.016 33.7116H49.6168Z" fill="#BAB7B9"/>
<path d="M51.8481 31.9625C52.0179 31.9156 52.2462 31.8629 52.5335 31.8043C52.8203 31.7458 53.172 31.7168 53.588 31.7168C53.9339 31.7168 54.2218 31.7666 54.4536 31.8658C54.6848 31.9654 54.8696 32.1074 55.0075 32.2923C55.1448 32.4766 55.2433 32.698 55.3018 32.956C55.3603 33.2139 55.3893 33.4985 55.3893 33.8085V36.3489H54.818V33.9929C54.818 33.6706 54.796 33.3982 54.752 33.1756C54.7079 32.9531 54.6349 32.7711 54.5324 32.6308C54.4298 32.49 54.2954 32.3891 54.1286 32.3277C53.9617 32.2663 53.752 32.2355 53.5005 32.2355C53.2311 32.2355 52.9982 32.25 52.8018 32.2796C52.6054 32.3091 52.4779 32.3352 52.4194 32.359V36.3495H51.8481V31.9625Z" fill="#BAB7B9"/>
<path d="M60.1789 35.8217C60.1435 35.8512 60.0902 35.8848 60.0207 35.9225C59.95 35.9608 59.8631 36.0002 59.7612 36.0413C59.658 36.0825 59.541 36.1161 59.4095 36.1422C59.278 36.1683 59.1302 36.1816 58.9663 36.1816C58.7021 36.1816 58.4477 36.1404 58.2015 36.0581C57.9553 35.9764 57.7403 35.8472 57.5555 35.6715C57.3707 35.4959 57.2229 35.2687 57.1117 34.9905C57.0004 34.7123 56.9448 34.3738 56.9448 33.9751C56.9448 33.6528 56.9946 33.3537 57.0943 33.0784C57.194 32.8031 57.3359 32.5643 57.5201 32.3621C57.705 32.1598 57.9303 32.0016 58.1968 31.8874C58.4634 31.7732 58.7635 31.7158 59.0972 31.7158C59.5184 31.7158 59.8573 31.7436 60.1117 31.7993C60.3672 31.8549 60.5758 31.9094 60.7397 31.9616V36.1103C60.7397 36.7896 60.5642 37.2747 60.2125 37.5651C59.8614 37.8549 59.3313 37.9998 58.6221 37.9998C58.3295 37.9998 58.0648 37.9777 57.8272 37.9337C57.5902 37.8896 57.3863 37.8381 57.2165 37.7801L57.3307 37.2614C57.4709 37.3257 57.6632 37.3813 57.906 37.4283C58.1493 37.4752 58.3938 37.4984 58.6401 37.4984C59.1789 37.4984 59.5694 37.3947 59.8127 37.1866C60.0561 36.9785 60.1777 36.6227 60.1777 36.1184V35.8217H60.1789ZM60.169 32.3586C60.07 32.329 59.9413 32.3012 59.7832 32.2751C59.625 32.2485 59.3991 32.2357 59.1065 32.2357C58.8608 32.2357 58.6424 32.278 58.4524 32.3632C58.2617 32.4484 58.0989 32.5684 57.9645 32.7237C57.8295 32.8791 57.727 33.0634 57.6569 33.2772C57.5868 33.4911 57.5514 33.727 57.5514 33.9849C57.5514 34.2834 57.5926 34.5402 57.6743 34.754C57.7559 34.9679 57.8631 35.1424 57.9952 35.2774C58.1267 35.4119 58.2774 35.5104 58.4477 35.5719C58.6175 35.6333 58.7901 35.664 58.9663 35.664C59.2235 35.664 59.4593 35.6258 59.6737 35.5498C59.8875 35.4739 60.052 35.3858 60.1696 35.2861V32.3586H60.169Z" fill="#BAB7B9"/>
<path d="M63.3231 30.4326C63.3231 30.5671 63.2819 30.6743 63.2002 30.7531C63.118 30.8325 63.0189 30.8719 62.9013 30.8719C62.7837 30.8719 62.6846 30.8325 62.6023 30.7531C62.5201 30.6737 62.4795 30.5671 62.4795 30.4326C62.4795 30.2975 62.5206 30.1909 62.6023 30.1115C62.684 30.0321 62.7837 29.9927 62.9013 29.9927C63.0189 29.9927 63.1174 30.0321 63.2002 30.1115C63.2819 30.1909 63.3231 30.2981 63.3231 30.4326ZM63.191 36.3485H62.6197V31.8039H63.191V36.3485Z" fill="#BAB7B9"/>
<path d="M65.0715 31.9625C65.2412 31.9156 65.4701 31.8629 65.7569 31.8043C66.0437 31.7458 66.3953 31.7168 66.8113 31.7168C67.1566 31.7168 67.4452 31.7666 67.6763 31.8658C67.9081 31.9654 68.0923 32.1074 68.2296 32.2923C68.3675 32.4766 68.4655 32.698 68.524 32.956C68.5825 33.2139 68.6115 33.4985 68.6115 33.8085V36.3489H68.0402V33.9929C68.0402 33.6706 68.0182 33.3982 67.9741 33.1756C67.9301 32.9531 67.8571 32.7711 67.7546 32.6308C67.652 32.49 67.517 32.3891 67.3502 32.3277C67.1833 32.2663 66.9741 32.2355 66.7221 32.2355C66.4527 32.2355 66.2204 32.25 66.024 32.2796C65.8276 32.3091 65.7001 32.3352 65.6416 32.359V36.3495H65.0703V31.9625H65.0715Z" fill="#BAB7B9"/>
<path d="M70.168 34.0721C70.168 33.6739 70.2253 33.3267 70.3389 33.0305C70.4536 32.7344 70.6025 32.4869 70.7867 32.2881C70.971 32.0887 71.1825 31.9409 71.4194 31.8441C71.657 31.7473 71.9015 31.6992 72.1529 31.6992C72.7097 31.6992 73.1529 31.8806 73.4843 32.244C73.8151 32.6074 73.9803 33.1667 73.9803 33.9231C73.9803 33.9701 73.9791 34.017 73.9762 34.0634C73.9733 34.1103 73.9687 34.1544 73.9629 34.1955H70.774C70.7914 34.7525 70.9287 35.1803 71.1871 35.4787C71.4443 35.7778 71.8551 35.9274 72.4171 35.9274C72.7276 35.9274 72.9739 35.8978 73.1552 35.8393C73.3366 35.7807 73.4681 35.7309 73.5504 35.6897L73.6558 36.1818C73.5735 36.2287 73.42 36.2844 73.1946 36.3487C72.9687 36.4131 72.7033 36.4455 72.3991 36.4455C72.0011 36.4455 71.661 36.387 71.38 36.2693C71.099 36.1522 70.8679 35.9882 70.6859 35.7772C70.5046 35.5663 70.3725 35.3153 70.2908 35.0255C70.2085 34.7357 70.168 34.4181 70.168 34.0721ZM73.3922 33.7116C73.3806 33.2369 73.2694 32.8677 73.0585 32.604C72.8476 32.3402 72.5486 32.2087 72.1622 32.2087C71.9571 32.2087 71.774 32.2498 71.6129 32.3316C71.4519 32.4139 71.3111 32.5234 71.1911 32.6613C71.0712 32.7987 70.9774 32.9587 70.9101 33.1401C70.8429 33.3215 70.8035 33.5122 70.7914 33.7116H73.3922Z" fill="#BAB7B9"/>
<path d="M75.3516 34.0721C75.3516 33.6739 75.4089 33.3267 75.5225 33.0305C75.6366 32.7344 75.7861 32.4869 75.9703 32.2881C76.1546 32.0887 76.366 31.9409 76.603 31.8441C76.8405 31.7473 77.085 31.6992 77.3365 31.6992C77.8933 31.6992 78.3365 31.8806 78.6679 32.244C78.9987 32.6074 79.1638 33.1667 79.1638 33.9231C79.1638 33.9701 79.1627 34.017 79.1598 34.0634C79.1569 34.1103 79.1522 34.1544 79.1465 34.1955H75.9576C75.975 34.7525 76.1123 35.1803 76.3701 35.4787C76.6273 35.7778 77.0381 35.9274 77.6001 35.9274C77.9107 35.9274 78.1569 35.8978 78.3382 35.8393C78.5196 35.7807 78.6517 35.7309 78.7334 35.6897L78.8388 36.1818C78.7571 36.2287 78.603 36.2844 78.3776 36.3487C78.1517 36.4131 77.8869 36.4455 77.5821 36.4455C77.1841 36.4455 76.844 36.387 76.563 36.2693C76.282 36.1522 76.0503 35.9882 75.8689 35.7772C75.687 35.5663 75.5555 35.3153 75.4738 35.0255C75.3927 34.7357 75.3516 34.4181 75.3516 34.0721ZM78.5764 33.7116C78.5648 33.2369 78.4535 32.8677 78.2426 32.604C78.0317 32.3402 77.7328 32.2087 77.3463 32.2087C77.1412 32.2087 76.9582 32.2498 76.7971 32.3316C76.636 32.4139 76.4952 32.5234 76.3753 32.6613C76.2554 32.7987 76.1615 32.9587 76.0943 33.1401C76.0271 33.3215 75.9877 33.5122 75.9755 33.7116H78.5764Z" fill="#BAB7B9"/>
<path d="M82.354 31.7168C82.5411 31.7168 82.7184 31.7313 82.8853 31.7608C83.0527 31.7904 83.168 31.8194 83.2323 31.8489L83.1182 32.341C83.0712 32.3178 82.9762 32.2929 82.8325 32.2663C82.6888 32.2396 82.5 32.2268 82.2659 32.2268C82.0202 32.2268 81.8221 32.2442 81.6732 32.2796C81.5237 32.3144 81.4252 32.3439 81.3789 32.3677V36.3495H80.8076V32.0159C80.9542 31.9515 81.1564 31.8855 81.4142 31.8182C81.672 31.7504 81.9849 31.7168 82.354 31.7168Z" fill="#BAB7B9"/>
<path d="M85.1663 30.4326C85.1663 30.5671 85.1252 30.6743 85.0435 30.7531C84.9612 30.8325 84.8621 30.8719 84.7445 30.8719C84.6275 30.8719 84.5279 30.8325 84.4456 30.7531C84.3639 30.6737 84.3228 30.5671 84.3228 30.4326C84.3228 30.2975 84.3639 30.1909 84.4456 30.1115C84.5279 30.0321 84.6269 29.9927 84.7445 29.9927C84.8616 29.9927 84.9612 30.0321 85.0435 30.1115C85.1252 30.1909 85.1663 30.2981 85.1663 30.4326ZM85.0342 36.3485H84.463V31.8039H85.0342V36.3485Z" fill="#BAB7B9"/>
<path d="M86.9147 31.9625C87.0845 31.9156 87.3133 31.8629 87.6001 31.8043C87.8869 31.7458 88.2386 31.7168 88.6546 31.7168C89.0005 31.7168 89.2884 31.7666 89.5196 31.8658C89.7513 31.9654 89.9356 32.1074 90.0729 32.2923C90.2108 32.4766 90.3087 32.698 90.3672 32.956C90.4257 33.2139 90.4547 33.4985 90.4547 33.8085V36.3489H89.8834V33.9929C89.8834 33.6706 89.8614 33.3982 89.8174 33.1756C89.7734 32.9531 89.7004 32.7711 89.5978 32.6308C89.4953 32.49 89.3603 32.3891 89.1934 32.3277C89.0265 32.2663 88.8174 32.2355 88.5654 32.2355C88.296 32.2355 88.0636 32.25 87.8672 32.2796C87.6708 32.3091 87.5433 32.3352 87.4848 32.359V36.3495H86.9136V31.9625H86.9147Z" fill="#BAB7B9"/>
<path d="M95.2442 35.8217C95.2089 35.8512 95.1562 35.8848 95.0861 35.9225C95.016 35.9608 94.9291 36.0002 94.8265 36.0413C94.724 36.0825 94.6069 36.1161 94.4754 36.1422C94.3433 36.1683 94.1956 36.1816 94.0316 36.1816C93.768 36.1816 93.5136 36.1404 93.2674 36.0581C93.0212 35.9764 92.8062 35.8472 92.6214 35.6715C92.4372 35.4959 92.2888 35.2687 92.1776 34.9905C92.0664 34.7123 92.0107 34.3738 92.0107 33.9751C92.0107 33.6528 92.06 33.3537 92.1596 33.0784C92.2593 32.8031 92.4012 32.5643 92.5861 32.3621C92.7703 32.1598 92.9963 32.0016 93.2622 31.8874C93.5287 31.7732 93.8288 31.7158 94.1631 31.7158C94.5843 31.7158 94.9233 31.7436 95.1776 31.7993C95.4325 31.8549 95.6417 31.9094 95.8057 31.9616V36.1103C95.8057 36.7896 95.6301 37.2747 95.2784 37.5651C94.9273 37.8549 94.3972 37.9998 93.688 37.9998C93.3955 37.9998 93.1301 37.9777 92.8931 37.9337C92.6562 37.8896 92.4522 37.8381 92.2825 37.7801L92.3966 37.2614C92.5374 37.3257 92.7292 37.3813 92.9719 37.4283C93.2153 37.4752 93.4598 37.4984 93.7054 37.4984C94.2448 37.4984 94.6353 37.3947 94.8786 37.1866C95.122 36.9785 95.2431 36.6227 95.2431 36.1184V35.8217H95.2442ZM95.235 32.3586C95.1353 32.329 95.0067 32.3012 94.8485 32.2751C94.6909 32.2485 94.465 32.2357 94.1718 32.2357C93.9262 32.2357 93.7077 32.278 93.5171 32.3632C93.3265 32.4484 93.1637 32.5684 93.0293 32.7237C92.8943 32.8791 92.7917 33.0634 92.7216 33.2772C92.651 33.4911 92.6162 33.727 92.6162 33.9849C92.6162 34.2834 92.6567 34.5402 92.739 34.754C92.8213 34.9679 92.9279 35.1424 93.0594 35.2774C93.1915 35.4119 93.3421 35.5104 93.5125 35.5719C93.6822 35.6333 93.8549 35.664 94.0305 35.664C94.2883 35.664 94.5241 35.6258 94.7379 35.5498C94.9517 35.4739 95.1168 35.3858 95.2338 35.2861V32.3586H95.235Z" fill="#BAB7B9"/>

    </g>
  </symbol>

   <symbol id="calendar" viewBox="0 0 30 30">
    <g>
    <path d="M26.6406 2.94614H24.2188V1.96751C24.2188 1.44841 24.0146 0.950579 23.6513 0.583522C23.2879 0.216464 22.7951 0.0102539 22.2812 0.0102539C21.7674 0.0102539 21.2746 0.216464 20.9112 0.583522C20.5479 0.950579 20.3438 1.44841 20.3438 1.96751V2.94614H16.4688V1.96751C16.4688 1.44841 16.2646 0.950579 15.9013 0.583522C15.5379 0.216464 15.0451 0.0102539 14.5312 0.0102539C14.0174 0.0102539 13.5246 0.216464 13.1612 0.583522C12.7979 0.950579 12.5938 1.44841 12.5938 1.96751V2.94614H8.71875V1.96751C8.71875 1.44841 8.51462 0.950579 8.15127 0.583522C7.78792 0.216464 7.29511 0.0102539 6.78125 0.0102539C6.26739 0.0102539 5.77458 0.216464 5.41123 0.583522C5.04788 0.950579 4.84375 1.44841 4.84375 1.96751V2.94614H2.42188C1.77955 2.94614 1.16354 3.2039 0.709351 3.66273C0.255161 4.12155 0 4.74384 0 5.39271V24.9653C0 25.6142 0.255161 26.2365 0.709351 26.6953C1.16354 27.1541 1.77955 27.4119 2.42188 27.4119H15.9844C16.1128 27.4119 16.236 27.3603 16.3269 27.2685C16.4177 27.1768 16.4688 27.0523 16.4688 26.9226C16.4688 26.7928 16.4177 26.6683 16.3269 26.5766C16.236 26.4848 16.1128 26.4332 15.9844 26.4332H2.42188C2.03684 26.4321 1.6679 26.277 1.39563 26.002C1.12337 25.727 0.9699 25.3543 0.96875 24.9653V9.79654H28.0938V18.1149C28.0938 18.2447 28.1448 18.3691 28.2356 18.4609C28.3265 18.5527 28.4497 18.6042 28.5781 18.6042C28.7066 18.6042 28.8298 18.5527 28.9206 18.4609C29.0115 18.3691 29.0625 18.2447 29.0625 18.1149V5.39271C29.0625 4.74384 28.8073 4.12155 28.3531 3.66273C27.899 3.2039 27.2829 2.94614 26.6406 2.94614ZM21.3125 1.96751C21.3125 1.70796 21.4146 1.45905 21.5962 1.27552C21.7779 1.09199 22.0243 0.988883 22.2812 0.988883C22.5382 0.988883 22.7846 1.09199 22.9663 1.27552C23.1479 1.45905 23.25 1.70796 23.25 1.96751V4.9034C23.25 5.16295 23.1479 5.41187 22.9663 5.59539C22.7846 5.77892 22.5382 5.88203 22.2812 5.88203C22.0243 5.88203 21.7779 5.77892 21.5962 5.59539C21.4146 5.41187 21.3125 5.16295 21.3125 4.9034V1.96751ZM13.5625 1.96751C13.5625 1.70796 13.6646 1.45905 13.8462 1.27552C14.0279 1.09199 14.2743 0.988883 14.5312 0.988883C14.7882 0.988883 15.0346 1.09199 15.2163 1.27552C15.3979 1.45905 15.5 1.70796 15.5 1.96751V4.9034C15.5 5.16295 15.3979 5.41187 15.2163 5.59539C15.0346 5.77892 14.7882 5.88203 14.5312 5.88203C14.2743 5.88203 14.0279 5.77892 13.8462 5.59539C13.6646 5.41187 13.5625 5.16295 13.5625 4.9034V1.96751ZM5.8125 1.96751C5.8125 1.70796 5.91456 1.45905 6.09624 1.27552C6.27792 1.09199 6.52432 0.988883 6.78125 0.988883C7.03818 0.988883 7.28458 1.09199 7.46626 1.27552C7.64794 1.45905 7.75 1.70796 7.75 1.96751V4.9034C7.75 5.16295 7.64794 5.41187 7.46626 5.59539C7.28458 5.77892 7.03818 5.88203 6.78125 5.88203C6.52432 5.88203 6.27792 5.77892 6.09624 5.59539C5.91456 5.41187 5.8125 5.16295 5.8125 4.9034V1.96751ZM28.0938 8.81791H0.96875V5.39271C0.9699 5.00375 1.12337 4.63104 1.39563 4.356C1.6679 4.08096 2.03684 3.92593 2.42188 3.92477H4.84375V4.9034C4.84375 5.4225 5.04788 5.92033 5.41123 6.28739C5.77458 6.65445 6.26739 6.86066 6.78125 6.86066C7.29511 6.86066 7.78792 6.65445 8.15127 6.28739C8.51462 5.92033 8.71875 5.4225 8.71875 4.9034V3.92477H12.5938V4.9034C12.5938 5.4225 12.7979 5.92033 13.1612 6.28739C13.5246 6.65445 14.0174 6.86066 14.5312 6.86066C15.0451 6.86066 15.5379 6.65445 15.9013 6.28739C16.2646 5.92033 16.4688 5.4225 16.4688 4.9034V3.92477H20.3438V4.9034C20.3438 5.4225 20.5479 5.92033 20.9112 6.28739C21.2746 6.65445 21.7674 6.86066 22.2812 6.86066C22.7951 6.86066 23.2879 6.65445 23.6513 6.28739C24.0146 5.92033 24.2188 5.4225 24.2188 4.9034V3.92477H26.6406C27.0257 3.92593 27.3946 4.08096 27.6669 4.356C27.9391 4.63104 28.0926 5.00375 28.0938 5.39271V8.81791Z" fill="#28292A"/>
<path d="M13.5625 13.2218C13.5625 12.9623 13.4604 12.7133 13.2788 12.5298C13.0971 12.3463 12.8507 12.2432 12.5938 12.2432H10.6562C10.3993 12.2432 10.1529 12.3463 9.97124 12.5298C9.78956 12.7133 9.6875 12.9623 9.6875 13.2218V14.6898C9.6875 14.9494 9.78956 15.1983 9.97124 15.3818C10.1529 15.5653 10.3993 15.6685 10.6562 15.6685H12.5938C12.8507 15.6685 13.0971 15.5653 13.2788 15.3818C13.4604 15.1983 13.5625 14.9494 13.5625 14.6898V13.2218ZM10.6562 14.6898V13.2218H12.5938V14.6898H10.6562Z" fill="#28292A"/>
<path d="M7.75 13.2218C7.75 12.9623 7.64794 12.7133 7.46626 12.5298C7.28458 12.3463 7.03818 12.2432 6.78125 12.2432H4.84375C4.58682 12.2432 4.34042 12.3463 4.15874 12.5298C3.97706 12.7133 3.875 12.9623 3.875 13.2218V14.6898C3.875 14.9494 3.97706 15.1983 4.15874 15.3818C4.34042 15.5653 4.58682 15.6685 4.84375 15.6685H6.78125C7.03818 15.6685 7.28458 15.5653 7.46626 15.3818C7.64794 15.1983 7.75 14.9494 7.75 14.6898V13.2218ZM4.84375 14.6898V13.2218H6.78125V14.6898H4.84375Z" fill="#28292A"/>
<path d="M24.2188 15.6685C24.4757 15.6685 24.7221 15.5653 24.9038 15.3818C25.0854 15.1983 25.1875 14.9494 25.1875 14.6898V13.2218C25.1875 12.9623 25.0854 12.7133 24.9038 12.5298C24.7221 12.3463 24.4757 12.2432 24.2188 12.2432H22.2812C22.0243 12.2432 21.7779 12.3463 21.5962 12.5298C21.4146 12.7133 21.3125 12.9623 21.3125 13.2218V14.6898C21.3125 14.9494 21.4146 15.1983 21.5962 15.3818C21.7779 15.5653 22.0243 15.6685 22.2812 15.6685H24.2188ZM22.2812 13.2218H24.2188V14.6898H22.2812V13.2218Z" fill="#28292A"/>
<path d="M13.5625 17.6256C13.5625 17.3661 13.4604 17.1171 13.2788 16.9336C13.0971 16.7501 12.8507 16.647 12.5938 16.647H10.6562C10.3993 16.647 10.1529 16.7501 9.97124 16.9336C9.78956 17.1171 9.6875 17.3661 9.6875 17.6256V19.0936C9.6875 19.3532 9.78956 19.6021 9.97124 19.7856C10.1529 19.9692 10.3993 20.0723 10.6562 20.0723H12.5938C12.8507 20.0723 13.0971 19.9692 13.2788 19.7856C13.4604 19.6021 13.5625 19.3532 13.5625 19.0936V17.6256ZM10.6562 19.0936V17.6256H12.5938V19.0936H10.6562Z" fill="#28292A"/>
<path d="M7.75 17.6256C7.75 17.3661 7.64794 17.1171 7.46626 16.9336C7.28458 16.7501 7.03818 16.647 6.78125 16.647H4.84375C4.58682 16.647 4.34042 16.7501 4.15874 16.9336C3.97706 17.1171 3.875 17.3661 3.875 17.6256V19.0936C3.875 19.3532 3.97706 19.6021 4.15874 19.7856C4.34042 19.9692 4.58682 20.0723 4.84375 20.0723H6.78125C7.03818 20.0723 7.28458 19.9692 7.46626 19.7856C7.64794 19.6021 7.75 19.3532 7.75 19.0936V17.6256ZM4.84375 19.0936V17.6256H6.78125V19.0936H4.84375Z" fill="#28292A"/>
<path d="M12.5938 21.0509H10.6562C10.3993 21.0509 10.1529 21.154 9.97124 21.3375C9.78956 21.5211 9.6875 21.77 9.6875 22.0295V23.4975C9.6875 23.757 9.78956 24.0059 9.97124 24.1894C10.1529 24.373 10.3993 24.4761 10.6562 24.4761H12.5938C12.8507 24.4761 13.0971 24.373 13.2788 24.1894C13.4604 24.0059 13.5625 23.757 13.5625 23.4975V22.0295C13.5625 21.77 13.4604 21.5211 13.2788 21.3375C13.0971 21.154 12.8507 21.0509 12.5938 21.0509ZM10.6562 23.4975V22.0295H12.5938V23.4975H10.6562Z" fill="#28292A"/>
<path d="M16.4688 15.6685H18.4062C18.6632 15.6685 18.9096 15.5653 19.0913 15.3818C19.2729 15.1983 19.375 14.9494 19.375 14.6898V13.2218C19.375 12.9623 19.2729 12.7133 19.0913 12.5298C18.9096 12.3463 18.6632 12.2432 18.4062 12.2432H16.4688C16.2118 12.2432 15.9654 12.3463 15.7837 12.5298C15.6021 12.7133 15.5 12.9623 15.5 13.2218V14.6898C15.5 14.9494 15.6021 15.1983 15.7837 15.3818C15.9654 15.5653 16.2118 15.6685 16.4688 15.6685ZM16.4688 13.2218H18.4062V14.6898H16.4688V13.2218Z" fill="#28292A"/>
<path d="M15.5 19.0936C15.5 19.3532 15.6021 19.6021 15.7837 19.7856C15.9654 19.9692 16.2118 20.0723 16.4688 20.0723C16.5972 20.0723 16.7204 20.0207 16.8113 19.9289C16.9021 19.8372 16.9531 19.7127 16.9531 19.5829C16.9531 19.4532 16.9021 19.3287 16.8113 19.2369C16.7204 19.1452 16.5972 19.0936 16.4688 19.0936V17.6256H18.4062C18.5347 17.6256 18.6579 17.5741 18.7488 17.4823C18.8396 17.3905 18.8906 17.2661 18.8906 17.1363C18.8906 17.0065 18.8396 16.8821 18.7488 16.7903C18.6579 16.6985 18.5347 16.647 18.4062 16.647H16.4688C16.2118 16.647 15.9654 16.7501 15.7837 16.9336C15.6021 17.1171 15.5 17.3661 15.5 17.6256V19.0936Z" fill="#28292A"/>
<path d="M6.78125 21.0509H4.84375C4.58682 21.0509 4.34042 21.154 4.15874 21.3375C3.97706 21.5211 3.875 21.77 3.875 22.0295V23.4975C3.875 23.757 3.97706 24.0059 4.15874 24.1894C4.34042 24.373 4.58682 24.4761 4.84375 24.4761H6.78125C7.03818 24.4761 7.28458 24.373 7.46626 24.1894C7.64794 24.0059 7.75 23.757 7.75 23.4975V22.0295C7.75 21.77 7.64794 21.5211 7.46626 21.3375C7.28458 21.154 7.03818 21.0509 6.78125 21.0509ZM4.84375 23.4975V22.0295H6.78125V23.4975H4.84375Z" fill="#28292A"/>
<path d="M22.7656 16.647C21.5202 16.647 20.3028 17.02 19.2673 17.719C18.2318 18.418 17.4247 19.4115 16.9481 20.5738C16.4715 21.7362 16.3468 23.0152 16.5897 24.2491C16.8327 25.4831 17.4324 26.6165 18.3131 27.5061C19.1937 28.3957 20.3157 29.0016 21.5372 29.247C22.7586 29.4925 24.0247 29.3665 25.1753 28.885C26.3259 28.4036 27.3094 27.5883 28.0013 26.5422C28.6932 25.4961 29.0625 24.2662 29.0625 23.0081C29.0606 21.3216 28.3965 19.7048 27.2161 18.5123C26.0356 17.3197 24.4351 16.6489 22.7656 16.647ZM22.7656 28.3906C21.7118 28.3906 20.6817 28.0749 19.8055 27.4835C18.9293 26.8921 18.2464 26.0514 17.8431 25.0679C17.4398 24.0844 17.3343 23.0021 17.5399 21.958C17.7455 20.9139 18.2529 19.9549 18.9981 19.2021C19.7432 18.4494 20.6926 17.9367 21.7262 17.729C22.7597 17.5213 23.831 17.6279 24.8046 18.0353C25.7782 18.4427 26.6103 19.1326 27.1958 20.0178C27.7813 20.9029 28.0938 21.9436 28.0938 23.0081C28.0921 24.4351 27.5302 25.8032 26.5313 26.8123C25.5325 27.8213 24.1782 28.3889 22.7656 28.3906Z" fill="#28292A"/>
<path d="M25.5643 20.9568L21.7968 24.7627L20.0846 23.0325C19.9932 22.9434 19.8708 22.8941 19.7438 22.8952C19.6168 22.8963 19.4954 22.9477 19.4055 23.0385C19.3157 23.1292 19.2648 23.2519 19.2637 23.3802C19.2626 23.5085 19.3114 23.6321 19.3996 23.7244L21.4544 25.8006C21.5452 25.8923 21.6684 25.9438 21.7968 25.9438C21.9253 25.9438 22.0484 25.8923 22.1393 25.8006L26.2492 21.6487C26.3375 21.5564 26.3863 21.4328 26.3852 21.3045C26.3841 21.1762 26.3331 21.0535 26.2433 20.9628C26.1535 20.8721 26.032 20.8206 25.905 20.8195C25.778 20.8184 25.6557 20.8677 25.5643 20.9568Z" fill="#28292A"/>
    </g>
  </symbol>

 <symbol id="arrow" viewBox="0 0 40 14">
    <g>
    <path d="M38.078 6.14307H0V7.85482H38.078V6.14307Z" fill="#28292A"/>
<path d="M32.2059 14L30.9968 12.7461L37.398 7.00064L30.9968 1.25386L32.2059 0L40.0001 7.00064L32.2059 14Z" fill="#28292A"/>
    </g>
  </symbol>
   <symbol id="documents" viewBox="0 0 21 27">
    <g>
    <path d="M20.0591 4.80864L16.0215 0.772703C15.9696 0.72047 15.9078 0.678987 15.8399 0.650626C15.7719 0.622266 15.699 0.607585 15.6253 0.607422H1.33936C1.26573 0.60738 1.19282 0.62185 1.12479 0.650005C1.05677 0.67816 0.994954 0.719448 0.942895 0.771508C0.890835 0.823568 0.849547 0.885379 0.821392 0.953407C0.793237 1.02143 0.778767 1.09434 0.778809 1.16797V25.832C0.778767 25.9057 0.793237 25.9786 0.821392 26.0466C0.849547 26.1146 0.890835 26.1764 0.942895 26.2285C0.994954 26.2806 1.05677 26.3218 1.12479 26.35C1.19282 26.3782 1.26573 26.3926 1.33936 26.3926H19.6612C19.7348 26.3926 19.8078 26.3782 19.8758 26.35C19.9438 26.3218 20.0056 26.2806 20.0577 26.2285C20.1097 26.1764 20.151 26.1146 20.1792 26.0466C20.2073 25.9786 20.2218 25.9057 20.2218 25.832V5.20391C20.2218 5.05584 20.1633 4.91375 20.0591 4.80864ZM16.1858 2.52097L18.3098 4.64464H16.1858V2.52097ZM1.8999 25.2715V1.72852H15.0647V5.20391C15.0645 5.27764 15.0789 5.35069 15.107 5.41886C15.135 5.48704 15.1763 5.549 15.2284 5.6012C15.2804 5.65339 15.3423 5.69479 15.4104 5.72303C15.4785 5.75126 15.5516 5.76578 15.6253 5.76573H19.102V25.2728L1.8999 25.2715Z" fill="white"/>
<path d="M5.21484 8.66876H10.5C10.6487 8.66876 10.7912 8.60971 10.8964 8.50458C11.0015 8.39946 11.0605 8.25688 11.0605 8.10822C11.0605 7.95955 11.0015 7.81697 10.8964 7.71185C10.7912 7.60673 10.6487 7.54767 10.5 7.54767H5.21484C5.06618 7.54767 4.9236 7.60673 4.81848 7.71185C4.71335 7.81697 4.6543 7.95955 4.6543 8.10822C4.6543 8.25688 4.71335 8.39946 4.81848 8.50458C4.9236 8.60971 5.06618 8.66876 5.21484 8.66876Z" fill="white"/>
<path d="M15.7852 10.2433H5.21484C5.06618 10.2433 4.9236 10.3024 4.81848 10.4075C4.71335 10.5127 4.6543 10.6552 4.6543 10.8039C4.6543 10.9526 4.71335 11.0951 4.81848 11.2003C4.9236 11.3054 5.06618 11.3644 5.21484 11.3644H15.7852C15.9338 11.3644 16.0764 11.3054 16.1815 11.2003C16.2866 11.0951 16.3457 10.9526 16.3457 10.8039C16.3457 10.6552 16.2866 10.5127 16.1815 10.4075C16.0764 10.3024 15.9338 10.2433 15.7852 10.2433Z" fill="white"/>
<path d="M15.7852 12.9395H5.21484C5.06618 12.9395 4.9236 12.9985 4.81848 13.1036C4.71335 13.2088 4.6543 13.3513 4.6543 13.5C4.6543 13.6487 4.71335 13.7912 4.81848 13.8964C4.9236 14.0015 5.06618 14.0605 5.21484 14.0605H15.7852C15.9338 14.0605 16.0764 14.0015 16.1815 13.8964C16.2866 13.7912 16.3457 13.6487 16.3457 13.5C16.3457 13.3513 16.2866 13.2088 16.1815 13.1036C16.0764 12.9985 15.9338 12.9395 15.7852 12.9395Z" fill="white"/>
<path d="M15.7852 15.6356H5.21484C5.06618 15.6356 4.9236 15.6946 4.81848 15.7997C4.71335 15.9049 4.6543 16.0474 4.6543 16.1961C4.6543 16.3448 4.71335 16.4873 4.81848 16.5925C4.9236 16.6976 5.06618 16.7567 5.21484 16.7567H15.7852C15.9338 16.7567 16.0764 16.6976 16.1815 16.5925C16.2866 16.4873 16.3457 16.3448 16.3457 16.1961C16.3457 16.0474 16.2866 15.9049 16.1815 15.7997C16.0764 15.6946 15.9338 15.6356 15.7852 15.6356Z" fill="white"/>
<path d="M15.7852 18.3312H5.21484C5.06618 18.3312 4.9236 18.3903 4.81848 18.4954C4.71335 18.6005 4.6543 18.7431 4.6543 18.8918C4.6543 19.0405 4.71335 19.183 4.81848 19.2882C4.9236 19.3933 5.06618 19.4523 5.21484 19.4523H15.7852C15.9338 19.4523 16.0764 19.3933 16.1815 19.2882C16.2866 19.183 16.3457 19.0405 16.3457 18.8918C16.3457 18.7431 16.2866 18.6005 16.1815 18.4954C16.0764 18.3903 15.9338 18.3312 15.7852 18.3312Z" fill="white"/>
    </g>
  </symbol>

   <symbol id="download" viewBox="0 0 22 22">
    <g>
    <path d="M0 20.4287H22V22.0001H0V20.4287Z" fill="white"/>
<path d="M18.1383 10.2127L17.0303 9.10171L11.8541 14.2779V0H10.2826V14.2779L5.10493 9.10016L4 10.2112L11.0684 17.2857L18.1383 10.2127Z" fill="white"/>
    </g>
  </symbol>

   <symbol id="floor-plan" viewBox="0 0 31 31">
    <g>
    <path d="M3.39062 30.0312H5.32812C5.59585 30.0312 5.8125 29.8144 5.8125 29.5469V26.1562H17.4375V29.5469C17.4375 29.8144 17.6541 30.0312 17.9219 30.0312H22.2812H25.1875H29.5469C29.8146 30.0312 30.0312 29.8144 30.0312 29.5469V22.2812C30.0312 22.1528 29.9802 22.0296 29.8893 21.9388L29.0625 21.1119V16.9531V1.45312C29.0625 1.18563 28.8459 0.96875 28.5781 0.96875H3.39062C2.05528 0.96875 0.96875 2.05528 0.96875 3.39062V27.6094C0.96875 28.9447 2.05528 30.0312 3.39062 30.0312ZM22.7656 29.0625V24.2188H24.7031V29.0625H22.7656ZM29.0625 29.0625H25.6719V23.7344C25.6719 23.4669 25.4552 23.25 25.1875 23.25H22.2812C22.0135 23.25 21.7969 23.4669 21.7969 23.7344V29.0625H18.4062V22.4818L23.7344 17.1537L25.8138 19.2331C25.9529 19.3719 26.161 19.4133 26.3417 19.3381C26.5228 19.2631 26.6406 19.0865 26.6406 18.8906V17.4375H28.0938V21.3125C28.0938 21.4409 28.1448 21.5641 28.2357 21.655L29.0625 22.4818V29.0625ZM3.39062 1.9375H28.0938V16.4688H26.1562C25.8885 16.4688 25.6719 16.6856 25.6719 16.9531V17.7213L24.0768 16.1263C23.8876 15.9371 23.5811 15.9371 23.3919 16.1263L17.5794 21.9388C17.4886 22.0296 17.4375 22.1528 17.4375 22.2812V25.1875H5.8125V5.32812C5.8125 5.06063 5.59585 4.84375 5.32812 4.84375H3.39062C2.58932 4.84375 1.9375 4.19193 1.9375 3.39062C1.9375 2.58932 2.58932 1.9375 3.39062 1.9375ZM1.9375 5.32694C2.34241 5.63157 2.8457 5.8125 3.39062 5.8125H4.84375V29.0625H3.39062C2.58932 29.0625 1.9375 28.4107 1.9375 27.6094V5.32694Z" fill="#28292A"/>
    <path d="M7.75 20.8281H10.6562C10.924 20.8281 11.1406 20.6112 11.1406 20.3438C11.1406 19.7123 11.5455 19.1735 12.1094 18.9736V20.3438C12.1094 20.6112 12.326 20.8281 12.5938 20.8281H15.9844C16.2521 20.8281 16.4688 20.6112 16.4688 20.3438V14.0469H26.1562C26.424 14.0469 26.6406 13.83 26.6406 13.5625V3.875C26.6406 3.6075 26.424 3.39062 26.1562 3.39062H7.75C7.48227 3.39062 7.26562 3.6075 7.26562 3.875V20.3438C7.26562 20.6112 7.48227 20.8281 7.75 20.8281ZM25.6719 13.0781H19.8594V12.1094H21.3125C21.5802 12.1094 21.7969 11.8925 21.7969 11.625C21.7969 10.4555 20.9634 9.47677 19.8594 9.25185V4.35938H25.6719V13.0781ZM13.5625 4.35938V9.20312H13.0781V10.1719H14.0469C14.3146 10.1719 14.5312 9.955 14.5312 9.6875V4.35938H18.8906V9.6875C18.8906 9.955 19.1073 10.1719 19.375 10.1719C20.0065 10.1719 20.5453 10.5768 20.7453 11.1406H19.375C19.1073 11.1406 18.8906 11.3575 18.8906 11.625V13.0781H15.9844C15.7166 13.0781 15.5 13.295 15.5 13.5625V19.8594H13.0781V18.4062C13.0781 18.1388 12.8615 17.9219 12.5938 17.9219C11.424 17.9219 10.4458 18.7553 10.2206 19.8594H8.23438V10.1719H11.625V9.20312H8.23438V4.35938H13.5625Z" fill="#28292A"/>
    </g>
  </symbol>

   <symbol id="home-geo" viewBox="0 0 22 29">
    <g>
    <path d="M6.44784 16.7657H14.8582C15.1678 16.7657 15.4188 16.5121 15.4188 16.1993V10.8767L16.1754 11.5318C16.4114 11.7362 16.7653 11.7068 16.9659 11.4703C17.1675 11.2328 17.1402 10.8752 16.9051 10.6716L11.0179 5.57398C10.808 5.39217 10.4981 5.39217 10.2881 5.57398L4.40094 10.6716C4.16579 10.8751 4.13854 11.2327 4.34005 11.4703C4.5415 11.7078 4.89552 11.7353 5.13062 11.5318L5.88715 10.8767V16.1993C5.88715 16.5121 6.13823 16.7657 6.44784 16.7657ZM7.00853 9.90568L10.653 6.75001L14.2975 9.90568V15.6329H11.2137V13.3673C11.2137 13.0544 10.9626 12.8009 10.653 12.8009C10.3434 12.8009 10.0923 13.0544 10.0923 13.3673V15.6329H7.00853V9.90568Z" fill="#28292A"/>
<path d="M10.2501 28.8275C10.3557 28.9378 10.5011 29 10.653 29C10.8049 29 10.9503 28.9378 11.0559 28.8275C14.6344 25.096 21.306 16.7017 21.306 11.1016C21.306 9.12503 20.7741 7.16561 19.7676 5.43512C19.6106 5.1654 19.2671 5.07523 19.0001 5.23365C18.7331 5.39213 18.6438 5.73922 18.8007 6.00895C19.7061 7.56566 20.1846 9.32667 20.1846 11.1016C20.1846 16.8318 12.5152 25.5692 10.653 27.6057C8.79079 25.5692 1.12137 16.8318 1.12137 11.1016C1.12137 5.69793 5.48634 1.13281 10.653 1.13281C12.3562 1.13281 14.0356 1.62791 15.5096 2.56463C15.7716 2.73121 16.1179 2.65157 16.2828 2.38678C16.4476 2.12198 16.3688 1.77229 16.1066 1.60576C14.4536 0.555248 12.5677 0 10.653 0C4.67879 0 0 5.25398 0 11.1016C0 16.6958 6.66047 25.0844 10.2501 28.8275Z" fill="#28292A"/>
<path d="M17.7736 4.24814C18.0832 4.24814 18.3343 3.99456 18.3343 3.68175C18.3343 3.36894 18.0832 3.11536 17.7736 3.11536C17.4639 3.11536 17.2129 3.36894 17.2129 3.68175C17.2129 3.99456 17.4639 4.24814 17.7736 4.24814Z" fill="#28292A"/>
</g>
  </symbol>

   <symbol id="home" viewBox="0 0 31 30">
    <g>
    <path d="M27.5618 11.7673L28.2193 12.2042C28.3028 12.2595 28.4003 12.2889 28.5003 12.2889C28.5313 12.2889 28.5633 12.2859 28.5943 12.2801C28.7243 12.2556 28.8393 12.1817 28.9138 12.0741L30.0368 10.4539C30.1923 10.2303 30.1323 9.92597 29.9038 9.77428L15.3428 0.104915C15.1728 -0.00762784 14.9513 -0.00762784 14.7813 0.104915L0.219283 9.77477C-0.00921671 9.92646 -0.0687168 10.2308 0.0862833 10.4544L1.20928 12.0746C1.28328 12.1822 1.39878 12.2561 1.52878 12.2806C1.65978 12.305 1.79428 12.2771 1.90378 12.2047L2.56178 11.7673V16.6629C2.26878 16.7881 2.02928 17.0196 1.90378 17.3239C1.06328 19.3575 0.0617833 22.0302 0.0617833 23.2221C0.0617833 24.9788 1.10678 26.343 2.56178 26.5999V28.6046H0.0617833V29.5833H30.0618V28.6046H27.5618V11.7673ZM1.75628 11.1199L1.19478 10.3091L15.0618 1.10067L28.9288 10.3091L28.3673 11.1194L15.3428 2.47027C15.2578 2.414 15.1598 2.38562 15.0618 2.38562C14.9638 2.38562 14.8658 2.414 14.7808 2.47027L1.75628 11.1199ZM1.06178 23.2221C1.06178 22.427 1.70628 20.411 2.83028 17.6909C2.88778 17.5524 3.01128 17.5378 3.06178 17.5378C3.11228 17.5378 3.23578 17.5524 3.29328 17.6909C4.41728 20.411 5.06178 22.427 5.06178 23.2221C5.06178 24.6397 4.22028 25.6687 3.06178 25.6687C1.90328 25.6687 1.06178 24.6397 1.06178 23.2221ZM3.56178 26.5999C5.01678 26.343 6.06178 24.9788 6.06178 23.2221C6.06178 22.0302 5.06028 19.3575 4.21978 17.3239C4.09428 17.0196 3.85478 16.7881 3.56178 16.6629V11.1033L15.0618 3.46651L26.5618 11.1033V20.6278L26.4778 20.5045C26.2923 20.2319 25.8313 20.2319 25.6458 20.5045L24.6458 21.9724C24.5913 22.0522 24.5618 22.1471 24.5618 22.2435V23.2221H23.5618V22.2435C23.5618 22.1471 23.5323 22.0522 23.4778 21.9719L22.4778 20.504C22.2923 20.2314 21.8313 20.2314 21.6458 20.504L20.6458 21.9719C20.5913 22.0522 20.5618 22.1471 20.5618 22.2435V23.2221H19.5618V22.2435C19.5618 22.1471 19.5323 22.0522 19.4778 21.9719L18.4778 20.504C18.2923 20.2314 17.8313 20.2314 17.6458 20.504L16.6458 21.9719C16.5913 22.0522 16.5618 22.1471 16.5618 22.2435V28.6046H13.5618V19.3076C13.5618 19.037 13.3383 18.8183 13.0618 18.8183H7.56179C7.28528 18.8183 7.06179 19.037 7.06179 19.3076V28.6046H3.56178V26.5999ZM18.5618 28.6046H17.5618V22.3918L18.0618 21.6578L18.5618 22.3918V28.6046ZM19.5618 24.2008H20.5618V25.1794H19.5618V24.2008ZM19.5618 26.158H20.5618V28.6046H19.5618V26.158ZM22.5618 28.6046H21.5618V22.3918L22.0618 21.6578L22.5618 22.3918V28.6046ZM23.5618 24.2008H24.5618V25.1794H23.5618V24.2008ZM23.5618 26.158H24.5618V28.6046H23.5618V26.158ZM12.5618 28.6046H8.06178V19.7969H12.5618V28.6046ZM25.5618 28.6046V22.3918L26.0618 21.6578L26.5618 22.3918V28.6046H25.5618Z" fill="#28292A"/>
<path d="M13.5615 15.3932H16.5615C17.6645 15.3932 18.5615 14.5154 18.5615 13.4359V10.5C18.5615 9.42056 17.6645 8.54272 16.5615 8.54272H13.5615C12.4585 8.54272 11.5615 9.42056 11.5615 10.5V13.4359C11.5615 14.5154 12.4585 15.3932 13.5615 15.3932ZM12.5615 13.4359V12.4573H14.5615V14.4146H13.5615C13.01 14.4146 12.5615 13.9756 12.5615 13.4359ZM16.5615 14.4146H15.5615V12.4573H17.5615V13.4359C17.5615 13.9756 17.113 14.4146 16.5615 14.4146ZM17.5615 10.5V11.4786H15.5615V9.52136H16.5615C17.113 9.52136 17.5615 9.96028 17.5615 10.5ZM13.5615 9.52136H14.5615V11.4786H12.5615V10.5C12.5615 9.96028 13.01 9.52136 13.5615 9.52136Z" fill="#28292A"/>
</g>
  </symbol>

   <symbol id="letter" viewBox="0 0 21 15">
    <g>
    <path d="M20.25 0H0.750014C0.335786 0 0 0.335786 0 0.74997V14.25C0 14.6642 0.335786 15 0.750014 15H20.25C20.6642 15 21 14.6642 21 14.25V0.74997C21 0.335786 20.6642 0 20.25 0ZM19.02 1.49998L10.5 8.0535L1.98 1.49998H19.02ZM19.5 13.5H1.49998V3.02322L10.0433 9.5947C10.3126 9.80156 10.6874 9.80156 10.9567 9.5947L19.5 3.02322V13.5Z" fill="white"/>
    </g>
  </symbol>

   <symbol id="money" viewBox="0 0 28 29">
    <g>
    <circle cx="13.7778" cy="14.3333" r="13.2778" stroke="#28292A"/>
<path d="M15.6289 18.2812H12.1719V21H10.7656V18.2812H8.46875V17.0859H10.7656V15.8906H8.46875V14.6953H10.7656V7.34766H15.9453C17.4141 7.34766 18.5781 7.74219 19.4375 8.53125C20.2969 9.3125 20.7266 10.3438 20.7266 11.625C20.7266 12.8984 20.3047 13.9219 19.4609 14.6953C18.6172 15.4688 17.4844 15.8672 16.0625 15.8906H12.1719V17.0859H15.6289V18.2812ZM12.1719 14.6953H15.9453C16.9922 14.6953 17.8164 14.4141 18.418 13.8516C19.0195 13.2891 19.3203 12.5547 19.3203 11.6484C19.3203 10.7344 19.0312 9.99609 18.4531 9.43359C17.8828 8.86328 17.0898 8.56641 16.0742 8.54297H12.1719V14.6953Z" fill="#28292A"/>

    </g>
  </symbol>

  <symbol id="play-btn" viewBox="0 0 24 24">
    <g>
    <path d="M12 0C5.3828 0 0 5.38331 0 12C0 18.6167 5.3828 24 12 24C18.6172 24 24 18.6167 24 12C24 5.38331 18.6172 0 12 0ZM12 23C5.93456 23 0.999984 18.0654 0.999984 12C0.999984 5.93456 5.93456 0.999984 12 0.999984C18.0654 0.999984 23 5.93456 23 12C23 18.0654 18.0654 23 12 23Z" fill="white"/>
<path d="M16.7705 11.5796L9.77053 7.07958C9.6172 6.9795 9.41897 6.97411 9.26077 7.06102C9.09961 7.14891 9 7.31691 9 7.5V16.5C9 16.6831 9.09961 16.8511 9.26077 16.939C9.33497 16.9795 9.41798 17 9.50002 17C9.59377 17 9.6885 16.9736 9.77053 16.9204L16.7705 12.4204C16.9131 12.3286 17 12.1699 17 12C17 11.8301 16.9131 11.6714 16.7705 11.5796ZM9.99998 15.584V8.41604L15.5752 12L9.99998 15.584Z" fill="white"/>
</g>
  </symbol>

    <symbol id="point" viewBox="0 0 56 57">
    <g>
    <g clip-path="url(#clip0)">
<path d="M47.7946 8.23981C36.8544 -2.74585 19.1469 -2.74703 8.20555 8.23981C-2.73434 19.2251 -2.73603 37.0067 8.20555 47.9935L26.5206 66.3848C27.3378 67.2054 28.6625 67.2053 29.4796 66.3848L47.7947 47.9935C58.7343 37.0082 58.736 19.2266 47.7946 8.23981Z" fill="#38790A"/>
</g>
<g clip-path="url(#clip1)">
<path d="M13.8478 39.9831L13.8536 38.9848L12.5687 38.9818V35.3516H19.3803V38.9804L18.1497 38.9848L18.1519 39.9831H21.9249L21.9272 38.9869L20.7147 38.9862L20.7184 30.5899L21.9262 30.5932L21.9301 29.6378L18.149 29.6342L18.1482 30.5927L19.3803 30.5936V34.3489L12.5687 34.3525V30.5935L13.8471 30.5927L13.8507 29.6342H10.0007L10.0021 30.587L11.2887 30.5841L11.2742 38.9804L10 38.9847L10.0022 39.9795L13.8478 39.9831Z" fill="white"/>
<path d="M25.377 34.2212V30.6233H27.2431C28.7263 30.6233 29.6036 31.0372 29.6036 32.2471C29.6036 33.6798 28.4871 34.2211 27.8491 34.2211H25.377V34.2212ZM27.9129 35.0967C29.2845 35.0967 30.1458 35.5902 30.1458 36.8638C30.1458 38.2329 29.3273 38.9891 27.2698 38.9891L25.3769 38.9854V35.0966H27.9129V35.0967ZM27.3387 39.9999C30.2733 39.9999 31.4376 38.7105 31.4376 36.8638C31.4376 35.6061 30.7039 34.7942 29.4599 34.4599C30.1616 33.9982 30.8474 33.25 30.8474 32.1198C30.8474 30.6074 29.747 29.6523 27.3066 29.6523L22.9888 29.6342L22.9939 30.5907L24.1806 30.5915V38.9862L22.9917 38.9834L22.9938 39.9783L27.3387 39.9999Z" fill="white"/>
<path d="M35.5811 39.9818L35.5817 38.987L34.5107 38.9862V31.467H34.5263L38.3252 39.9322H39.5703L43.3326 31.449H43.3481L43.3464 38.987L42.3546 38.9877L42.3515 39.9819H45.9006L45.9012 38.987L44.6905 38.9841L44.6913 30.5883L45.9017 30.5876V29.6342L42.8699 29.6486L38.9653 38.4473L35.0875 29.6342L31.9604 29.6305L31.9645 30.5908L33.1672 30.5915L33.1734 38.9862L31.9681 38.9833L31.9651 39.9782L35.5811 39.9818Z" fill="white"/>
<path d="M45.8964 25.5439H10.02V26.8666H45.8964V25.5439Z" fill="white"/>
<path fill-rule="evenodd" clip-rule="evenodd" d="M18.7251 11.9847L11.2788 17.1182L11.2818 22.7917H12.57V17.4234L15.8883 15.1672L19.3775 17.4231L19.3774 22.7834L20.7097 22.7833L20.7099 17.4232L30.5012 11.4273L32.4017 12.7942L33.4166 12.094L30.5003 10L27.4322 11.9847H18.7251Z" fill="white"/>
<path fill-rule="evenodd" clip-rule="evenodd" d="M14.7329 17.4226L17.0329 17.4214V19.709H14.7372L14.7329 17.4226Z" fill="white"/>
<path d="M35.471 17.4208H33.1753V19.7084H35.471V17.4208Z" fill="white"/>
<path d="M38.1741 17.4208H35.8784V19.7084H38.1741V17.4208Z" fill="white"/>
<path d="M35.471 20.1404H33.1753V22.4291H35.471V20.1404Z" fill="white"/>
<path d="M38.1741 20.1404H35.8784V22.4291H38.1741V20.1404Z" fill="white"/>
<path d="M42.3957 12.0161H41.0293V15.6728H42.3957V12.0161Z" fill="white"/>
<path fill-rule="evenodd" clip-rule="evenodd" d="M43.3472 17.4173L44.6926 17.1205L44.6899 22.7837H43.3462L43.3472 17.4173Z" fill="white"/>
<path fill-rule="evenodd" clip-rule="evenodd" d="M25.3462 17.4453L35.7695 10.5555L44.8847 17.1457L43.5429 17.4568L35.7768 12.0129L27.4141 17.4453H25.3462Z" fill="white"/>
</g></g>
  </symbol>

    <symbol id="quote" viewBox="0 0 85 56">
    <g>
    <path d="M85 38.4392H59.7528L68.8251 56L47.01 38.4392V0H85V38.4392Z" fill="#38790A"/>
<path d="M37.99 0V38.4392H12.7428L21.815 56L3.8147e-06 38.4392V0H37.99Z" fill="#38790A"/>
</g>
  </symbol>

    <symbol id="zoom" viewBox="0 0 25 25">
    <g>
    <path d="M22.1828 2.81495C18.4508 -0.927374 12.3917 -0.935816 8.6494 2.79618C5.03843 6.39713 4.88566 12.1971 8.30195 15.9832L7.57114 16.714C6.98069 16.1235 6.02333 16.1234 5.43282 16.7138C5.43276 16.7139 5.4327 16.7139 5.43263 16.714L0.442952 21.7037C-0.147556 22.2941 -0.147682 23.2515 0.442763 23.842C0.442826 23.842 0.442889 23.8421 0.442952 23.8422L1.15562 24.5548C1.74607 25.1451 2.70318 25.1451 3.29362 24.5548L8.2833 19.5652C8.87381 18.9747 8.87394 18.0173 8.28349 17.4268C8.28343 17.4268 8.28337 17.4267 8.2833 17.4267L9.01411 16.6958C12.9353 20.2395 18.9867 19.9333 22.5303 16.0122C25.9531 12.2247 25.8002 6.41716 22.1828 2.81495ZM7.57114 18.852L2.58146 23.8417C2.38464 24.0384 2.06561 24.0384 1.86879 23.8417L1.15612 23.1285C0.959687 22.9317 0.959687 22.6131 1.15612 22.4163L6.1458 17.4267C6.34514 17.2361 6.65914 17.2361 6.85847 17.4267L7.57114 18.1398C7.76758 18.3366 7.76758 18.6552 7.57114 18.852ZM21.4707 15.645C18.1246 18.991 12.6995 18.9909 9.3535 15.6448C6.00752 12.2987 6.00758 6.8736 9.35369 3.52762C12.6997 0.181696 18.1246 0.181696 21.4707 3.52762C24.8113 6.876 24.8113 12.2966 21.4707 15.645Z" fill="white"/>
</g>
  </symbol>

</svg>